<svg width="186" height="126" viewBox="0 0 186 126" fill="none" xmlns="http://www.w3.org/2000/svg">
<path d="M1 61.1185C1 27.9161 42.1891 1 93 1C114.988 1 130.674 4.091 146.5 12.5L155.5 17.0021C173.643 27.9831 185 42 185 62.7976C185 96 143.811 121.237 93 121.237C77.5843 121.237 65.2632 119.88 52.5 115.5L48.5 118C36.2158 127.201 25 123.5 25 123.5C32.5 119.5 35 118.5 39 110C8.5 94.5 1 82 1 61.1185Z" fill="white"/>
<path d="M52.5 115.5C65.2632 119.88 77.5843 121.237 93 121.237C143.811 121.237 185 97.5 185 61.1185C185 42 173.643 27.9831 155.5 17.0021M146.5 12.5C130.674 4.091 114.988 1 93 1C42.1891 1 1 27.9161 1 61.1185C1 82 8.5 94.5 39 110C36.5 116 32.5 119.5 25 123.5C25 123.5 34.5 126.5 46 120" stroke="#202124" stroke-width="2" stroke-linecap="round" stroke-linejoin="round"/>
<path d="M43.7325 45.896L45.4325 47.29C45.1945 47.562 44.9735 47.783 44.8545 48.004C43.6305 49.993 41.4545 52.713 39.0575 54.651C40.0265 55.62 41.0295 56.725 41.6925 57.524L39.7035 59.105C38.9895 58.153 37.5615 56.572 36.4565 55.433C35.4705 54.43 33.7365 52.9 32.7165 52.169L34.5185 50.724C35.1985 51.234 36.3205 52.152 37.3915 53.087C39.3125 51.557 40.9105 49.585 41.7095 48.191H32.7165C32.0365 48.191 31.1185 48.276 30.7615 48.31V45.93C31.2035 45.998 32.1385 46.083 32.7165 46.083H42.1515C42.7975 46.083 43.3755 46.015 43.7325 45.896ZM55.9215 49.568V56.521C55.9215 57.269 55.9555 58.323 56.0745 58.748H53.3885C53.4565 58.34 53.5075 57.269 53.5075 56.521V50.945C51.7565 51.829 49.6315 52.713 47.6595 53.257L46.4355 51.183C49.4105 50.537 52.2665 49.279 54.1705 48.106C55.8875 47.035 57.6555 45.522 58.6075 44.264L60.4265 45.913C59.1345 47.205 57.6045 48.48 55.9215 49.568ZM78.0725 45.964L76.7295 46.559C76.3725 45.845 75.8795 44.961 75.4035 44.315L76.7465 43.771C77.2055 44.4 77.7665 45.369 78.0725 45.964ZM75.8285 46.474L74.4685 47.052C74.1285 46.372 73.6525 45.454 73.1935 44.808L74.5365 44.247C74.9615 44.876 75.5225 45.845 75.8285 46.474ZM65.4075 50.996L67.3285 51.897C66.5465 53.41 64.9825 55.637 64.0475 56.64L62.2115 55.382C63.3505 54.294 64.7105 52.424 65.4075 50.996ZM75.1485 49.483H71.1705V57.388C71.1705 58.374 70.6095 58.986 69.4025 58.986C68.4845 58.986 67.4985 58.935 66.6315 58.833L66.4275 56.725C67.1585 56.861 67.9065 56.929 68.3145 56.929C68.7565 56.929 68.9265 56.759 68.9435 56.317C68.9605 55.688 68.9605 50.299 68.9605 49.5V49.483H64.6425C64.1325 49.483 63.4695 49.5 62.9935 49.551V47.29C63.5035 47.358 64.1155 47.426 64.6425 47.426H68.9605V46.066C68.9605 45.624 68.8755 44.876 68.8075 44.587H71.3235C71.2895 44.825 71.1705 45.641 71.1705 46.066V47.426H75.1315C75.6075 47.426 76.3555 47.375 76.7975 47.307V49.534C76.2705 49.5 75.6075 49.483 75.1485 49.483ZM72.7855 51.948L74.6385 50.945C75.5055 52.033 76.8655 54.175 77.5455 55.416L75.5395 56.504C74.8085 55.042 73.6015 52.985 72.7855 51.948ZM88.2215 49.568V56.521C88.2215 57.269 88.2555 58.323 88.3745 58.748H85.6885C85.7565 58.34 85.8075 57.269 85.8075 56.521V50.945C84.0565 51.829 81.9315 52.713 79.9595 53.257L78.7355 51.183C81.7105 50.537 84.5665 49.279 86.4705 48.106C88.1875 47.035 89.9555 45.522 90.9075 44.264L92.7265 45.913C91.4345 47.205 89.9045 48.48 88.2215 49.568ZM106.101 45.437L107.495 46.474C107.359 46.661 107.053 47.188 106.9 47.528C106.322 48.854 105.37 50.673 104.231 52.203C105.914 53.665 107.971 55.841 108.974 57.065L107.036 58.748C105.931 57.218 104.35 55.484 102.752 53.937C100.95 55.841 98.6889 57.609 96.3599 58.714L94.6089 56.878C97.3459 55.841 99.9809 53.784 101.579 51.999C102.701 50.724 103.738 49.041 104.112 47.834H98.3489C97.6349 47.834 96.6999 47.936 96.3429 47.953V45.539C96.8019 45.607 97.8389 45.658 98.3489 45.658H104.333C105.081 45.658 105.761 45.556 106.101 45.437ZM119.463 49.313H117.508V50.231H119.463V49.313ZM123.271 50.231V49.313H121.265V50.231H123.271ZM121.265 52.594H123.271V51.642H121.265V52.594ZM117.508 52.594H119.463V51.642H117.508V52.594ZM117.508 54.056V56.606H115.604V47.851H119.412C118.647 47.494 117.831 47.154 117.134 46.882L118.443 45.794C119.038 46.015 119.752 46.287 120.449 46.593C120.925 46.321 121.384 45.998 121.809 45.692H115.757V44.162H123.56L123.951 44.06L125.158 45.029C124.308 45.828 123.237 46.644 122.132 47.324C122.506 47.511 122.863 47.681 123.152 47.851H125.209V54.855C125.209 55.671 125.056 56.096 124.512 56.368C123.968 56.657 123.237 56.657 122.217 56.657C122.149 56.164 121.945 55.501 121.724 55.076C122.251 55.093 122.846 55.093 123.016 55.093C123.22 55.076 123.271 55.008 123.271 54.838V54.056H121.265V56.538H119.463V54.056H117.508ZM114.669 46.576L113.156 48.021C112.629 47.205 111.354 46.032 110.317 45.25L111.711 43.958C112.748 44.672 114.057 45.76 114.669 46.576ZM114.159 50.197V55.62C114.822 56.759 115.995 57.235 117.729 57.303C119.752 57.388 123.781 57.337 126.11 57.15C125.872 57.626 125.566 58.561 125.481 59.122C123.39 59.224 119.786 59.258 117.712 59.173C115.672 59.088 114.329 58.595 113.309 57.286C112.527 57.949 111.728 58.612 110.776 59.326L109.841 57.303C110.572 56.895 111.439 56.334 112.221 55.756V52.05H110.062V50.197H114.159ZM132.026 44.128V45.658H127.028V44.128H132.026ZM132.638 46.406V48.004H126.178V46.406H132.638ZM132.077 48.769V50.316H126.977V48.769H132.077ZM126.977 52.611V51.098H132.077V52.611H126.977ZM139.421 46.219H135.579V49.721H139.421V46.219ZM130.377 56.997V55.042H128.626V56.997H130.377ZM141.444 51.625H139.03C139.472 54.379 140.237 56.164 142.277 57.745C141.75 58.17 141.155 58.867 140.9 59.496C138.418 57.388 137.534 55.025 137.058 51.625H135.562C135.46 54.26 134.984 57.473 133.148 59.496C132.944 59.224 132.485 58.816 132.094 58.51V58.578H128.626V59.241H126.926V53.444H132.094V57.507C133.471 55.467 133.59 52.73 133.59 50.537V44.298H141.444V51.625ZM154.347 49.16C154.755 49.772 155.384 50.792 155.707 51.472L154.415 52.05C153.99 51.115 153.633 50.452 153.089 49.687L154.347 49.16ZM156.251 48.378C156.676 48.973 157.322 49.976 157.679 50.639L156.404 51.251C155.945 50.333 155.554 49.704 155.01 48.956L156.251 48.378ZM143.008 46.372C143.688 46.355 144.334 46.321 144.657 46.287C146.068 46.168 148.856 45.913 151.933 45.641C153.667 45.505 155.503 45.403 156.693 45.352L156.71 47.528C155.809 47.528 154.364 47.545 153.463 47.749C151.423 48.293 149.91 50.469 149.91 52.458C149.91 55.229 152.494 56.232 155.35 56.368L154.568 58.697C151.032 58.476 147.7 56.572 147.7 52.917C147.7 50.486 149.043 48.582 150.182 47.732C148.72 47.885 145.184 48.259 143.229 48.684L143.008 46.372ZM19.629 69.386L18.405 71.001C17.844 70.44 16.637 69.658 15.634 69.199L16.79 67.72C17.742 68.128 19 68.825 19.629 69.386ZM18.813 73.823L17.623 75.455C17.062 74.894 15.855 74.163 14.886 73.721L15.991 72.225C16.96 72.616 18.201 73.262 18.813 73.823ZM17.011 83.309L15.192 82.204C15.906 80.878 16.926 78.702 17.674 76.713L19.289 77.835C18.626 79.654 17.793 81.643 17.011 83.309ZM25.698 79.382H27.5C27.551 78.889 27.602 78.294 27.653 77.597H25.902C25.834 78.226 25.766 78.838 25.698 79.382ZM24.168 77.597H22.604C22.519 78.209 22.434 78.804 22.366 79.382H23.964C24.032 78.838 24.1 78.226 24.168 77.597ZM23.012 74.163L22.825 75.778H24.355C24.389 75.234 24.44 74.69 24.474 74.163H23.012ZM26.072 75.778H27.755C27.772 75.285 27.806 74.741 27.823 74.163H26.208C26.174 74.69 26.123 75.234 26.072 75.778ZM30.9 77.597H29.506C29.472 78.277 29.421 78.855 29.37 79.382H30.713V81.082H29.149C29.013 81.881 28.843 82.357 28.639 82.629C28.265 83.156 27.857 83.326 27.279 83.394C26.786 83.479 25.97 83.479 25.137 83.445C25.12 82.952 24.916 82.238 24.644 81.796C25.375 81.847 26.038 81.864 26.378 81.864C26.667 81.864 26.837 81.813 27.007 81.592C27.075 81.49 27.16 81.32 27.228 81.082H22.111L21.975 81.915L20.037 81.762C20.258 80.623 20.513 79.161 20.734 77.597H19.272V75.778H20.972C21.091 74.843 21.193 73.908 21.278 73.041C21.074 73.313 20.87 73.551 20.666 73.789C20.309 73.449 19.442 72.871 18.966 72.633C20.173 71.443 21.142 69.522 21.669 67.601L23.658 68.009C23.505 68.519 23.335 69.029 23.148 69.522H30.543V71.324H22.332C22.128 71.715 21.907 72.089 21.669 72.446H29.744C29.744 72.446 29.744 73.024 29.727 73.262C29.693 74.18 29.659 75.013 29.608 75.778H30.9V77.597ZM37.887 71.987H35.388C35.082 72.684 34.742 73.33 34.368 73.959C35.218 74.452 36.119 75.064 36.799 75.608C37.258 74.52 37.615 73.313 37.887 71.987ZM43.735 67.635V75.557C44.823 76.509 46.047 77.291 47.288 77.835C46.795 78.26 46.149 79.076 45.809 79.603C45.095 79.229 44.398 78.77 43.735 78.26V83.445H41.627V76.288C40.862 75.455 40.165 74.52 39.553 73.551C38.278 78.362 35.915 81.609 32.889 83.326C32.549 82.884 31.767 82.136 31.274 81.813C33.144 80.844 34.691 79.382 35.881 77.41C35.218 76.798 34.232 76.067 33.331 75.472C33.059 75.846 32.77 76.169 32.464 76.475C32.107 76.135 31.274 75.472 30.781 75.183C32.651 73.483 34.028 70.644 34.776 67.601L36.782 67.992C36.595 68.706 36.391 69.386 36.153 70.066H38.516L38.873 69.998L40.199 70.457C40.114 70.967 40.029 71.46 39.944 71.936L40.573 71.698C40.862 72.242 41.219 72.803 41.627 73.33V67.635H43.735ZM53.918 73.721V74.503C53.833 79.994 53.748 82.017 53.323 82.646C53 83.105 52.677 83.275 52.218 83.36C51.81 83.428 51.147 83.445 50.467 83.428C50.433 82.884 50.246 82.119 49.974 81.626C50.501 81.677 50.943 81.694 51.215 81.694C51.419 81.694 51.572 81.643 51.691 81.439C51.912 81.082 52.014 79.637 52.082 75.557H50.858C50.79 78.141 50.365 81.065 48.495 83.53C48.138 83.122 47.492 82.612 46.999 82.289C48.869 79.824 49.107 76.934 49.107 74.673V72.055H47.373V70.185H49.923V67.601H51.861V70.185H54.377V71.477C55.108 70.372 55.652 69.012 55.975 67.601L57.964 67.975C57.828 68.536 57.658 69.097 57.471 69.641H62.758V71.477H56.706C56.196 72.48 55.601 73.347 54.955 74.027C54.598 73.67 53.782 73.024 53.323 72.735C53.544 72.531 53.748 72.31 53.952 72.055H50.875V73.721H53.918ZM61.806 74.622L63.234 75.914C62.435 76.662 61.449 77.478 60.616 78.073C61.211 79.671 62.078 80.946 63.302 81.728C62.843 82.102 62.231 82.884 61.925 83.428C59.681 81.796 58.644 78.838 58.032 75.183C57.828 75.268 57.641 75.353 57.437 75.438V83.462H55.516V76.135L55.159 76.237C54.887 75.744 54.394 74.996 53.969 74.554C56.366 74.078 59.409 72.837 60.922 71.664L62.367 72.718C61.67 73.296 60.718 73.874 59.681 74.418C59.783 75.081 59.919 75.744 60.072 76.373C60.718 75.812 61.364 75.166 61.806 74.622ZM78.636 68.57V70.491H70.374V68.57H78.636ZM67.11 67.601L69.065 68.4C67.841 69.998 66.005 71.749 64.39 72.871C64.135 72.429 63.625 71.613 63.268 71.222C64.679 70.321 66.294 68.791 67.11 67.601ZM67.756 71.273L69.694 72.021C69.184 72.888 68.555 73.772 67.875 74.622V83.496H65.852V76.849C65.376 77.308 64.917 77.733 64.458 78.107C64.169 77.699 63.489 76.781 63.081 76.356C64.815 75.166 66.668 73.194 67.756 71.273ZM79.061 73.245V75.166H76.732V81.133C76.732 82.221 76.528 82.782 75.78 83.088C75.066 83.394 73.978 83.428 72.465 83.428C72.38 82.833 72.125 81.949 71.853 81.371C72.822 81.422 73.944 81.422 74.25 81.405C74.556 81.405 74.675 81.337 74.675 81.082V75.166H69.66V73.245H79.061ZM90.026 75.047L92.389 74.537C93.511 75.965 94.021 77.155 94.021 78.583C94.021 81.116 91.743 82.952 88.054 82.952C85.402 82.952 83.532 81.796 83.532 78.991C83.532 78.583 83.583 77.988 83.651 77.291C82.427 77.172 81.322 76.985 80.421 76.73L80.54 74.69C81.628 75.064 82.767 75.251 83.855 75.353C83.957 74.605 84.042 73.823 84.144 73.058C82.971 72.939 81.781 72.735 80.795 72.463L80.914 70.508C81.883 70.831 83.141 71.035 84.365 71.137C84.433 70.627 84.467 70.168 84.501 69.794C84.535 69.335 84.569 68.859 84.535 68.298L86.898 68.434C86.762 69.046 86.677 69.488 86.609 69.93C86.558 70.219 86.507 70.661 86.422 71.205C87.629 71.188 88.717 71.12 89.516 71.001L89.448 73.007C88.445 73.109 87.527 73.16 86.167 73.16C86.065 73.908 85.963 74.707 85.878 75.455H85.997C87.034 75.455 88.275 75.37 89.38 75.251L89.329 77.257C88.377 77.342 87.391 77.41 86.354 77.41C86.133 77.41 85.895 77.41 85.674 77.41C85.64 77.903 85.606 78.328 85.606 78.634C85.606 80.011 86.456 80.776 88.122 80.776C90.468 80.776 91.76 79.705 91.76 78.311C91.76 77.172 91.114 76.084 90.026 75.047ZM102.674 75.302V75.336C102.674 76.373 102.742 77.291 102.861 78.124C103.677 77.308 104.425 76.288 104.986 74.928C104.102 74.945 103.32 75.098 102.674 75.302ZM99.461 80.096C99.937 80.096 100.515 79.909 101.144 79.552C100.957 78.498 100.821 77.342 100.787 76.186C99.529 77.036 98.679 78.328 98.679 79.28C98.679 79.807 98.917 80.096 99.461 80.096ZM105.7 72.208L107.774 72.684C107.689 72.871 107.57 73.228 107.468 73.551C109.423 74.197 110.715 75.71 110.715 77.682C110.715 80.045 109.304 82.374 105.173 82.986L104.051 81.218C107.298 80.861 108.624 79.229 108.624 77.58C108.624 76.56 108.029 75.659 106.89 75.217C105.955 77.512 104.612 79.263 103.337 80.317C103.456 80.759 103.592 81.167 103.728 81.575L101.79 82.153C101.722 81.949 101.637 81.711 101.569 81.473C100.753 81.881 99.852 82.153 98.968 82.153C97.727 82.153 96.69 81.405 96.69 79.688C96.69 77.546 98.475 75.268 100.821 74.163C100.872 73.449 100.923 72.735 100.991 72.055H100.447C99.563 72.055 98.254 71.987 97.472 71.953L97.404 69.998C97.999 70.083 99.478 70.219 100.515 70.219H101.161L101.263 69.318C101.297 69.012 101.331 68.604 101.314 68.315L103.524 68.366C103.405 68.706 103.337 69.012 103.286 69.267C103.218 69.539 103.167 69.845 103.116 70.168C105.156 70.1 106.975 69.896 108.828 69.454L108.845 71.392C107.196 71.698 104.935 71.902 102.861 72.004C102.81 72.497 102.759 73.007 102.742 73.517C103.541 73.33 104.425 73.211 105.258 73.211H105.547C105.615 72.871 105.683 72.446 105.7 72.208ZM121.136 69.216C120.966 69.42 120.779 69.726 120.592 69.998C119.759 71.205 118.484 73.551 117.651 75.03C118.28 74.673 118.926 74.52 119.572 74.52C120.83 74.52 121.595 75.336 121.663 76.73C121.697 77.478 121.646 78.838 121.748 79.535C121.799 80.198 122.258 80.453 122.819 80.453C124.264 80.453 125.182 78.566 125.658 76.475L127.477 77.954C126.61 80.861 125.046 82.765 122.445 82.765C120.609 82.765 119.725 81.643 119.657 80.419C119.589 79.518 119.606 78.141 119.555 77.461C119.504 76.866 119.181 76.526 118.569 76.526C117.413 76.526 116.478 77.682 115.883 79.059C115.424 80.045 114.863 81.915 114.608 82.799L112.228 82C113.469 78.634 117.022 71.562 117.906 69.964C118.127 69.505 118.433 68.961 118.739 68.247L121.136 69.216ZM130.996 68.536L133.716 68.57C133.597 69.284 133.512 70.134 133.495 70.814C133.41 72.616 133.291 76.39 133.291 78.481C133.291 80.181 134.311 80.725 135.603 80.725C138.391 80.725 140.159 79.127 141.366 77.291L142.896 79.178C141.808 80.776 139.428 83.02 135.586 83.02C132.832 83.02 131.047 81.813 131.047 78.94C131.047 76.679 131.217 72.259 131.217 70.814C131.217 70.015 131.149 69.199 130.996 68.536ZM153.436 69.216C153.266 69.42 153.079 69.726 152.892 69.998C152.059 71.205 150.784 73.551 149.951 75.03C150.58 74.673 151.226 74.52 151.872 74.52C153.13 74.52 153.895 75.336 153.963 76.73C153.997 77.478 153.946 78.838 154.048 79.535C154.099 80.198 154.558 80.453 155.119 80.453C156.564 80.453 157.482 78.566 157.958 76.475L159.777 77.954C158.91 80.861 157.346 82.765 154.745 82.765C152.909 82.765 152.025 81.643 151.957 80.419C151.889 79.518 151.906 78.141 151.855 77.461C151.804 76.866 151.481 76.526 150.869 76.526C149.713 76.526 148.778 77.682 148.183 79.059C147.724 80.045 147.163 81.915 146.908 82.799L144.528 82C145.769 78.634 149.322 71.562 150.206 69.964C150.427 69.505 150.733 68.961 151.039 68.247L153.436 69.216ZM167.308 77.631L166.696 71.817L166.628 69.284H169.739L169.654 71.817L169.059 77.631H167.308ZM168.175 82.153C167.172 82.153 166.407 81.473 166.407 80.487C166.407 79.518 167.172 78.804 168.175 78.804C169.178 78.804 169.943 79.518 169.943 80.487C169.943 81.473 169.178 82.153 168.175 82.153Z" fill="#202124"/>
</svg>
