<svg width="186" height="126" viewBox="0 0 186 126" fill="none" xmlns="http://www.w3.org/2000/svg">
<path d="M1 61.1185C1 27.9161 42.1891 1 93 1C114.988 1 130.674 4.091 146.5 12.5L155.5 17.0021C173.643 27.9831 185 42 185 62.7976C185 96 143.811 121.237 93 121.237C77.5843 121.237 65.2632 119.88 52.5 115.5L48.5 118C36.2158 127.201 25 123.5 25 123.5C32.5 119.5 35 118.5 39 110C8.5 94.5 1 82 1 61.1185Z" fill="white"/>
<path d="M52.5 115.5C65.2632 119.88 77.5843 121.237 93 121.237C143.811 121.237 185 97.5 185 61.1185C185 42 173.643 27.9831 155.5 17.0021M146.5 12.5C130.674 4.091 114.988 1 93 1C42.1891 1 1 27.9161 1 61.1185C1 82 8.5 94.5 39 110C36.5 116 32.5 119.5 25 123.5C25 123.5 34.5 126.5 46 120" stroke="#202124" stroke-width="2" stroke-linecap="round" stroke-linejoin="round"/>
<path d="M43.0562 46.406H39.3162C38.9932 46.797 38.6362 47.188 38.2622 47.562H42.2062C42.4952 47.205 42.8012 46.797 43.0562 46.406ZM36.6642 49.177V48.973C36.3582 49.194 36.0522 49.415 35.7122 49.636C35.4062 49.16 34.7432 48.497 34.3012 48.174C36.5282 46.882 38.0412 45.114 38.8572 43.516L41.0162 43.924C40.8462 44.213 40.6592 44.519 40.4722 44.808H44.2122L44.5352 44.723L45.9122 45.59C45.5722 46.202 45.0962 46.916 44.5862 47.562H48.1392V53.988H42.6822C43.3112 54.345 43.9062 54.736 44.2802 55.093L42.9542 56.47C42.3422 55.841 41.0672 55.025 39.9792 54.515L40.5062 53.988H36.3582V52.373H46.1502V51.523H36.9532V50.01H46.1502V49.177H36.6642ZM35.9672 58.969L34.3012 57.796C35.4062 57.099 36.2052 55.96 36.5962 54.77L38.3982 55.416C37.9392 56.81 37.2252 58.136 35.9672 58.969ZM41.5942 57.558H43.6342C44.2122 57.558 44.3312 57.354 44.4162 55.96C44.7732 56.266 45.6062 56.538 46.1502 56.657C45.9292 58.765 45.3852 59.275 43.8212 59.275H41.3562C39.2822 59.275 38.8062 58.748 38.8062 57.082V55.059H40.7782V57.048C40.7782 57.507 40.8972 57.558 41.5942 57.558ZM45.5552 55.467L47.2382 54.549C48.3262 55.518 49.6352 56.929 50.1962 57.932L48.3772 58.986C47.9012 58.017 46.6432 56.538 45.5552 55.467ZM64.2552 49.228H62.3682V50.707H64.2552V49.228ZM58.6112 49.228V50.707H60.3962V49.228H58.6112ZM60.3962 47.681V46.763H56.2142V45.08H60.3962V43.618H62.3682V45.08H66.8052V46.763H62.3682V47.681H66.2272V52.237H63.0652C64.0852 53.291 65.6492 54.294 67.0432 54.855C66.6182 55.246 65.9892 55.943 65.6832 56.436C64.5612 55.841 63.3542 54.855 62.3682 53.767V56.759H60.3962V53.648C59.4612 54.821 58.2542 55.858 57.0302 56.487C56.7412 56.011 56.1802 55.314 55.7552 54.957C57.1492 54.379 58.5772 53.359 59.4952 52.237H56.7412V47.681H60.3962ZM55.8912 46.559L54.2932 47.902C53.7662 47.086 52.5592 45.964 51.5562 45.216L53.0522 43.992C54.0722 44.706 55.3132 45.76 55.8912 46.559ZM55.4662 50.197V55.535C56.1632 56.674 57.4382 57.133 59.2062 57.201C61.1952 57.286 65.0202 57.235 67.2812 57.065C67.0602 57.541 66.7542 58.527 66.6522 59.105C64.6122 59.207 61.1952 59.241 59.1722 59.156C57.0812 59.071 55.6872 58.595 54.5822 57.269C53.8342 57.932 53.0862 58.595 52.1682 59.309L51.1822 57.201C51.8962 56.776 52.7462 56.215 53.4942 55.637V52.05H51.5392V50.197H55.4662ZM79.2832 47.307H75.5432C75.1352 48.14 74.6762 48.99 74.2342 49.772C75.8152 49.721 77.4982 49.67 79.1642 49.619C78.6882 49.126 78.1952 48.65 77.7192 48.225L79.2832 47.307ZM69.4402 51.982L69.3722 49.891C70.1712 49.874 71.0722 49.857 72.0582 49.84C72.4492 49.041 72.8572 48.123 73.1462 47.307H68.8112V45.403H75.1692V43.601H77.2432V45.403H83.6692V47.307H79.4872C80.9492 48.565 82.7512 50.333 83.6182 51.608L81.7822 52.73C81.5442 52.356 81.2212 51.914 80.8472 51.455C76.7332 51.676 72.3812 51.863 69.4402 51.982ZM72.9252 52.288H75.0672C74.8122 55.824 74.0472 58.221 69.4402 59.513C69.2362 58.969 68.6922 58.153 68.2672 57.728C72.2962 56.776 72.7042 55.025 72.9252 52.288ZM80.0992 57.49H81.6462C82.1902 57.49 82.2922 57.133 82.3772 54.77C82.7852 55.127 83.7032 55.45 84.2132 55.569C84.0262 58.612 83.5162 59.394 81.8332 59.394H79.7932C77.8892 59.394 77.4132 58.782 77.4132 56.861V52.203L79.4532 52.22V56.844C79.4532 57.405 79.5382 57.49 80.0992 57.49ZM87.5792 47.681V49.789H85.7942V46.338H92.2032V45.692H86.9502V44.196H99.4792V45.692H94.1752V46.338H100.72V49.789H98.8502V47.681H94.1752V51.217H92.2032V47.681H87.5792ZM94.8212 51.047V49.942H98.5272V51.047H94.8212ZM94.8212 48.259H98.1362V49.347H94.8212V48.259ZM91.5912 48.259V49.347H88.2422V48.259H91.5912ZM87.9192 51.047V49.942H91.5912V51.047H87.9192ZM89.2792 55.739H92.1012V55.008H89.2792V55.739ZM92.1012 53.036H89.2792V53.784H92.1012V53.036ZM97.1162 53.784V53.036H94.0392V53.784H97.1162ZM94.0392 55.739H97.1162V55.008H94.0392V55.739ZM95.2632 57.881H98.4762C99.3262 57.881 99.4792 57.626 99.5982 56.181C100.006 56.47 100.771 56.725 101.281 56.827C101.043 58.867 100.499 59.428 98.6462 59.428H95.0762C92.7472 59.428 92.1012 58.935 92.1012 57.15V57.099H89.2792V57.847H87.3582V51.676H99.1222V57.099H94.0392V57.15C94.0392 57.779 94.2262 57.881 95.2632 57.881ZM114.32 49.16C114.728 49.772 115.357 50.792 115.68 51.472L114.388 52.05C113.963 51.115 113.606 50.452 113.062 49.687L114.32 49.16ZM116.224 48.378C116.649 48.973 117.295 49.976 117.652 50.639L116.377 51.251C115.918 50.333 115.527 49.704 114.983 48.956L116.224 48.378ZM102.981 46.372C103.661 46.355 104.307 46.321 104.63 46.287C106.041 46.168 108.829 45.913 111.906 45.641C113.64 45.505 115.476 45.403 116.666 45.352L116.683 47.528C115.782 47.528 114.337 47.545 113.436 47.749C111.396 48.293 109.883 50.469 109.883 52.458C109.883 55.229 112.467 56.232 115.323 56.368L114.541 58.697C111.005 58.476 107.673 56.572 107.673 52.917C107.673 50.486 109.016 48.582 110.155 47.732C108.693 47.885 105.157 48.259 103.202 48.684L102.981 46.372ZM121.987 53.223L124.078 53.41C123.857 53.92 123.67 54.634 123.67 55.042C123.67 56.096 124.418 56.81 126.611 56.81C128.209 56.81 129.875 56.674 131.065 56.436L130.997 58.595C130.062 58.748 128.345 58.918 126.662 58.918C123.517 58.918 121.579 57.847 121.579 55.518C121.579 54.753 121.8 53.852 121.987 53.223ZM133.105 48.344L133.513 50.248C132.816 50.503 131.898 50.724 130.912 50.928C131.337 51.829 131.813 52.815 132.306 53.733L131.303 55.008C130.368 54.838 128.753 54.583 127.631 54.447L127.818 52.832C128.481 52.917 129.144 52.968 129.603 53.019L128.838 51.268C126.73 51.506 123.993 51.557 121.443 51.37L121.358 49.432C123.874 49.67 126.169 49.67 128.073 49.466L127.784 48.803L127.376 47.851C125.727 47.987 123.619 47.987 121.579 47.783L121.477 45.862C123.398 46.066 125.081 46.134 126.577 46.049V46.032C126.271 45.42 126.05 45.046 125.761 44.587L128.158 44.128C128.277 44.638 128.464 45.216 128.685 45.811C129.824 45.624 130.912 45.369 131.915 45.029L132.272 46.916C131.405 47.171 130.487 47.409 129.382 47.596L129.705 48.327L130.096 49.177C131.388 48.922 132.357 48.633 133.105 48.344ZM143.755 56.98C144.112 56.98 144.435 56.963 144.741 56.929C144.639 55.841 144.01 55.127 143.092 55.127C142.463 55.127 142.055 55.501 142.055 55.926C142.055 56.555 142.769 56.98 143.755 56.98ZM147.461 44.842L148.549 46.338C148.141 46.593 147.75 46.848 147.376 47.103C146.475 47.732 144.707 49.228 143.653 50.078C144.214 49.925 144.69 49.891 145.234 49.891C148.09 49.891 150.266 51.676 150.266 54.124C150.266 56.776 148.243 58.884 144.18 58.884C141.834 58.884 140.066 57.813 140.066 56.13C140.066 54.77 141.307 53.512 143.092 53.512C145.166 53.512 146.424 54.787 146.679 56.385C147.597 55.892 148.056 55.11 148.056 54.09C148.056 52.577 146.526 51.557 144.571 51.557C141.987 51.557 140.304 52.934 138.502 54.974L136.972 53.393C138.162 52.424 140.185 50.707 141.188 49.891C142.123 49.109 143.874 47.698 144.707 46.967C143.84 46.984 141.528 47.086 140.644 47.154C140.185 47.171 139.658 47.222 139.267 47.29L139.199 45.097C139.675 45.148 140.253 45.182 140.729 45.182C141.613 45.182 145.217 45.097 146.169 45.012C146.866 44.961 147.257 44.893 147.461 44.842ZM23.753 77.376H19.809C20.183 78.039 20.625 78.617 21.152 79.144C22.053 78.617 23.022 77.954 23.753 77.376ZM24.348 77.376L25.657 78.294C24.688 78.991 23.549 79.671 22.529 80.215C23.617 80.895 24.926 81.388 26.49 81.677C26.065 82.119 25.487 82.952 25.215 83.496C21.373 82.612 19.112 80.589 17.701 77.376H15.746V80.98C16.936 80.81 18.194 80.623 19.418 80.436L19.503 82.221C16.902 82.646 14.097 83.071 12.04 83.377L11.581 81.524C12.193 81.456 12.89 81.354 13.655 81.269V77.376H10.85V75.591H13.672V68.179H24.399V69.828H15.746V70.729H23.923V72.293H15.746V73.143H23.923V74.707H15.746V75.591H26.167V77.376H24.348ZM31.539 70.44H29.975V73.432H31.539V70.44ZM29.975 78.396H31.539V75.2H29.975V78.396ZM33.426 68.638V80.198H29.975V81.694H28.105V68.638H33.426ZM34.429 78.77L36.044 77.835C36.826 78.668 37.744 79.79 38.101 80.623L36.367 81.626C36.061 80.844 35.194 79.637 34.429 78.77ZM43.422 74.418H41.671V75.88H43.303V77.631H41.671V81.337C41.671 82.306 41.484 82.816 40.821 83.122C40.158 83.411 39.24 83.462 37.982 83.462C37.914 82.901 37.608 82.102 37.336 81.558C38.152 81.592 39.104 81.592 39.359 81.592C39.631 81.592 39.716 81.524 39.716 81.286V77.631H33.749V75.88H39.716V74.418H33.715V72.65H37.557V71.154H34.293V69.386H37.557V67.601H39.546V69.386H42.946V71.154H39.546V72.65H43.422V74.418ZM50.001 69.709H47.383V70.61H50.001V69.709ZM47.383 72.939H50.001V71.97H47.383V72.939ZM51.888 74.384H47.383V83.479H45.377V68.247H51.888V74.384ZM54.982 72.973H57.685V71.97H54.982V72.973ZM57.685 69.709H54.982V70.61H57.685V69.709ZM51.055 80.419H53.86V79.365H51.055V80.419ZM53.86 76.9H51.055V77.92H53.86V76.9ZM59.725 68.247V81.082C59.725 82.17 59.504 82.765 58.824 83.088C58.161 83.428 57.175 83.479 55.713 83.479C55.662 83.054 55.475 82.425 55.271 81.898H51.055V82.765H49.219V75.404H55.764V81.439C56.427 81.456 57.056 81.456 57.277 81.439C57.583 81.439 57.685 81.337 57.685 81.065V74.418H53.061V68.247H59.725ZM62.513 82.527L61.442 82.017C61.969 81.099 62.19 79.586 62.275 78.192L63.397 78.43C63.278 79.926 63.108 81.541 62.513 82.527ZM63.533 78.532L64.4 78.447C64.553 79.433 64.638 80.725 64.587 81.558L63.652 81.677C63.703 80.827 63.652 79.535 63.533 78.532ZM64.706 78.413L65.556 78.26C65.845 79.127 66.066 80.249 66.134 80.997L65.233 81.167C65.199 80.436 64.961 79.297 64.706 78.413ZM65.114 69.845H64.026V70.831H65.114V69.845ZM65.114 73.364V72.361H64.026V73.364H65.114ZM65.114 75.948V74.877H64.026V75.948H65.114ZM66.746 75.948H69.092C69.092 75.948 69.092 76.407 69.075 76.628C68.888 80.725 68.684 82.323 68.276 82.833C67.987 83.241 67.681 83.377 67.256 83.445C66.899 83.496 66.355 83.513 65.726 83.479C65.692 83.003 65.539 82.34 65.301 81.898C65.777 81.966 66.168 81.966 66.372 81.966C66.576 81.966 66.712 81.915 66.831 81.745C66.967 81.575 67.086 81.133 67.171 80.198L66.644 80.402C66.542 79.79 66.202 78.889 65.862 78.192L66.678 77.92C66.882 78.345 67.103 78.838 67.256 79.297C67.29 78.787 67.324 78.209 67.358 77.512H63.244V77.461H62.326V68.213H68.82V69.845H66.746V70.831H68.548V72.361H66.746V73.364H68.548V74.877H66.746V75.948ZM71.353 73.126V78.889C72.186 78.005 72.866 76.849 73.41 75.54C72.747 74.707 72.05 73.874 71.353 73.126ZM71.353 79.382V80.827H77.439V82.663H71.353V83.513H69.466V68.23H77.218V70.066H71.353V72.599L72.424 71.749C72.985 72.31 73.546 72.922 74.107 73.551C74.396 72.582 74.617 71.562 74.804 70.508L76.674 70.814C76.385 72.378 75.994 73.874 75.501 75.234C76.317 76.288 77.031 77.308 77.49 78.158L75.994 79.433C75.671 78.804 75.212 78.039 74.668 77.257C74.073 78.498 73.359 79.603 72.543 80.487C72.305 80.215 71.778 79.705 71.353 79.382ZM83.848 79.96V80.827C84.817 80.759 85.82 80.674 86.806 80.589C88.132 78.753 88.54 76.322 88.659 73.279H87.112V71.953H83.848V72.616H86.857V77.869H83.848V78.532H86.925V79.96H83.848ZM80.686 76.611H82.012V75.846H80.686V76.611ZM85.174 75.846H83.848V76.611H85.174V75.846ZM83.848 74.639H85.174V73.891H83.848V74.639ZM80.686 73.891V74.639H82.012V73.891H80.686ZM90.631 71.426H94.082C94.082 71.426 94.065 72.089 94.065 72.327C93.912 79.28 93.776 81.745 93.232 82.527C92.841 83.088 92.45 83.258 91.889 83.377C91.379 83.479 90.597 83.462 89.781 83.445C89.747 82.884 89.526 82.068 89.186 81.507C89.934 81.575 90.58 81.592 90.903 81.592C91.158 81.592 91.328 81.524 91.481 81.303C91.838 80.844 92.008 78.77 92.11 73.279H90.58C90.359 77.835 89.577 81.337 86.721 83.598C86.466 83.19 85.973 82.629 85.531 82.255C83.083 82.51 80.635 82.765 78.799 82.918L78.561 81.218C79.513 81.15 80.703 81.065 82.012 80.98V79.96H79.02V78.532H82.012V77.869H79.088V72.616H82.012V71.953H78.663V70.491H82.012V69.811C81.026 69.879 80.057 69.93 79.139 69.947C79.071 69.539 78.884 68.91 78.697 68.519C81.213 68.383 84.154 68.094 86.024 67.686L86.908 69.199C86.007 69.386 84.953 69.539 83.848 69.658V70.491H87.112V71.426H88.71C88.727 70.304 88.727 69.131 88.727 67.873H90.665C90.665 69.114 90.665 70.304 90.631 71.426ZM108.26 68.434C108.685 69.063 109.28 70.134 109.603 70.763L108.243 71.358C107.886 70.661 107.376 69.641 106.917 68.995L108.26 68.434ZM110.266 67.669C110.708 68.315 111.337 69.386 111.643 69.981L110.283 70.576C109.943 69.862 109.382 68.876 108.923 68.23L110.266 67.669ZM98.264 76.713C99.029 74.809 99.675 72.412 99.879 70.253L102.361 70.763C102.208 71.256 102.021 72.089 101.953 72.463C101.715 73.653 101.086 75.999 100.508 77.58C99.896 79.229 98.893 81.167 97.992 82.442L95.612 81.439C96.683 80.045 97.686 78.209 98.264 76.713ZM106.662 76.356C106.016 74.571 104.911 72.055 104.197 70.763L106.458 70.032C107.155 71.341 108.328 73.959 108.957 75.608C109.569 77.138 110.47 79.858 110.946 81.541L108.43 82.357C107.954 80.334 107.342 78.192 106.662 76.356ZM120.585 71.885C120.908 72.616 121.741 74.826 121.979 75.608L119.939 76.322C119.735 75.489 118.987 73.432 118.562 72.548L120.585 71.885ZM124.461 72.361L126.858 73.126C126.654 73.67 126.552 74.027 126.45 74.367C126.008 76.084 125.294 77.852 124.138 79.348C122.557 81.388 120.432 82.816 118.443 83.564L116.658 81.745C118.528 81.252 120.891 79.96 122.302 78.192C123.458 76.747 124.274 74.486 124.461 72.361ZM116.641 72.786C117.066 73.653 117.882 75.71 118.222 76.662L116.148 77.444C115.859 76.526 115.009 74.265 114.601 73.517L116.641 72.786ZM141.07 71.086H134.253C133.658 71.086 132.944 71.12 132.434 71.154V68.961C132.978 69.046 133.675 69.08 134.236 69.08H141.07C141.648 69.08 142.328 69.046 142.906 68.961V71.154C142.311 71.12 141.665 71.086 141.07 71.086ZM132.077 73.415H143.212C143.569 73.415 144.3 73.381 144.759 73.313V75.523C144.334 75.489 143.688 75.472 143.212 75.472H139.115C139.013 77.223 138.639 78.651 138.027 79.841C137.432 81.014 136.123 82.34 134.61 83.105L132.621 81.66C133.828 81.201 135.018 80.215 135.698 79.229C136.395 78.175 136.684 76.9 136.752 75.472H132.077C131.584 75.472 130.921 75.506 130.445 75.54V73.313C130.955 73.364 131.55 73.415 132.077 73.415ZM149.315 68.961H151.814C151.78 69.335 151.763 69.709 151.763 70.253V75.999C151.763 76.424 151.78 77.087 151.814 77.478H149.298C149.315 77.155 149.383 76.492 149.383 75.982V70.253C149.383 69.93 149.366 69.335 149.315 68.961ZM157.135 68.808H159.651C159.617 69.284 159.583 69.828 159.583 70.508V73.874C159.583 77.529 158.869 79.093 157.611 80.487C156.489 81.728 154.721 82.561 153.48 82.952L151.695 81.082C153.395 80.691 154.823 80.045 155.86 78.94C157.016 77.665 157.237 76.39 157.237 73.738V70.508C157.237 69.828 157.203 69.284 157.135 68.808ZM164.564 76.798V74.129C165.176 74.18 166.417 74.231 167.301 74.231H176.43C177.212 74.231 177.977 74.163 178.419 74.129V76.798C178.011 76.781 177.144 76.713 176.43 76.713H167.301C166.332 76.713 165.193 76.747 164.564 76.798Z" fill="#202124"/>
</svg>
