<svg width="186" height="126" viewBox="0 0 186 126" fill="none" xmlns="http://www.w3.org/2000/svg">
<path d="M1 61.1185C1 27.9161 42.1891 1 93 1C114.988 1 130.674 4.091 146.5 12.5L155.5 17.0021C173.643 27.9831 185 42 185 62.7976C185 96 143.811 121.237 93 121.237C77.5843 121.237 65.2632 119.88 52.5 115.5L48.5 118C36.2158 127.201 25 123.5 25 123.5C32.5 119.5 35 118.5 39 110C8.5 94.5 1 82 1 61.1185Z" fill="white"/>
<path d="M52.5 115.5C65.2632 119.88 77.5843 121.237 93 121.237C143.811 121.237 185 97.5 185 61.1185C185 42 173.643 27.9831 155.5 17.0021M146.5 12.5C130.674 4.091 114.988 1 93 1C42.1891 1 1 27.9161 1 61.1185C1 82 8.5 94.5 39 110C36.5 116 32.5 119.5 25 123.5C25 123.5 34.5 126.5 46 120" stroke="#202124" stroke-width="2" stroke-linecap="round" stroke-linejoin="round"/>
<path d="M28.19 34.95L29.635 35.137C29.652 36.769 29.414 38.741 28.802 39.999L27.391 39.37C27.935 38.333 28.173 36.48 28.19 34.95ZM43.439 36.803H36.962V43.773C36.962 44.657 37.149 44.946 37.897 44.946H41.178C41.756 44.946 42.504 44.895 42.946 44.793C42.997 45.303 43.065 46.221 43.15 46.714C42.759 46.833 41.909 46.867 41.127 46.867H37.982C35.653 46.867 34.922 46.068 34.922 43.688V36.803H33.902C34.021 37.126 34.106 37.432 34.157 37.687L32.848 38.316C32.729 37.585 32.338 36.497 31.896 35.545V47.462H29.924V31.601H31.896V34.865L32.848 34.457C33.103 34.916 33.358 35.443 33.579 35.97V34.882H37.404V31.601H39.427V34.882H43.439V36.803ZM47.621 32.536L50.341 32.57C50.222 33.284 50.137 34.134 50.12 34.814C50.035 36.616 49.916 40.39 49.916 42.481C49.916 44.181 50.936 44.725 52.228 44.725C55.016 44.725 56.784 43.127 57.991 41.291L59.521 43.178C58.433 44.776 56.053 47.02 52.211 47.02C49.457 47.02 47.672 45.813 47.672 42.94C47.672 40.679 47.842 36.259 47.842 34.814C47.842 34.015 47.774 33.199 47.621 32.536ZM65.454 33.896C65.335 34.491 65.25 35.477 65.25 35.936C65.233 37.024 65.25 38.299 65.352 39.506C65.59 41.937 66.1 43.586 67.154 43.586C67.953 43.586 68.616 41.614 68.939 40.288L70.639 42.328C69.517 45.252 68.463 46.289 67.103 46.289C65.267 46.289 63.652 44.623 63.176 40.101C63.023 38.554 62.989 36.599 62.989 35.562C62.989 35.086 62.972 34.372 62.87 33.862L65.454 33.896ZM73.869 34.253C75.467 36.208 76.759 40.271 76.946 42.855L74.719 43.705C74.464 41.002 73.563 37.041 71.727 34.967L73.869 34.253ZM87.231 43.45H89.832C89.9 42.923 89.951 42.277 90.019 41.529H87.452C87.384 42.209 87.299 42.855 87.231 43.45ZM85.599 41.529H83.202C83.1 42.192 82.998 42.838 82.913 43.45H85.344C85.429 42.855 85.514 42.209 85.599 41.529ZM85.956 37.891H83.695C83.61 38.486 83.542 39.098 83.457 39.71H85.786C85.854 39.098 85.905 38.486 85.956 37.891ZM87.656 39.71H90.121C90.155 39.149 90.189 38.537 90.223 37.891H87.826C87.775 38.486 87.724 39.098 87.656 39.71ZM94.388 41.529H91.991C91.94 42.26 91.872 42.906 91.821 43.45H93.946V45.218H91.549C91.379 45.949 91.209 46.391 91.005 46.663C90.597 47.224 90.138 47.377 89.526 47.462C88.982 47.547 88.081 47.53 87.18 47.479C87.163 47.054 86.959 46.408 86.704 45.983C87.52 46.068 88.2 46.085 88.591 46.085C88.897 46.085 89.05 46.017 89.237 45.779C89.339 45.677 89.424 45.49 89.509 45.218H82.607C82.556 45.558 82.488 45.881 82.437 46.17L80.397 46.034C80.652 44.793 80.924 43.212 81.179 41.529H78.646V39.71H81.451C81.604 38.588 81.74 37.483 81.842 36.446C81.434 36.939 80.975 37.432 80.482 37.891C80.091 37.432 79.309 36.854 78.799 36.616C80.601 35.137 81.774 33.233 82.42 31.601L84.596 31.958C84.409 32.366 84.222 32.774 84.018 33.165H93.657V34.967H82.947C82.692 35.358 82.403 35.749 82.114 36.123H92.28C92.28 36.123 92.263 36.752 92.263 37.007C92.212 38.01 92.178 38.894 92.127 39.71H94.388V41.529ZM99.726 44.13H107.274V40.322H99.726V44.13ZM107.274 34.661H99.726V38.316H107.274V34.661ZM97.635 32.621H109.45V47.241H107.274V46.17H99.726V47.275H97.635V32.621ZM126.331 35.443L124.971 36.038C124.631 35.341 124.104 34.321 123.645 33.675L124.988 33.114C125.413 33.743 126.025 34.814 126.331 35.443ZM120.551 39.744V37.772C121.486 37.67 122.693 37.602 123.781 37.602C124.733 37.602 125.753 37.636 126.739 37.738L126.688 39.778C125.855 39.676 124.818 39.557 123.798 39.557C122.625 39.557 121.605 39.625 120.551 39.744ZM121.877 34.355V36.463C120.874 36.701 119.735 36.888 118.613 37.024C118.46 37.738 118.29 38.486 118.103 39.183C117.491 41.546 116.352 44.98 115.434 46.969L113.071 46.187C114.074 44.487 115.349 40.968 115.978 38.605C116.097 38.146 116.233 37.67 116.335 37.194C115.944 37.211 115.57 37.228 115.23 37.228C114.414 37.228 113.785 37.194 113.19 37.16L113.139 35.069C114.006 35.171 114.567 35.188 115.264 35.188C115.757 35.188 116.25 35.171 116.76 35.137C116.828 34.78 116.879 34.44 116.913 34.185C116.998 33.556 117.015 32.876 116.981 32.468L119.548 32.672C119.429 33.148 119.276 33.896 119.191 34.27L119.055 34.899C120.007 34.763 120.959 34.576 121.877 34.355ZM119.514 41.818L121.537 41.988C121.401 42.481 121.299 43.025 121.299 43.399C121.299 44.13 121.724 44.691 123.526 44.691C124.648 44.691 125.821 44.555 127.028 44.351L126.943 46.51C125.991 46.629 124.852 46.748 123.509 46.748C120.67 46.748 119.225 45.762 119.225 44.062C119.225 43.28 119.378 42.464 119.514 41.818ZM125.651 32.893L126.994 32.349C127.453 32.995 128.082 34.066 128.371 34.661L127.028 35.239C126.671 34.525 126.127 33.539 125.651 32.893ZM134.355 32.366L136.854 32.621C136.752 33.063 136.633 33.59 136.548 34.015C136.463 34.525 136.327 35.137 136.208 35.749C136.769 35.715 137.279 35.681 137.619 35.681C139.404 35.681 140.662 36.48 140.662 38.894C140.662 40.883 140.424 43.569 139.71 45.031C139.149 46.204 138.214 46.578 136.939 46.578C136.293 46.578 135.494 46.476 134.933 46.34L134.559 44.113C135.205 44.3 136.174 44.47 136.616 44.47C137.177 44.47 137.619 44.3 137.874 43.739C138.35 42.804 138.571 40.798 138.571 39.132C138.571 37.789 137.993 37.602 136.922 37.602C136.65 37.602 136.242 37.636 135.766 37.67C135.12 40.22 133.896 44.181 132.349 46.663L130.139 45.779C131.788 43.569 132.927 40.203 133.539 37.908C132.944 37.976 132.417 38.044 132.094 38.095C131.618 38.146 130.751 38.265 130.224 38.35L130.037 36.072C130.649 36.123 131.21 36.089 131.822 36.072C132.349 36.055 133.148 36.004 133.998 35.936C134.236 34.644 134.372 33.42 134.355 32.366ZM140.628 35.052L142.668 34.202C143.688 35.647 145.099 38.86 145.609 40.458L143.484 41.461C143.042 39.591 141.835 36.548 140.628 35.052ZM151.168 34.406L151.712 32.366C153.31 32.859 156.965 33.505 158.444 33.675L157.934 35.749C156.234 35.528 152.477 34.746 151.168 34.406ZM151.814 35.749C151.593 36.684 151.304 38.707 151.185 39.676C152.715 38.571 154.381 38.078 156.132 38.078C159.09 38.078 160.807 39.897 160.807 41.937C160.807 45.014 158.376 47.377 151.372 46.765L150.726 44.555C155.775 45.269 158.444 44.028 158.444 41.886C158.444 40.798 157.407 39.999 155.928 39.999C154.024 39.999 152.341 40.696 151.287 41.971C150.981 42.345 150.794 42.617 150.658 42.957L148.703 42.464C149.026 40.815 149.434 37.534 149.536 35.443L151.814 35.749ZM49.457 58.44H48.284V59.188H49.457V58.44ZM49.457 61.466V60.667H48.284V61.466H49.457ZM46.465 59.188V58.44H44.34V56.978H46.465V55.72H48.284V56.978H51.157V59.188H51.99V60.667H51.157V62.928H48.284V63.727H51.259V65.189H48.284V66.022H51.667V67.484H48.284V69.031H46.465V67.484H43.711V66.022H46.465V65.189H44.136V63.727H46.465V62.928H44.34V61.466H46.465V60.667H43.235V59.188H46.465ZM39.393 59.324V69.813C39.937 69.405 40.413 68.827 40.804 68.113C40.311 67.195 39.886 66.039 39.563 64.56L41.093 64.118C41.246 64.866 41.433 65.512 41.654 66.073C41.926 65.155 42.113 64.152 42.249 63.064H41.433L41.127 63.761L39.478 63.387C40.141 61.908 40.906 60.038 41.467 58.593H40.107V57.573C39.886 58.168 39.648 58.746 39.393 59.324ZM42.997 61.568L44.051 61.755C43.881 64.271 43.49 66.328 42.827 67.977C43.949 69.133 45.479 69.439 47.349 69.456C48.131 69.456 51.174 69.456 52.126 69.422C51.854 69.864 51.582 70.714 51.497 71.241H47.247C45.02 71.241 43.286 70.884 41.977 69.643C41.518 70.357 40.974 70.952 40.345 71.445C40.158 71.054 39.75 70.459 39.393 70.085V71.445H37.625V62.622C37.302 63.115 36.962 63.591 36.622 63.999C36.486 63.506 36.044 62.333 35.738 61.806C36.996 60.293 38.118 57.981 38.781 55.652L40.583 56.196C40.498 56.451 40.413 56.706 40.328 56.961H42.249L42.538 56.893L43.796 57.216C43.337 58.491 42.708 60.072 42.062 61.602H42.691L42.997 61.568ZM63.125 63.183V64.016H65.471V63.183H63.125ZM63.125 60.99V61.772H65.471V60.99H63.125ZM67.392 65.359H63.618C63.873 65.954 64.196 66.498 64.587 67.008C65.369 66.532 66.202 65.903 66.763 65.427L68.242 66.617C67.409 67.161 66.491 67.705 65.675 68.13C66.491 68.81 67.477 69.337 68.633 69.66C68.225 70.051 67.681 70.782 67.409 71.292C65.556 70.612 64.145 69.422 63.125 67.841V69.49C63.125 70.493 62.887 70.935 62.224 71.207C61.578 71.479 60.609 71.496 59.215 71.496C59.147 71.071 58.926 70.493 58.705 70.017C58.059 70.323 57.43 70.612 56.852 70.85L55.917 69.235C57.039 68.895 58.705 68.266 60.337 67.637L60.694 69.082C60.184 69.337 59.657 69.575 59.147 69.813C59.861 69.847 60.558 69.847 60.779 69.83C61.085 69.83 61.187 69.745 61.187 69.473V65.359H57.821C58.637 65.767 59.657 66.362 60.184 66.821L59.028 68.011C58.501 67.535 57.464 66.838 56.631 66.379L57.668 65.359H57.43V64.016H61.187V63.183H56.648V61.772H61.187V60.99H57.617V59.647H61.187V58.814H56.325V61.976C56.325 64.73 56.07 68.912 54.557 71.547C54.2 71.207 53.35 70.646 52.908 70.442C54.302 68.011 54.404 64.475 54.404 61.976V57.046H60.473V55.618H62.581V57.046H68.718V58.814H63.125V59.647H67.392V61.772H68.905V63.183H67.392V65.359ZM79.411 61.959H83.695C84.052 61.959 84.868 61.891 85.242 61.857V64.05C84.783 64.016 84.205 63.982 83.746 63.982H79.343C79.088 66.838 77.864 69.252 74.991 70.969L72.832 69.507C75.416 68.317 76.776 66.498 77.099 63.982H72.424C71.897 63.982 71.268 64.016 70.826 64.05V61.857C71.285 61.908 71.863 61.959 72.39 61.959H77.184V59.545C75.552 59.681 73.767 59.732 72.628 59.766L72.101 57.794C73.393 57.828 76.028 57.794 77.898 57.522C79.598 57.284 81.332 56.893 82.182 56.502L83.576 58.372C82.998 58.508 82.556 58.627 82.267 58.695C81.434 58.916 80.431 59.103 79.411 59.256V61.959ZM96.071 68.334H99.76C100.236 68.334 100.712 68.266 101.052 68.232V70.459C100.695 70.391 100.066 70.374 99.76 70.374H90.376C89.968 70.374 89.441 70.391 88.982 70.459V68.232C89.424 68.283 89.951 68.334 90.376 68.334H93.844V62.86H91.192C90.835 62.86 90.223 62.894 89.849 62.928V60.786C90.223 60.854 90.818 60.871 91.192 60.871H98.978C99.386 60.871 99.896 60.837 100.304 60.786V62.928C99.879 62.894 99.352 62.86 98.978 62.86H96.071V68.334ZM112.085 59.885C112.408 60.616 113.241 62.826 113.479 63.608L111.439 64.322C111.235 63.489 110.487 61.432 110.062 60.548L112.085 59.885ZM115.961 60.361L118.358 61.126C118.154 61.67 118.052 62.027 117.95 62.367C117.508 64.084 116.794 65.852 115.638 67.348C114.057 69.388 111.932 70.816 109.943 71.564L108.158 69.745C110.028 69.252 112.391 67.96 113.802 66.192C114.958 64.747 115.774 62.486 115.961 60.361ZM108.141 60.786C108.566 61.653 109.382 63.71 109.722 64.662L107.648 65.444C107.359 64.526 106.509 62.265 106.101 61.517L108.141 60.786ZM134.049 58.355L135.783 59.426C135.596 59.749 135.358 60.225 135.222 60.65C134.763 62.163 133.794 64.424 132.264 66.328C130.649 68.3 128.592 69.847 125.396 71.122L123.39 69.32C126.875 68.283 128.762 66.804 130.241 65.121C131.397 63.795 132.383 61.755 132.655 60.48H127.878C126.739 61.959 125.26 63.455 123.594 64.594L121.69 63.183C124.665 61.364 126.144 59.171 126.994 57.709C127.249 57.284 127.606 56.502 127.759 55.924L130.241 56.74C129.833 57.335 129.408 58.1 129.204 58.474L129.153 58.559H132.57C133.097 58.559 133.658 58.474 134.049 58.355ZM140.016 56.723L142.362 56.927C142.226 57.267 142.022 58.117 141.954 58.423C141.699 59.545 141.155 63.251 141.155 64.934C141.155 65.274 141.172 65.682 141.223 66.022C141.444 65.427 141.716 64.866 141.971 64.305L143.008 65.138C142.532 66.515 141.988 68.232 141.801 69.15C141.75 69.388 141.699 69.745 141.716 69.932C141.716 70.102 141.716 70.391 141.733 70.629L139.829 70.765C139.489 69.592 139.166 67.671 139.166 65.393C139.166 62.843 139.659 59.664 139.863 58.372C139.931 57.896 140.016 57.25 140.016 56.723ZM148.516 67.178V66.889C148.074 66.77 147.615 66.702 147.156 66.702C146.204 66.702 145.558 67.093 145.558 67.722C145.558 68.402 146.238 68.708 147.122 68.708C148.159 68.708 148.516 68.164 148.516 67.178ZM153.837 67.858L152.698 69.626C152.001 68.963 151.321 68.402 150.658 67.943C150.556 69.541 149.638 70.697 147.36 70.697C145.048 70.697 143.586 69.711 143.586 67.943C143.586 66.226 145.031 65.053 147.326 65.053C147.717 65.053 148.091 65.07 148.431 65.121C148.38 64.084 148.329 62.86 148.312 61.67C147.904 61.687 147.496 61.687 147.105 61.687C146.119 61.687 145.167 61.653 144.164 61.585V59.579C145.133 59.681 146.102 59.732 147.105 59.732C147.496 59.732 147.904 59.732 148.295 59.715C148.278 58.882 148.278 58.202 148.261 57.845C148.261 57.59 148.21 57.08 148.159 56.74H150.573C150.522 57.063 150.488 57.471 150.471 57.828C150.454 58.202 150.42 58.831 150.42 59.579C151.338 59.477 152.222 59.358 153.021 59.188V61.279C152.205 61.398 151.321 61.5 150.403 61.568C150.437 63.2 150.522 64.543 150.59 65.682C152.001 66.26 153.055 67.127 153.837 67.858ZM45.122 84.344V86.282C45.122 88.424 46.55 91.909 51.82 93.507C51.395 93.983 50.732 94.918 50.409 95.462C46.482 94.068 44.425 91.076 43.966 89.512C43.473 91.059 41.433 94 37.523 95.462C37.268 95.003 36.554 94.068 36.129 93.677C41.229 92.079 42.793 88.475 42.793 86.316V84.344H40.43C39.716 85.891 38.9 87.268 38.016 88.305C37.591 87.931 36.588 87.234 36.027 86.945C37.727 85.245 39.019 82.372 39.716 79.414L41.977 79.873C41.773 80.706 41.518 81.539 41.229 82.338H49.627L49.984 82.236L51.633 82.78C51.038 84.854 50.171 87.047 49.287 88.543L47.434 87.778C47.927 86.877 48.42 85.602 48.811 84.344H45.122ZM57.855 80.366L60.354 80.621C60.252 81.063 60.133 81.59 60.048 82.015C59.963 82.525 59.827 83.137 59.708 83.749C60.269 83.715 60.779 83.681 61.119 83.681C62.904 83.681 64.162 84.48 64.162 86.894C64.162 88.883 63.924 91.569 63.21 93.031C62.649 94.204 61.714 94.578 60.439 94.578C59.793 94.578 58.994 94.476 58.433 94.34L58.059 92.113C58.705 92.3 59.674 92.47 60.116 92.47C60.677 92.47 61.119 92.3 61.374 91.739C61.85 90.804 62.071 88.798 62.071 87.132C62.071 85.789 61.493 85.602 60.422 85.602C60.15 85.602 59.742 85.636 59.266 85.67C58.62 88.22 57.396 92.181 55.849 94.663L53.639 93.779C55.288 91.569 56.427 88.203 57.039 85.908C56.444 85.976 55.917 86.044 55.594 86.095C55.118 86.146 54.251 86.265 53.724 86.35L53.537 84.072C54.149 84.123 54.71 84.089 55.322 84.072C55.849 84.055 56.648 84.004 57.498 83.936C57.736 82.644 57.872 81.42 57.855 80.366ZM64.128 83.052L66.168 82.202C67.188 83.647 68.599 86.86 69.109 88.458L66.984 89.461C66.542 87.591 65.335 84.548 64.128 83.052ZM80.193 80.723H82.471C82.42 80.978 82.386 81.709 82.369 82.168C82.352 82.831 82.335 83.426 82.318 83.987C82.777 83.953 83.202 83.919 83.593 83.902C84.052 83.868 84.715 83.817 85.208 83.783V85.857C84.919 85.84 84.035 85.857 83.576 85.874C83.219 85.891 82.777 85.908 82.284 85.942C82.233 87.217 82.165 88.594 82.029 89.308C81.859 90.192 81.434 90.413 80.567 90.413C79.972 90.413 78.629 90.26 78.034 90.158L78.085 88.305C78.612 88.407 79.292 88.509 79.632 88.509C79.972 88.509 80.108 88.441 80.159 88.118C80.227 87.659 80.261 86.894 80.278 86.095C78.799 86.214 77.15 86.367 75.705 86.52C75.688 88.067 75.671 89.614 75.705 90.328C75.756 91.977 75.892 92.351 78.425 92.351C80.074 92.351 82.199 92.147 83.457 91.909L83.372 94.221C82.233 94.357 80.176 94.493 78.578 94.493C74.209 94.493 73.682 93.575 73.614 90.668C73.597 89.954 73.597 88.322 73.597 86.741L72.458 86.86C71.931 86.928 70.877 87.098 70.435 87.166L70.214 85.007C70.69 85.007 71.472 84.973 72.322 84.905L73.597 84.786V83.086C73.597 82.389 73.546 81.811 73.461 81.216H75.841C75.773 81.777 75.739 82.253 75.739 82.967C75.739 83.358 75.739 83.919 75.722 84.582C77.15 84.446 78.782 84.293 80.312 84.157V82.253C80.312 81.828 80.244 81.029 80.193 80.723ZM102.548 84.718L101.358 86.503C100.389 85.721 98.468 84.616 97.312 84.106L98.4 82.44C99.607 82.967 101.698 84.106 102.548 84.718ZM96.207 82.134L96.258 84.089C95.493 84.293 94.456 84.514 93.334 84.667C92.535 87.03 91.09 89.954 89.73 91.875L87.673 90.838C89.033 89.189 90.359 86.707 91.107 84.888C90.818 84.905 90.529 84.905 90.24 84.905C89.543 84.905 88.863 84.888 88.132 84.854L87.979 82.882C88.71 82.967 89.611 83.001 90.223 83.001C90.716 83.001 91.226 82.984 91.736 82.95C91.974 82.015 92.161 80.995 92.195 80.128L94.524 80.366C94.388 80.91 94.184 81.76 93.946 82.661C94.762 82.525 95.544 82.338 96.207 82.134ZM96.615 91.501V91.178C96.173 91.076 95.731 91.008 95.255 91.008C94.286 91.008 93.657 91.416 93.657 92.011C93.657 92.64 94.184 93.065 95.102 93.065C96.241 93.065 96.615 92.402 96.615 91.501ZM96.343 85.602H98.468C98.417 86.316 98.451 87.013 98.468 87.761C98.485 88.237 98.519 89.053 98.57 89.886C100.015 90.43 101.205 91.28 102.055 92.045L100.933 93.847C100.338 93.303 99.573 92.623 98.655 92.062V92.215C98.655 93.779 97.805 95.003 95.408 95.003C93.317 95.003 91.668 94.068 91.668 92.215C91.668 90.566 93.045 89.291 95.391 89.291C95.782 89.291 96.173 89.325 96.53 89.359C96.479 88.101 96.394 86.622 96.343 85.602ZM107.954 81.896C107.835 82.491 107.75 83.477 107.75 83.936C107.733 85.024 107.75 86.299 107.852 87.506C108.09 89.937 108.6 91.586 109.654 91.586C110.453 91.586 111.116 89.614 111.439 88.288L113.139 90.328C112.017 93.252 110.963 94.289 109.603 94.289C107.767 94.289 106.152 92.623 105.676 88.101C105.523 86.554 105.489 84.599 105.489 83.562C105.489 83.086 105.472 82.372 105.37 81.862L107.954 81.896ZM116.369 82.253C117.967 84.208 119.259 88.271 119.446 90.855L117.219 91.705C116.964 89.002 116.063 85.041 114.227 82.967L116.369 82.253ZM131.414 92.47C132.213 92.47 132.74 91.96 133.08 91.11C132.519 90.855 131.941 90.702 131.38 90.702C130.666 90.702 130.054 91.008 130.054 91.552C130.054 92.232 130.666 92.47 131.414 92.47ZM126.943 84.82L126.926 84.99C128.286 83.8 130.122 82.559 131.822 82.559C134.236 82.559 135.647 84.565 135.647 87.625C135.647 88.594 135.596 89.512 135.46 90.311C136.123 90.787 136.684 91.331 137.194 91.875L136.106 93.626C135.715 93.15 135.307 92.725 134.865 92.334C134.253 93.626 133.216 94.374 131.533 94.374C129.663 94.374 128.218 93.541 128.218 91.637C128.218 90.124 129.51 89.002 131.55 89.002C132.247 89.002 132.893 89.104 133.488 89.308C133.539 88.747 133.573 88.118 133.573 87.472C133.573 85.67 132.74 84.48 131.448 84.48C129.935 84.48 128.116 85.993 126.756 87.506C126.722 88.067 126.705 88.611 126.705 89.104C126.705 90.481 126.705 91.892 126.807 93.473C126.824 93.779 126.892 94.391 126.926 94.765H124.614C124.648 94.408 124.665 93.796 124.665 93.524C124.699 92.215 124.699 91.246 124.733 89.818C124.019 90.889 123.186 92.113 122.608 92.929L121.282 91.059C122.234 89.903 123.934 87.659 124.886 86.248L124.954 85.075C124.138 85.177 122.846 85.347 121.894 85.466L121.69 83.307C122.166 83.324 122.557 83.324 123.152 83.29C123.645 83.256 124.376 83.171 125.09 83.069C125.124 82.44 125.158 81.964 125.158 81.777C125.158 81.301 125.175 80.791 125.09 80.281L127.555 80.349C127.453 80.825 127.317 81.692 127.181 82.746L127.81 83.545C127.589 83.834 127.232 84.378 126.943 84.82ZM145.133 89.631L144.521 83.817L144.453 81.284H147.564L147.479 83.817L146.884 89.631H145.133ZM146 94.153C144.997 94.153 144.232 93.473 144.232 92.487C144.232 91.518 144.997 90.804 146 90.804C147.003 90.804 147.768 91.518 147.768 92.487C147.768 93.473 147.003 94.153 146 94.153Z" fill="#202124"/>
</svg>
