<svg width="186" height="126" viewBox="0 0 186 126" fill="none" xmlns="http://www.w3.org/2000/svg">
<path d="M1 61.1185C1 27.9161 42.1891 1 93 1C114.988 1 130.674 4.091 146.5 12.5L155.5 17.0021C173.643 27.9831 185 42 185 62.7976C185 96 143.811 121.237 93 121.237C77.5843 121.237 65.2632 119.88 52.5 115.5L48.5 118C36.2158 127.201 25 123.5 25 123.5C32.5 119.5 35 118.5 39 110C8.5 94.5 1 82 1 61.1185Z" fill="white"/>
<path d="M52.5 115.5C65.2632 119.88 77.5843 121.237 93 121.237C143.811 121.237 185 97.5 185 61.1185C185 42 173.643 27.9831 155.5 17.0021M146.5 12.5C130.674 4.091 114.988 1 93 1C42.1891 1 1 27.9161 1 61.1185C1 82 8.5 94.5 39 110C36.5 116 32.5 119.5 25 123.5C25 123.5 34.5 126.5 46 120" stroke="#202124" stroke-width="2" stroke-linecap="round" stroke-linejoin="round"/>
<path d="M16.851 52.407C16.851 53.189 17.48 53.665 18.143 53.665C18.84 53.665 19.469 53.138 19.248 51.676C19.01 51.268 18.619 51.081 18.143 51.081C17.497 51.081 16.851 51.523 16.851 52.407ZM25.827 46.304L25.81 48.293C24.79 48.242 23.209 48.208 20.931 48.208C20.948 49.058 20.948 49.976 20.948 50.707C21.373 51.336 21.577 52.152 21.577 53.036C21.577 55.229 20.285 58.017 16.171 59.173L14.386 57.371C16.086 57.014 17.565 56.453 18.5 55.45C18.262 55.501 18.007 55.535 17.735 55.535C16.426 55.535 14.828 54.498 14.828 52.441C14.828 50.537 16.358 49.296 18.194 49.296C18.432 49.296 18.653 49.313 18.857 49.347L18.84 48.225C16.29 48.259 13.689 48.361 11.615 48.48L11.564 46.44C13.485 46.44 16.545 46.355 18.806 46.321C18.806 46.117 18.806 45.93 18.789 45.811C18.755 45.267 18.704 44.621 18.636 44.349H21.084C21.033 44.621 20.982 45.522 20.965 45.794C20.965 45.93 20.948 46.1 20.948 46.304C22.648 46.304 24.943 46.287 25.827 46.304ZM38.135 48.174C38.577 48.803 39.24 50.078 39.563 50.69L38.169 51.285C37.812 50.588 37.234 49.398 36.775 48.718L38.135 48.174ZM40.192 47.358C40.634 47.987 41.297 49.245 41.637 49.874L40.26 50.452C39.869 49.738 39.274 48.599 38.798 47.936L40.192 47.358ZM37.2 44.043L39.189 45.794C38.645 46.185 38.101 46.627 37.693 46.933C36.605 47.817 34.395 49.534 33.273 50.503C32.372 51.268 32.389 51.455 33.29 52.237C34.565 53.308 37.795 55.875 39.461 57.49L37.506 59.292C37.047 58.765 36.52 58.238 36.044 57.728C35.109 56.759 32.542 54.566 31.012 53.257C29.329 51.846 29.465 50.911 31.148 49.517C32.474 48.446 34.769 46.576 35.908 45.454C36.384 44.995 36.945 44.434 37.2 44.043ZM51.616 46.134C53.69 46.423 57.039 46.355 58.858 46.134V48.31C56.784 48.497 53.741 48.497 51.633 48.31L51.616 46.134ZM51.038 53.155L52.976 53.342C52.84 53.886 52.772 54.294 52.772 54.753C52.772 55.501 53.418 55.943 55.118 55.943C56.631 55.943 57.872 55.807 59.334 55.501L59.385 57.779C58.297 57.983 56.937 58.119 55.033 58.119C52.126 58.119 50.749 57.065 50.749 55.348C50.749 54.651 50.868 53.937 51.038 53.155ZM46.669 44.825L49.032 45.029C48.896 45.369 48.692 46.219 48.624 46.525C48.386 47.647 47.808 51.013 47.808 52.696C47.808 53.019 47.825 53.427 47.876 53.784C48.114 53.189 48.386 52.628 48.624 52.084L49.678 52.9C49.202 54.311 48.641 56.13 48.471 57.031C48.42 57.269 48.369 57.643 48.369 57.813C48.386 58 48.386 58.272 48.403 58.51L46.465 58.646C46.125 57.473 45.802 55.416 45.802 53.138C45.802 50.605 46.312 47.766 46.499 46.474C46.567 45.998 46.669 45.352 46.669 44.825ZM72.764 44.604L75.365 45.522C75.144 45.896 74.821 46.644 74.668 47.035C74.158 48.395 73.393 50.095 72.373 51.659C73.869 52.883 75.28 54.192 76.419 55.399L74.668 57.354C73.478 55.96 72.271 54.787 70.911 53.614C69.415 55.416 67.46 57.303 64.587 58.867L62.632 57.116C65.403 55.773 67.426 54.124 69.092 52.101C67.885 51.149 66.27 49.925 64.536 48.888L65.998 47.137C67.358 47.987 69.109 49.177 70.486 50.197C71.353 48.837 71.897 47.494 72.356 46.168C72.509 45.743 72.679 45.046 72.764 44.604ZM79.564 52.798V50.129C80.176 50.18 81.417 50.231 82.301 50.231H91.43C92.212 50.231 92.977 50.163 93.419 50.129V52.798C93.011 52.781 92.144 52.713 91.43 52.713H82.301C81.332 52.713 80.193 52.747 79.564 52.798ZM97.754 58.748L95.68 57.371C97.176 56.317 98.094 54.753 98.57 53.308C99.046 51.846 99.063 48.633 99.063 46.576C99.063 45.896 99.012 45.437 98.91 45.029H101.409C101.392 45.097 101.29 45.862 101.29 46.559C101.29 48.565 101.239 52.152 100.78 53.869C100.27 55.79 99.216 57.456 97.754 58.748ZM104.962 58.799L103.551 57.626C103.619 57.303 103.687 56.827 103.687 56.368V46.457C103.687 45.692 103.568 45.046 103.551 44.995H106.084C106.067 45.046 105.965 45.709 105.965 46.474V55.365C107.342 54.77 109.025 53.427 110.164 51.778L111.473 53.648C110.062 55.484 107.614 57.32 105.71 58.289C105.353 58.476 105.183 58.629 104.962 58.799ZM121.911 49.959H126.195C126.552 49.959 127.368 49.891 127.742 49.857V52.05C127.283 52.016 126.705 51.982 126.246 51.982H121.843C121.588 54.838 120.364 57.252 117.491 58.969L115.332 57.507C117.916 56.317 119.276 54.498 119.599 51.982H114.924C114.397 51.982 113.768 52.016 113.326 52.05V49.857C113.785 49.908 114.363 49.959 114.89 49.959H119.684V47.545C118.052 47.681 116.267 47.732 115.128 47.766L114.601 45.794C115.893 45.828 118.528 45.794 120.398 45.522C122.098 45.284 123.832 44.893 124.682 44.502L126.076 46.372C125.498 46.508 125.056 46.627 124.767 46.695C123.934 46.916 122.931 47.103 121.911 47.256V49.959ZM138.571 56.334H142.26C142.736 56.334 143.212 56.266 143.552 56.232V58.459C143.195 58.391 142.566 58.374 142.26 58.374H132.876C132.468 58.374 131.941 58.391 131.482 58.459V56.232C131.924 56.283 132.451 56.334 132.876 56.334H136.344V50.86H133.692C133.335 50.86 132.723 50.894 132.349 50.928V48.786C132.723 48.854 133.318 48.871 133.692 48.871H141.478C141.886 48.871 142.396 48.837 142.804 48.786V50.928C142.379 50.894 141.852 50.86 141.478 50.86H138.571V56.334ZM154.585 47.885C154.908 48.616 155.741 50.826 155.979 51.608L153.939 52.322C153.735 51.489 152.987 49.432 152.562 48.548L154.585 47.885ZM158.461 48.361L160.858 49.126C160.654 49.67 160.552 50.027 160.45 50.367C160.008 52.084 159.294 53.852 158.138 55.348C156.557 57.388 154.432 58.816 152.443 59.564L150.658 57.745C152.528 57.252 154.891 55.96 156.302 54.192C157.458 52.747 158.274 50.486 158.461 48.361ZM150.641 48.786C151.066 49.653 151.882 51.71 152.222 52.662L150.148 53.444C149.859 52.526 149.009 50.265 148.601 49.517L150.641 48.786ZM176.549 46.355L178.283 47.426C178.096 47.749 177.858 48.225 177.722 48.65C177.263 50.163 176.294 52.424 174.764 54.328C173.149 56.3 171.092 57.847 167.896 59.122L165.89 57.32C169.375 56.283 171.262 54.804 172.741 53.121C173.897 51.795 174.883 49.755 175.155 48.48H170.378C169.239 49.959 167.76 51.455 166.094 52.594L164.19 51.183C167.165 49.364 168.644 47.171 169.494 45.709C169.749 45.284 170.106 44.502 170.259 43.924L172.741 44.74C172.333 45.335 171.908 46.1 171.704 46.474L171.653 46.559H175.07C175.597 46.559 176.158 46.474 176.549 46.355ZM22.746 73.16C23.154 73.772 23.783 74.792 24.106 75.472L22.814 76.05C22.389 75.115 22.032 74.452 21.488 73.687L22.746 73.16ZM24.65 72.378C25.075 72.973 25.721 73.976 26.078 74.639L24.803 75.251C24.344 74.333 23.953 73.704 23.409 72.956L24.65 72.378ZM11.407 70.372C12.087 70.355 12.733 70.321 13.056 70.287C14.467 70.168 17.255 69.913 20.332 69.641C22.066 69.505 23.902 69.403 25.092 69.352L25.109 71.528C24.208 71.528 22.763 71.545 21.862 71.749C19.822 72.293 18.309 74.469 18.309 76.458C18.309 79.229 20.893 80.232 23.749 80.368L22.967 82.697C19.431 82.476 16.099 80.572 16.099 76.917C16.099 74.486 17.442 72.582 18.581 71.732C17.119 71.885 13.583 72.259 11.628 72.684L11.407 70.372ZM30.413 77.223L32.504 77.41C32.283 77.92 32.096 78.634 32.096 79.042C32.096 80.096 32.844 80.81 35.037 80.81C36.635 80.81 38.301 80.674 39.491 80.436L39.423 82.595C38.488 82.748 36.771 82.918 35.088 82.918C31.943 82.918 30.005 81.847 30.005 79.518C30.005 78.753 30.226 77.852 30.413 77.223ZM41.531 72.344L41.939 74.248C41.242 74.503 40.324 74.724 39.338 74.928C39.763 75.829 40.239 76.815 40.732 77.733L39.729 79.008C38.794 78.838 37.179 78.583 36.057 78.447L36.244 76.832C36.907 76.917 37.57 76.968 38.029 77.019L37.264 75.268C35.156 75.506 32.419 75.557 29.869 75.37L29.784 73.432C32.3 73.67 34.595 73.67 36.499 73.466L36.21 72.803L35.802 71.851C34.153 71.987 32.045 71.987 30.005 71.783L29.903 69.862C31.824 70.066 33.507 70.134 35.003 70.049V70.032C34.697 69.42 34.476 69.046 34.187 68.587L36.584 68.128C36.703 68.638 36.89 69.216 37.111 69.811C38.25 69.624 39.338 69.369 40.341 69.029L40.698 70.916C39.831 71.171 38.913 71.409 37.808 71.596L38.131 72.327L38.522 73.177C39.814 72.922 40.783 72.633 41.531 72.344ZM52.181 80.98C52.538 80.98 52.861 80.963 53.167 80.929C53.065 79.841 52.436 79.127 51.518 79.127C50.889 79.127 50.481 79.501 50.481 79.926C50.481 80.555 51.195 80.98 52.181 80.98ZM55.887 68.842L56.975 70.338C56.567 70.593 56.176 70.848 55.802 71.103C54.901 71.732 53.133 73.228 52.079 74.078C52.64 73.925 53.116 73.891 53.66 73.891C56.516 73.891 58.692 75.676 58.692 78.124C58.692 80.776 56.669 82.884 52.606 82.884C50.26 82.884 48.492 81.813 48.492 80.13C48.492 78.77 49.733 77.512 51.518 77.512C53.592 77.512 54.85 78.787 55.105 80.385C56.023 79.892 56.482 79.11 56.482 78.09C56.482 76.577 54.952 75.557 52.997 75.557C50.413 75.557 48.73 76.934 46.928 78.974L45.398 77.393C46.588 76.424 48.611 74.707 49.614 73.891C50.549 73.109 52.3 71.698 53.133 70.967C52.266 70.984 49.954 71.086 49.07 71.154C48.611 71.171 48.084 71.222 47.693 71.29L47.625 69.097C48.101 69.148 48.679 69.182 49.155 69.182C50.039 69.182 53.643 69.097 54.595 69.012C55.292 68.961 55.683 68.893 55.887 68.842ZM66.189 68.366L68.688 68.621C68.586 69.063 68.467 69.59 68.382 70.015C68.297 70.525 68.161 71.137 68.042 71.749C68.603 71.715 69.113 71.681 69.453 71.681C71.238 71.681 72.496 72.48 72.496 74.894C72.496 76.883 72.258 79.569 71.544 81.031C70.983 82.204 70.048 82.578 68.773 82.578C68.127 82.578 67.328 82.476 66.767 82.34L66.393 80.113C67.039 80.3 68.008 80.47 68.45 80.47C69.011 80.47 69.453 80.3 69.708 79.739C70.184 78.804 70.405 76.798 70.405 75.132C70.405 73.789 69.827 73.602 68.756 73.602C68.484 73.602 68.076 73.636 67.6 73.67C66.954 76.22 65.73 80.181 64.183 82.663L61.973 81.779C63.622 79.569 64.761 76.203 65.373 73.908C64.778 73.976 64.251 74.044 63.928 74.095C63.452 74.146 62.585 74.265 62.058 74.35L61.871 72.072C62.483 72.123 63.044 72.089 63.656 72.072C64.183 72.055 64.982 72.004 65.832 71.936C66.07 70.644 66.206 69.42 66.189 68.366ZM72.462 71.052L74.502 70.202C75.522 71.647 76.933 74.86 77.443 76.458L75.318 77.461C74.876 75.591 73.669 72.548 72.462 71.052ZM83.002 70.406L83.546 68.366C85.144 68.859 88.799 69.505 90.278 69.675L89.768 71.749C88.068 71.528 84.311 70.746 83.002 70.406ZM83.648 71.749C83.427 72.684 83.138 74.707 83.019 75.676C84.549 74.571 86.215 74.078 87.966 74.078C90.924 74.078 92.641 75.897 92.641 77.937C92.641 81.014 90.21 83.377 83.206 82.765L82.56 80.555C87.609 81.269 90.278 80.028 90.278 77.886C90.278 76.798 89.241 75.999 87.762 75.999C85.858 75.999 84.175 76.696 83.121 77.971C82.815 78.345 82.628 78.617 82.492 78.957L80.537 78.464C80.86 76.815 81.268 73.534 81.37 71.443L83.648 71.749ZM102.688 76.611H104.711C104.728 76.39 104.728 76.152 104.728 75.948V75.353H102.688V76.611ZM102.688 72.735V73.976H104.728V72.735H102.688ZM108.621 72.735H106.734V73.976H108.621V72.735ZM108.621 76.611V75.353H106.734V75.965C106.734 76.169 106.734 76.39 106.717 76.611H108.621ZM110.576 78.09H106.53C106.343 78.94 106.003 79.756 105.493 80.504C107.159 81.048 109.216 81.354 111.545 81.473C111.103 81.932 110.576 82.799 110.321 83.36C107.856 83.156 105.782 82.697 104.048 81.932C103.215 82.544 102.11 83.071 100.716 83.496C100.478 83.037 99.883 82.238 99.492 81.83C100.631 81.592 101.549 81.286 102.246 80.895C101.481 80.351 100.784 79.688 100.223 78.923L101.974 78.311C102.433 78.872 103.011 79.331 103.708 79.739C104.133 79.229 104.371 78.685 104.524 78.09H100.818V71.256H104.728V70.236H100.597V68.723C100.206 69.76 99.73 70.848 99.203 71.885V83.445H97.265V75.03C96.976 75.438 96.687 75.795 96.398 76.118C96.211 75.625 95.633 74.537 95.293 74.027C96.721 72.48 98.081 70.066 98.863 67.652L100.767 68.247L100.682 68.468H111.001V70.236H106.734V71.256H110.576V78.09ZM117.818 74.486V75.404C118.651 76.033 120.334 77.478 120.793 77.835L119.62 79.569C119.212 79.042 118.498 78.277 117.818 77.58V83.445H115.863V77.359C115.098 78.906 114.197 80.368 113.262 81.354C113.058 80.759 112.565 79.892 112.242 79.382C113.466 78.192 114.707 76.254 115.472 74.486H112.633V72.633H115.863V70.525C114.894 70.712 113.925 70.865 113.007 70.984C112.922 70.542 112.667 69.828 112.429 69.403C114.877 69.046 117.614 68.4 119.263 67.652L120.691 69.216C119.841 69.556 118.855 69.845 117.818 70.1V72.633H120.742V74.486H117.818ZM123.513 69.658V79.161H121.541V69.658H123.513ZM125.553 67.924H127.559V81.014C127.559 82.187 127.321 82.748 126.624 83.071C125.927 83.411 124.788 83.479 123.241 83.462C123.156 82.884 122.85 81.949 122.544 81.371C123.649 81.422 124.737 81.422 125.094 81.422C125.417 81.405 125.553 81.303 125.553 80.997V67.924ZM143.165 71.443L141.805 72.038C141.465 71.341 140.938 70.321 140.479 69.675L141.822 69.114C142.247 69.743 142.859 70.814 143.165 71.443ZM137.385 75.744V73.772C138.32 73.67 139.527 73.602 140.615 73.602C141.567 73.602 142.587 73.636 143.573 73.738L143.522 75.778C142.689 75.676 141.652 75.557 140.632 75.557C139.459 75.557 138.439 75.625 137.385 75.744ZM138.711 70.355V72.463C137.708 72.701 136.569 72.888 135.447 73.024C135.294 73.738 135.124 74.486 134.937 75.183C134.325 77.546 133.186 80.98 132.268 82.969L129.905 82.187C130.908 80.487 132.183 76.968 132.812 74.605C132.931 74.146 133.067 73.67 133.169 73.194C132.778 73.211 132.404 73.228 132.064 73.228C131.248 73.228 130.619 73.194 130.024 73.16L129.973 71.069C130.84 71.171 131.401 71.188 132.098 71.188C132.591 71.188 133.084 71.171 133.594 71.137C133.662 70.78 133.713 70.44 133.747 70.185C133.832 69.556 133.849 68.876 133.815 68.468L136.382 68.672C136.263 69.148 136.11 69.896 136.025 70.27L135.889 70.899C136.841 70.763 137.793 70.576 138.711 70.355ZM136.348 77.818L138.371 77.988C138.235 78.481 138.133 79.025 138.133 79.399C138.133 80.13 138.558 80.691 140.36 80.691C141.482 80.691 142.655 80.555 143.862 80.351L143.777 82.51C142.825 82.629 141.686 82.748 140.343 82.748C137.504 82.748 136.059 81.762 136.059 80.062C136.059 79.28 136.212 78.464 136.348 77.818ZM142.485 68.893L143.828 68.349C144.287 68.995 144.916 70.066 145.205 70.661L143.862 71.239C143.505 70.525 142.961 69.539 142.485 68.893ZM156.748 80.47C157.547 80.47 158.074 79.96 158.414 79.11C157.853 78.855 157.275 78.702 156.714 78.702C156 78.702 155.388 79.008 155.388 79.552C155.388 80.232 156 80.47 156.748 80.47ZM152.277 72.82L152.26 72.99C153.62 71.8 155.456 70.559 157.156 70.559C159.57 70.559 160.981 72.565 160.981 75.625C160.981 76.594 160.93 77.512 160.794 78.311C161.457 78.787 162.018 79.331 162.528 79.875L161.44 81.626C161.049 81.15 160.641 80.725 160.199 80.334C159.587 81.626 158.55 82.374 156.867 82.374C154.997 82.374 153.552 81.541 153.552 79.637C153.552 78.124 154.844 77.002 156.884 77.002C157.581 77.002 158.227 77.104 158.822 77.308C158.873 76.747 158.907 76.118 158.907 75.472C158.907 73.67 158.074 72.48 156.782 72.48C155.269 72.48 153.45 73.993 152.09 75.506C152.056 76.067 152.039 76.611 152.039 77.104C152.039 78.481 152.039 79.892 152.141 81.473C152.158 81.779 152.226 82.391 152.26 82.765H149.948C149.982 82.408 149.999 81.796 149.999 81.524C150.033 80.215 150.033 79.246 150.067 77.818C149.353 78.889 148.52 80.113 147.942 80.929L146.616 79.059C147.568 77.903 149.268 75.659 150.22 74.248L150.288 73.075C149.472 73.177 148.18 73.347 147.228 73.466L147.024 71.307C147.5 71.324 147.891 71.324 148.486 71.29C148.979 71.256 149.71 71.171 150.424 71.069C150.458 70.44 150.492 69.964 150.492 69.777C150.492 69.301 150.509 68.791 150.424 68.281L152.889 68.349C152.787 68.825 152.651 69.692 152.515 70.746L153.144 71.545C152.923 71.834 152.566 72.378 152.277 72.82ZM170.467 77.631L169.855 71.817L169.787 69.284H172.898L172.813 71.817L172.218 77.631H170.467ZM171.334 82.153C170.331 82.153 169.566 81.473 169.566 80.487C169.566 79.518 170.331 78.804 171.334 78.804C172.337 78.804 173.102 79.518 173.102 80.487C173.102 81.473 172.337 82.153 171.334 82.153Z" fill="#202124"/>
</svg>
