<svg width="186" height="126" viewBox="0 0 186 126" fill="none" xmlns="http://www.w3.org/2000/svg">
<path d="M1 61.1185C1 27.9161 42.1891 1 93 1C114.988 1 130.674 4.091 146.5 12.5L155.5 17.0021C173.643 27.9831 185 42 185 62.7976C185 96 143.811 121.237 93 121.237C77.5843 121.237 65.2632 119.88 52.5 115.5L48.5 118C36.2158 127.201 25 123.5 25 123.5C32.5 119.5 35 118.5 39 110C8.5 94.5 1 82 1 61.1185Z" fill="white"/>
<path d="M52.5 115.5C65.2632 119.88 77.5843 121.237 93 121.237C143.811 121.237 185 97.5 185 61.1185C185 42 173.643 27.9831 155.5 17.0021M146.5 12.5C130.674 4.091 114.988 1 93 1C42.1891 1 1 27.9161 1 61.1185C1 82 8.5 94.5 39 110C36.5 116 32.5 119.5 25 123.5C25 123.5 34.5 126.5 46 120" stroke="#202124" stroke-width="2" stroke-linecap="round" stroke-linejoin="round"/>
<path d="M52.2132 55.331H56.7182C57.3302 55.331 57.8742 55.263 58.2992 55.195V57.66C57.8232 57.592 57.1092 57.575 56.7182 57.575H45.5152C45.0052 57.575 44.4102 57.592 43.8492 57.66V55.195C44.3762 55.297 44.9882 55.331 45.5152 55.331H49.8332V48.395H46.5522C46.0932 48.395 45.3622 48.429 44.9372 48.463V46.134C45.3792 46.202 46.0762 46.236 46.5522 46.236H55.8002C56.3102 46.236 56.9052 46.185 57.3982 46.134V48.463C56.8882 48.429 56.2932 48.395 55.8002 48.395H52.2132V55.331ZM68.3292 52.526V55.127C68.3292 56.062 68.9072 56.402 70.2672 56.402C71.7972 56.402 73.2932 56.3 74.6532 56.164L74.5002 58.459C73.3952 58.527 71.4742 58.595 69.8762 58.595C66.7652 58.595 66.0002 57.524 66.0002 55.807V52.526H63.2292C62.7532 52.526 61.8862 52.577 61.3762 52.611V50.384C61.8522 50.418 62.7022 50.469 63.2292 50.469H66.0002V47.579H64.1472C63.5352 47.579 62.9912 47.596 62.4982 47.63V45.505C62.9912 45.539 63.5352 45.59 64.1472 45.59H72.3242C72.9022 45.59 73.4632 45.556 73.8542 45.505V47.63C73.4122 47.613 72.9362 47.579 72.3242 47.579H68.3292V50.469H73.4632C73.8202 50.469 74.6702 50.435 75.1122 50.401L75.1292 52.577C74.6532 52.526 73.8882 52.526 73.5142 52.526H68.3292ZM81.0282 45.896C80.9092 46.491 80.8242 47.477 80.8242 47.936C80.8072 49.024 80.8242 50.299 80.9262 51.506C81.1642 53.937 81.6742 55.586 82.7282 55.586C83.5272 55.586 84.1902 53.614 84.5132 52.288L86.2132 54.328C85.0912 57.252 84.0372 58.289 82.6772 58.289C80.8412 58.289 79.2262 56.623 78.7502 52.101C78.5972 50.554 78.5632 48.599 78.5632 47.562C78.5632 47.086 78.5462 46.372 78.4442 45.862L81.0282 45.896ZM89.4432 46.253C91.0412 48.208 92.3332 52.271 92.5202 54.855L90.2932 55.705C90.0382 53.002 89.1372 49.041 87.3012 46.967L89.4432 46.253ZM109.724 54.005V55.858H106.29C106.035 57.422 105.712 58.272 105.287 58.714C104.794 59.224 104.301 59.377 103.536 59.445C102.924 59.513 101.836 59.496 100.748 59.462C100.714 58.884 100.442 58.085 100.051 57.541C101.19 57.643 102.312 57.66 102.788 57.66C103.145 57.66 103.383 57.626 103.604 57.439C103.842 57.235 104.063 56.742 104.25 55.858H94.4582V54.005H104.522C104.573 53.597 104.624 53.155 104.658 52.662H99.2352L99.1162 53.155L97.0592 53.002C97.5522 51.251 98.0962 48.429 98.4532 46.253H96.7362V48.497H94.7302V44.383H109.486V48.497H107.378V46.253H99.2012L100.493 46.372C100.425 46.797 100.34 47.256 100.255 47.715H106.511V49.449H99.9152C99.8132 49.942 99.7282 50.435 99.6262 50.894H106.834C106.834 50.894 106.8 51.472 106.766 51.744C106.698 52.594 106.63 53.342 106.545 54.005H109.724ZM122.372 49.126V48.412H115.963V49.126H122.372ZM122.372 50.996V50.282H115.963V50.996H122.372ZM122.372 52.883V52.118H115.963V52.883H122.372ZM117.986 47.222V46.508H112.036V44.825H117.986V43.601H120.094V44.825H126.282V46.508H120.094V47.222H124.429V54.056H114.008V47.222H117.986ZM126.639 56.385H122.1C123.8 56.963 125.687 57.66 126.843 58.153L125.109 59.496C123.987 58.935 122.083 58.136 120.247 57.49L121.403 56.385H116.371L117.952 57.49C116.609 58.289 114.501 59.105 112.818 59.513C112.495 59.105 111.883 58.51 111.458 58.119C113.107 57.762 115.079 57.031 116.15 56.385H111.526V54.719H126.639V56.385ZM138.165 55.552H136.142C136.176 55.059 136.193 54.277 136.21 53.546C134.969 54.226 134.289 54.889 134.289 55.722C134.289 56.657 135.088 56.912 136.737 56.912C138.165 56.912 140.035 56.725 141.514 56.419L141.446 58.612C140.324 58.748 138.267 58.884 136.686 58.884C134.051 58.884 132.062 58.255 132.062 56.079C132.062 53.937 134.102 52.577 136.023 51.591C135.751 51.166 135.309 51.013 134.85 51.013C133.898 51.013 132.861 51.557 132.215 52.169C131.705 52.679 131.229 53.291 130.651 54.022L128.849 52.679C130.617 51.047 131.807 49.551 132.555 48.055H132.351C131.671 48.055 130.43 48.021 129.512 47.936V45.964C130.362 46.1 131.62 46.151 132.47 46.151H133.286C133.49 45.386 133.609 44.706 133.626 44.23L135.836 44.417C135.751 44.825 135.632 45.403 135.428 46.083C137.009 45.998 138.709 45.862 140.188 45.59L140.171 47.562C138.556 47.8 136.482 47.936 134.68 48.004C134.408 48.599 134.068 49.211 133.711 49.704C134.153 49.483 135.054 49.364 135.615 49.364C136.635 49.364 137.485 49.806 137.859 50.673C138.726 50.265 139.44 49.976 140.137 49.67C140.783 49.381 141.378 49.092 141.99 48.803L142.84 50.758C142.296 50.894 141.412 51.234 140.834 51.472C140.086 51.761 139.134 52.135 138.097 52.611C138.114 53.546 138.148 54.787 138.165 55.552ZM32.413 70.134V69.403H27.721V70.134H32.413ZM32.413 72.106V71.358H27.721V72.106H32.413ZM34.351 68.094V73.398H25.885V68.094H34.351ZM26.99 80.691L28.299 80.504V79.739H26.99V80.691ZM26.99 77.648V78.43H28.299V77.648H26.99ZM28.299 75.574H26.99V76.322H28.299V75.574ZM34.028 76.135L35.082 76.339C34.844 78.192 34.368 79.654 33.671 80.827C34.249 81.371 34.912 81.83 35.66 82.136C35.286 82.459 34.793 83.088 34.555 83.513C33.841 83.173 33.195 82.697 32.634 82.136C32.09 82.697 31.444 83.139 30.696 83.496C30.543 83.139 30.237 82.663 29.965 82.289V83.547H28.299V82.034C26.939 82.306 25.596 82.578 24.491 82.782L24.032 81.099C24.44 81.048 24.899 80.997 25.409 80.929V75.574H24.593L24.729 76.526L23.216 76.985V81.371C23.216 82.306 23.063 82.799 22.536 83.105C22.043 83.428 21.312 83.496 20.224 83.479C20.173 82.986 19.952 82.187 19.731 81.643C20.326 81.677 20.921 81.677 21.125 81.677C21.329 81.677 21.414 81.609 21.414 81.371V77.529C20.853 77.682 20.309 77.835 19.816 77.971L19.374 76.033C19.952 75.914 20.649 75.744 21.414 75.54V72.667H19.68V70.814H21.414V67.618H23.216V70.814H24.525V72.667H23.216V75.064L24.406 74.724V74.01H35.49V75.574H29.965V81.966C30.56 81.677 31.104 81.286 31.563 80.793C31.07 80.011 30.662 79.144 30.356 78.209L31.784 77.835C31.971 78.379 32.226 78.906 32.515 79.399C32.787 78.889 32.991 78.311 33.144 77.699H30.186V76.169H33.705L34.028 76.135ZM49.94 67.856L51.878 68.655C50.688 70.253 48.971 71.681 47.356 72.65C47.016 72.208 46.438 71.596 45.911 71.205C47.339 70.474 49.056 69.165 49.94 67.856ZM50.246 72.582L52.116 73.381C50.892 74.996 49.09 76.475 47.424 77.478C47.084 77.036 46.506 76.424 45.979 76.033C47.492 75.268 49.294 73.908 50.246 72.582ZM39.536 71.001V71.698H43.65V71.001H39.536ZM39.536 69.301V69.964H43.65V69.301H39.536ZM46.489 73.534V75.081H36.629V73.534H40.624V72.803H37.734V68.162H45.503V72.803H42.46V73.534H46.489ZM38.193 79.637L39.876 80.096C39.4 81.184 38.618 82.323 37.887 83.054C37.547 82.765 36.85 82.306 36.442 82.085C37.139 81.456 37.819 80.538 38.193 79.637ZM39.553 77.07V78.09H43.548V77.07H39.553ZM45.367 79.399H42.46V81.762C42.46 82.544 42.307 82.935 41.746 83.173C41.185 83.445 40.488 83.462 39.57 83.462C39.451 82.986 39.094 82.323 38.839 81.915C39.485 81.949 40.165 81.949 40.352 81.932C40.573 81.932 40.624 81.881 40.624 81.711V79.399H37.836V75.778H45.367V79.399ZM50.603 77.189L52.592 77.886C51.3 80.368 49.209 82.238 46.795 83.479C46.574 83.088 46.217 82.629 45.826 82.238L44.687 82.816C44.364 82.187 43.616 81.133 43.004 80.385L44.5 79.654C44.976 80.198 45.537 80.912 45.945 81.507C47.883 80.555 49.668 79.025 50.603 77.189ZM56.621 68.536L59.341 68.57C59.222 69.284 59.137 70.134 59.12 70.814C59.035 72.616 58.916 76.39 58.916 78.481C58.916 80.181 59.936 80.725 61.228 80.725C64.016 80.725 65.784 79.127 66.991 77.291L68.521 79.178C67.433 80.776 65.053 83.02 61.211 83.02C58.457 83.02 56.672 81.813 56.672 78.94C56.672 76.679 56.842 72.259 56.842 70.814C56.842 70.015 56.774 69.199 56.621 68.536ZM79.061 75.557V73.568C79.996 73.483 81.203 73.398 82.291 73.398C83.243 73.398 84.263 73.449 85.249 73.551L85.198 75.574C84.365 75.472 83.328 75.37 82.308 75.37C81.135 75.37 80.115 75.421 79.061 75.557ZM80.387 70.151V72.276C79.384 72.497 78.245 72.684 77.123 72.82C76.97 73.551 76.8 74.299 76.613 74.979C76.001 77.342 74.862 80.793 73.944 82.765L71.581 81.983C72.584 80.3 73.859 76.764 74.488 74.401C74.607 73.959 74.726 73.483 74.845 73.007C74.454 73.024 74.08 73.041 73.74 73.041C72.924 73.041 72.295 73.007 71.7 72.973L71.649 70.865C72.516 70.967 73.077 71.001 73.774 71.001C74.267 71.001 74.76 70.984 75.27 70.95C75.338 70.576 75.389 70.253 75.423 69.981C75.508 69.352 75.525 68.672 75.491 68.281L78.058 68.485C77.939 68.944 77.786 69.692 77.701 70.066L77.565 70.712C78.517 70.559 79.469 70.372 80.387 70.151ZM78.024 77.614L80.047 77.801C79.911 78.277 79.809 78.838 79.809 79.212C79.809 79.943 80.234 80.487 82.036 80.487C83.158 80.487 84.331 80.368 85.538 80.147L85.453 82.306C84.501 82.425 83.362 82.544 82.019 82.544C79.18 82.544 77.735 81.558 77.735 79.858C77.735 79.093 77.888 78.277 78.024 77.614ZM91.454 69.896C91.335 70.491 91.25 71.477 91.25 71.936C91.233 73.024 91.25 74.299 91.352 75.506C91.59 77.937 92.1 79.586 93.154 79.586C93.953 79.586 94.616 77.614 94.939 76.288L96.639 78.328C95.517 81.252 94.463 82.289 93.103 82.289C91.267 82.289 89.652 80.623 89.176 76.101C89.023 74.554 88.989 72.599 88.989 71.562C88.989 71.086 88.972 70.372 88.87 69.862L91.454 69.896ZM99.869 70.253C101.467 72.208 102.759 76.271 102.946 78.855L100.719 79.705C100.464 77.002 99.563 73.041 97.727 70.967L99.869 70.253ZM111.599 75.302V75.336C111.599 76.373 111.667 77.291 111.786 78.124C112.602 77.308 113.35 76.288 113.911 74.928C113.027 74.945 112.245 75.098 111.599 75.302ZM108.386 80.096C108.862 80.096 109.44 79.909 110.069 79.552C109.882 78.498 109.746 77.342 109.712 76.186C108.454 77.036 107.604 78.328 107.604 79.28C107.604 79.807 107.842 80.096 108.386 80.096ZM114.625 72.208L116.699 72.684C116.614 72.871 116.495 73.228 116.393 73.551C118.348 74.197 119.64 75.71 119.64 77.682C119.64 80.045 118.229 82.374 114.098 82.986L112.976 81.218C116.223 80.861 117.549 79.229 117.549 77.58C117.549 76.56 116.954 75.659 115.815 75.217C114.88 77.512 113.537 79.263 112.262 80.317C112.381 80.759 112.517 81.167 112.653 81.575L110.715 82.153C110.647 81.949 110.562 81.711 110.494 81.473C109.678 81.881 108.777 82.153 107.893 82.153C106.652 82.153 105.615 81.405 105.615 79.688C105.615 77.546 107.4 75.268 109.746 74.163C109.797 73.449 109.848 72.735 109.916 72.055H109.372C108.488 72.055 107.179 71.987 106.397 71.953L106.329 69.998C106.924 70.083 108.403 70.219 109.44 70.219H110.086L110.188 69.318C110.222 69.012 110.256 68.604 110.239 68.315L112.449 68.366C112.33 68.706 112.262 69.012 112.211 69.267C112.143 69.539 112.092 69.845 112.041 70.168C114.081 70.1 115.9 69.896 117.753 69.454L117.77 71.392C116.121 71.698 113.86 71.902 111.786 72.004C111.735 72.497 111.684 73.007 111.667 73.517C112.466 73.33 113.35 73.211 114.183 73.211H114.472C114.54 72.871 114.608 72.446 114.625 72.208ZM137.048 72.718L135.858 74.503C134.889 73.721 132.968 72.616 131.812 72.106L132.9 70.44C134.107 70.967 136.198 72.106 137.048 72.718ZM130.707 70.134L130.758 72.089C129.993 72.293 128.956 72.514 127.834 72.667C127.035 75.03 125.59 77.954 124.23 79.875L122.173 78.838C123.533 77.189 124.859 74.707 125.607 72.888C125.318 72.905 125.029 72.905 124.74 72.905C124.043 72.905 123.363 72.888 122.632 72.854L122.479 70.882C123.21 70.967 124.111 71.001 124.723 71.001C125.216 71.001 125.726 70.984 126.236 70.95C126.474 70.015 126.661 68.995 126.695 68.128L129.024 68.366C128.888 68.91 128.684 69.76 128.446 70.661C129.262 70.525 130.044 70.338 130.707 70.134ZM131.115 79.501V79.178C130.673 79.076 130.231 79.008 129.755 79.008C128.786 79.008 128.157 79.416 128.157 80.011C128.157 80.64 128.684 81.065 129.602 81.065C130.741 81.065 131.115 80.402 131.115 79.501ZM130.843 73.602H132.968C132.917 74.316 132.951 75.013 132.968 75.761C132.985 76.237 133.019 77.053 133.07 77.886C134.515 78.43 135.705 79.28 136.555 80.045L135.433 81.847C134.838 81.303 134.073 80.623 133.155 80.062V80.215C133.155 81.779 132.305 83.003 129.908 83.003C127.817 83.003 126.168 82.068 126.168 80.215C126.168 78.566 127.545 77.291 129.891 77.291C130.282 77.291 130.673 77.325 131.03 77.359C130.979 76.101 130.894 74.622 130.843 73.602ZM147.061 75.557V73.568C147.996 73.483 149.203 73.398 150.291 73.398C151.243 73.398 152.263 73.449 153.249 73.551L153.198 75.574C152.365 75.472 151.328 75.37 150.308 75.37C149.135 75.37 148.115 75.421 147.061 75.557ZM148.387 70.151V72.276C147.384 72.497 146.245 72.684 145.123 72.82C144.97 73.551 144.8 74.299 144.613 74.979C144.001 77.342 142.862 80.793 141.944 82.765L139.581 81.983C140.584 80.3 141.859 76.764 142.488 74.401C142.607 73.959 142.726 73.483 142.845 73.007C142.454 73.024 142.08 73.041 141.74 73.041C140.924 73.041 140.295 73.007 139.7 72.973L139.649 70.865C140.516 70.967 141.077 71.001 141.774 71.001C142.267 71.001 142.76 70.984 143.27 70.95C143.338 70.576 143.389 70.253 143.423 69.981C143.508 69.352 143.525 68.672 143.491 68.281L146.058 68.485C145.939 68.944 145.786 69.692 145.701 70.066L145.565 70.712C146.517 70.559 147.469 70.372 148.387 70.151ZM146.024 77.614L148.047 77.801C147.911 78.277 147.809 78.838 147.809 79.212C147.809 79.943 148.234 80.487 150.036 80.487C151.158 80.487 152.331 80.368 153.538 80.147L153.453 82.306C152.501 82.425 151.362 82.544 150.019 82.544C147.18 82.544 145.735 81.558 145.735 79.858C145.735 79.093 145.888 78.277 146.024 77.614ZM155.714 76.9C156.207 76.492 156.615 76.118 157.125 75.574C157.907 74.775 159.216 73.041 160.253 71.834C161.426 70.491 162.531 70.372 163.755 71.562C164.894 72.684 166.237 74.418 167.24 75.506C168.311 76.679 169.739 78.192 171.354 79.637L169.62 81.626C168.413 80.487 166.968 78.872 165.897 77.614C164.843 76.39 163.602 74.775 162.803 73.891C162.208 73.245 161.902 73.33 161.409 73.942C160.746 74.792 159.539 76.458 158.825 77.41C158.434 77.954 158.06 78.566 157.754 79.008L155.714 76.9Z" fill="#202124"/>
</svg>
