<svg width="186" height="126" viewBox="0 0 186 126" fill="none" xmlns="http://www.w3.org/2000/svg">
<path d="M1 61.1185C1 27.9161 42.1891 1 93 1C114.988 1 130.674 4.091 146.5 12.5L155.5 17.0021C173.643 27.9831 185 42 185 62.7976C185 96 143.811 121.237 93 121.237C77.5843 121.237 65.2632 119.88 52.5 115.5L48.5 118C36.2158 127.201 25 123.5 25 123.5C32.5 119.5 35 118.5 39 110C8.5 94.5 1 82 1 61.1185Z" fill="white"/>
<path d="M52.5 115.5C65.2632 119.88 77.5843 121.237 93 121.237C143.811 121.237 185 97.5 185 61.1185C185 42 173.643 27.9831 155.5 17.0021M146.5 12.5C130.674 4.091 114.988 1 93 1C42.1891 1 1 27.9161 1 61.1185C1 82 8.5 94.5 39 110C36.5 116 32.5 119.5 25 123.5C25 123.5 34.5 126.5 46 120" stroke="#202124" stroke-width="2" stroke-linecap="round" stroke-linejoin="round"/>
<path d="M65.291 40.254L65.648 40.169L67.263 40.645C66.43 42.719 65.206 45.371 64.152 47.53L62.01 46.935C62.758 45.473 63.625 43.654 64.271 42.175H55.55V40.254H65.291ZM58.44 36.769H64.526C63.285 35.681 62.18 34.525 61.432 33.471C60.701 34.525 59.664 35.681 58.44 36.769ZM60.327 31.499H62.35C64.169 34.1 66.957 36.497 69.609 37.738C69.099 38.248 68.657 38.894 68.283 39.506C67.212 38.877 66.107 38.095 65.07 37.228V38.639H57.862V37.279C56.893 38.112 55.822 38.877 54.717 39.54C54.462 39.064 53.884 38.35 53.442 37.925C56.315 36.344 59.052 33.607 60.327 31.499ZM74.947 39.285V40.339H82.053V39.285H74.947ZM74.947 36.582V37.636H82.053V36.582H74.947ZM74.947 33.896V34.95H82.053V33.896H74.947ZM82.087 45.422H83.855C84.433 45.422 84.535 45.133 84.62 43.161C85.045 43.484 85.946 43.824 86.473 43.96C86.252 46.646 85.725 47.343 84.042 47.343H81.798C79.775 47.343 79.299 46.731 79.299 44.827V42.107H77.242C76.885 44.81 75.882 46.595 71.683 47.547C71.496 47.003 70.952 46.17 70.561 45.745C74.046 45.099 74.777 43.96 75.066 42.107H72.992V32.128H84.11V42.107H81.339V44.81C81.339 45.354 81.441 45.422 82.087 45.422ZM88.292 34.338C88.955 34.321 89.601 34.287 89.941 34.253C91.335 34.117 94.123 33.879 97.2 33.607C98.934 33.471 100.787 33.369 101.96 33.318L101.977 35.494C101.076 35.494 99.631 35.511 98.73 35.715C96.707 36.259 95.177 38.435 95.177 40.424C95.177 43.195 97.778 44.181 100.617 44.334L99.835 46.663C96.299 46.425 92.967 44.521 92.967 40.883C92.967 38.452 94.327 36.548 95.449 35.698C94.004 35.851 90.451 36.225 88.496 36.65L88.292 34.338ZM108.454 33.896C108.335 34.491 108.25 35.477 108.25 35.936C108.233 37.024 108.25 38.299 108.352 39.506C108.59 41.937 109.1 43.586 110.154 43.586C110.953 43.586 111.616 41.614 111.939 40.288L113.639 42.328C112.517 45.252 111.463 46.289 110.103 46.289C108.267 46.289 106.652 44.623 106.176 40.101C106.023 38.554 105.989 36.599 105.989 35.562C105.989 35.086 105.972 34.372 105.87 33.862L108.454 33.896ZM116.869 34.253C118.467 36.208 119.759 40.271 119.946 42.855L117.719 43.705C117.464 41.002 116.563 37.041 114.727 34.967L116.869 34.253ZM129.347 44.98C129.704 44.98 130.027 44.963 130.333 44.929C130.231 43.841 129.602 43.127 128.684 43.127C128.055 43.127 127.647 43.501 127.647 43.926C127.647 44.555 128.361 44.98 129.347 44.98ZM133.053 32.842L134.141 34.338C133.733 34.593 133.342 34.848 132.968 35.103C132.067 35.732 130.299 37.228 129.245 38.078C129.806 37.925 130.282 37.891 130.826 37.891C133.682 37.891 135.858 39.676 135.858 42.124C135.858 44.776 133.835 46.884 129.772 46.884C127.426 46.884 125.658 45.813 125.658 44.13C125.658 42.77 126.899 41.512 128.684 41.512C130.758 41.512 132.016 42.787 132.271 44.385C133.189 43.892 133.648 43.11 133.648 42.09C133.648 40.577 132.118 39.557 130.163 39.557C127.579 39.557 125.896 40.934 124.094 42.974L122.564 41.393C123.754 40.424 125.777 38.707 126.78 37.891C127.715 37.109 129.466 35.698 130.299 34.967C129.432 34.984 127.12 35.086 126.236 35.154C125.777 35.171 125.25 35.222 124.859 35.29L124.791 33.097C125.267 33.148 125.845 33.182 126.321 33.182C127.205 33.182 130.809 33.097 131.761 33.012C132.458 32.961 132.849 32.893 133.053 32.842ZM53.9325 63.047L56.2955 62.537C57.4175 63.965 57.9275 65.155 57.9275 66.583C57.9275 69.116 55.6495 70.952 51.9605 70.952C49.3085 70.952 47.4385 69.796 47.4385 66.991C47.4385 66.583 47.4895 65.988 47.5575 65.291C46.3335 65.172 45.2285 64.985 44.3275 64.73L44.4465 62.69C45.5345 63.064 46.6735 63.251 47.7615 63.353C47.8635 62.605 47.9485 61.823 48.0505 61.058C46.8775 60.939 45.6875 60.735 44.7015 60.463L44.8205 58.508C45.7895 58.831 47.0475 59.035 48.2715 59.137C48.3395 58.627 48.3735 58.168 48.4075 57.794C48.4415 57.335 48.4755 56.859 48.4415 56.298L50.8045 56.434C50.6685 57.046 50.5835 57.488 50.5155 57.93C50.4645 58.219 50.4135 58.661 50.3285 59.205C51.5355 59.188 52.6235 59.12 53.4225 59.001L53.3545 61.007C52.3515 61.109 51.4335 61.16 50.0735 61.16C49.9715 61.908 49.8695 62.707 49.7845 63.455H49.9035C50.9405 63.455 52.1815 63.37 53.2865 63.251L53.2355 65.257C52.2835 65.342 51.2975 65.41 50.2605 65.41C50.0395 65.41 49.8015 65.41 49.5805 65.41C49.5465 65.903 49.5125 66.328 49.5125 66.634C49.5125 68.011 50.3625 68.776 52.0285 68.776C54.3745 68.776 55.6665 67.705 55.6665 66.311C55.6665 65.172 55.0205 64.084 53.9325 63.047ZM64.4725 66.94C65.1695 66.94 65.8495 65.886 66.5295 63.608C66.9205 62.367 67.2265 60.922 67.4305 59.528C64.6425 60.106 63.1635 62.554 63.1635 64.407C63.1635 66.107 63.8435 66.94 64.4725 66.94ZM69.0965 70.697L67.8385 68.708C68.4845 68.623 68.9605 68.538 69.4025 68.436C71.5615 67.926 73.2275 66.379 73.2275 63.931C73.2275 61.602 71.9695 59.868 69.7085 59.477C69.4705 60.905 69.1815 62.469 68.7055 64.05C67.7025 67.45 66.2405 69.524 64.4045 69.524C62.5515 69.524 60.9705 67.467 60.9705 64.628C60.9705 60.752 64.3535 57.42 68.7225 57.42C72.8875 57.42 75.5225 60.327 75.5225 63.999C75.5225 67.535 73.3465 70.051 69.0965 70.697ZM84.4475 58.134C86.5215 58.423 89.8705 58.355 91.6895 58.134V60.31C89.6155 60.497 86.5725 60.497 84.4645 60.31L84.4475 58.134ZM83.8695 65.155L85.8075 65.342C85.6715 65.886 85.6035 66.294 85.6035 66.753C85.6035 67.501 86.2495 67.943 87.9495 67.943C89.4625 67.943 90.7035 67.807 92.1655 67.501L92.2165 69.779C91.1285 69.983 89.7685 70.119 87.8645 70.119C84.9575 70.119 83.5805 69.065 83.5805 67.348C83.5805 66.651 83.6995 65.937 83.8695 65.155ZM79.5005 56.825L81.8635 57.029C81.7275 57.369 81.5235 58.219 81.4555 58.525C81.2175 59.647 80.6395 63.013 80.6395 64.696C80.6395 65.019 80.6565 65.427 80.7075 65.784C80.9455 65.189 81.2175 64.628 81.4555 64.084L82.5095 64.9C82.0335 66.311 81.4725 68.13 81.3025 69.031C81.2515 69.269 81.2005 69.643 81.2005 69.813C81.2175 70 81.2175 70.272 81.2345 70.51L79.2965 70.646C78.9565 69.473 78.6335 67.416 78.6335 65.138C78.6335 62.605 79.1435 59.766 79.3305 58.474C79.3985 57.998 79.5005 57.352 79.5005 56.825ZM94.8345 60.684C95.4465 60.582 96.2795 60.361 96.8915 60.174C98.2005 59.783 101.618 58.576 104.083 58.576C107.126 58.576 109.523 60.327 109.523 63.438C109.523 67.246 105.885 69.694 99.9515 70L98.9825 67.756C103.539 67.654 107.109 66.328 107.109 63.404C107.109 61.823 106.021 60.616 103.998 60.616C101.516 60.616 97.5375 62.282 95.7865 63.064L94.8345 60.684ZM115.286 57.896C115.167 58.491 115.082 59.477 115.082 59.936C115.065 61.024 115.082 62.299 115.184 63.506C115.422 65.937 115.932 67.586 116.986 67.586C117.785 67.586 118.448 65.614 118.771 64.288L120.471 66.328C119.349 69.252 118.295 70.289 116.935 70.289C115.099 70.289 113.484 68.623 113.008 64.101C112.855 62.554 112.821 60.599 112.821 59.562C112.821 59.086 112.804 58.372 112.702 57.862L115.286 57.896ZM123.701 58.253C125.299 60.208 126.591 64.271 126.778 66.855L124.551 67.705C124.296 65.002 123.395 61.041 121.559 58.967L123.701 58.253ZM128.609 58.338C129.272 58.321 129.918 58.287 130.258 58.253C131.652 58.117 134.44 57.879 137.517 57.607C139.251 57.471 141.104 57.369 142.277 57.318L142.294 59.494C141.393 59.494 139.948 59.511 139.047 59.715C137.024 60.259 135.494 62.435 135.494 64.424C135.494 67.195 138.095 68.181 140.934 68.334L140.152 70.663C136.616 70.425 133.284 68.521 133.284 64.883C133.284 62.452 134.644 60.548 135.766 59.698C134.321 59.851 130.768 60.225 128.813 60.65L128.609 58.338ZM45.1942 94.238C41.7602 94.238 39.1592 91.96 39.1592 87.761C39.1592 83.613 41.8452 81.182 45.1942 81.182C47.0132 81.182 48.2712 81.964 49.0872 82.797L47.7442 84.395C47.1322 83.8 46.4182 83.341 45.2792 83.341C43.1882 83.341 41.7262 84.973 41.7262 87.676C41.7262 90.413 42.9842 92.062 45.4492 92.062C46.0612 92.062 46.6732 91.892 47.0302 91.586V89.104H44.8032V87.047H49.2742V92.725C48.4242 93.558 46.9452 94.238 45.1942 94.238ZM55.9008 94.238C53.2488 94.238 51.1748 92.385 51.1748 89.257C51.1748 86.163 53.3338 84.242 55.6118 84.242C58.2298 84.242 59.5898 86.163 59.5898 88.798C59.5898 89.257 59.5388 89.716 59.4708 89.937H53.6058C53.8098 91.501 54.8298 92.317 56.2408 92.317C57.0228 92.317 57.7028 92.079 58.3828 91.654L59.2328 93.184C58.2978 93.83 57.0908 94.238 55.9008 94.238ZM53.5718 88.288H57.4478C57.4478 86.996 56.8698 86.18 55.6458 86.18C54.6428 86.18 53.7588 86.894 53.5718 88.288ZM61.6477 94V84.48H63.6877L63.8577 85.755H63.9257C64.7247 84.922 65.6087 84.242 66.8497 84.242C68.2097 84.242 69.0087 84.854 69.4677 85.908C70.3347 84.99 71.2527 84.242 72.4937 84.242C74.5167 84.242 75.4517 85.67 75.4517 88.067V94H72.9527V88.373C72.9527 86.911 72.5277 86.384 71.6267 86.384C71.0827 86.384 70.4707 86.741 69.7907 87.455V94H67.2917V88.373C67.2917 86.911 66.8667 86.384 65.9657 86.384C65.4217 86.384 64.8097 86.741 64.1297 87.455V94H61.6477ZM78.0334 94V84.48H80.5154V94H78.0334ZM79.2914 82.95C78.4244 82.95 77.7954 82.372 77.7954 81.59C77.7954 80.774 78.4244 80.23 79.2914 80.23C80.1414 80.23 80.7704 80.774 80.7704 81.59C80.7704 82.372 80.1414 82.95 79.2914 82.95ZM83.1965 94V84.48H85.2365L85.4065 85.738H85.4745C86.3075 84.922 87.2765 84.242 88.5685 84.242C90.6255 84.242 91.5095 85.67 91.5095 88.067V94H89.0105V88.373C89.0105 86.911 88.6025 86.384 87.6675 86.384C86.8855 86.384 86.3925 86.758 85.6785 87.455V94H83.1965ZM94.0871 94V84.48H96.5691V94H94.0871ZM95.3451 82.95C94.4781 82.95 93.8491 82.372 93.8491 81.59C93.8491 80.774 94.4781 80.23 95.3451 80.23C96.1951 80.23 96.8241 80.774 96.8241 81.59C96.8241 82.372 96.1951 82.95 95.3451 82.95ZM114.356 82.151L115.529 84.106C115.019 84.412 114.475 84.701 113.863 85.007C112.809 85.534 110.701 86.52 109.171 87.506C107.76 88.424 106.825 89.393 106.825 90.566C106.825 91.773 107.998 92.419 110.327 92.419C112.061 92.419 114.339 92.147 115.835 91.807L115.801 94.238C114.373 94.476 112.588 94.646 110.395 94.646C107.046 94.646 104.513 93.711 104.513 90.821C104.513 88.951 105.686 87.574 107.301 86.384C106.519 84.939 105.703 83.154 104.938 81.369L107.063 80.502C107.709 82.253 108.491 83.868 109.171 85.16C110.548 84.361 112.01 83.613 112.809 83.171C113.438 82.797 113.931 82.508 114.356 82.151ZM124.131 84.701H130.506C129.197 83.715 128.024 82.61 127.242 81.556C126.511 82.593 125.423 83.698 124.131 84.701ZM123.298 86.554V85.313C122.397 85.959 121.411 86.537 120.425 87.013C120.187 86.52 119.66 85.755 119.235 85.313C122.142 84.038 124.828 81.624 126.103 79.618H128.211C130.013 82.117 132.716 84.055 135.402 85.007C134.892 85.534 134.45 86.265 134.093 86.86C133.158 86.418 132.172 85.857 131.237 85.211V86.554H123.298ZM120.289 89.835V87.965H134.348V89.835H126.732C126.239 90.838 125.678 91.892 125.168 92.844C126.8 92.793 128.551 92.725 130.285 92.657C129.758 92.045 129.18 91.433 128.619 90.923L130.404 89.988C131.917 91.314 133.498 93.082 134.297 94.357L132.41 95.496C132.24 95.173 132.002 94.816 131.73 94.442C127.735 94.663 123.536 94.833 120.646 94.969L120.374 92.997L122.941 92.912C123.4 91.96 123.876 90.838 124.233 89.835H120.289ZM142.236 80.128V81.658H137.221V80.128H142.236ZM140.587 91.263H138.768V93.201H140.587V91.263ZM142.304 89.665V94.799H138.768V95.462H137.068V89.665H142.304ZM137.119 88.798V87.268H142.219V88.798H137.119ZM142.219 84.905V86.418H137.119V84.905H142.219ZM136.32 84.072V82.474H142.78V84.072H136.32ZM149.563 92.844V90.464H145.704V92.844H149.563ZM152.266 86.401H148.611V88.645H151.586V95.411H149.563V94.663H145.704V95.479H143.783V88.645H146.554V86.401H142.899V84.514H146.554V82.44C145.602 82.559 144.633 82.644 143.732 82.712C143.664 82.219 143.409 81.454 143.188 81.012C145.738 80.791 148.594 80.349 150.396 79.771L151.824 81.454C150.855 81.743 149.767 81.964 148.611 82.151V84.514H152.266V86.401Z" fill="#202124"/>
</svg>
