<svg width="186" height="126" viewBox="0 0 186 126" fill="none" xmlns="http://www.w3.org/2000/svg">
<path d="M1 61.1185C1 27.9161 42.1891 1 93 1C114.988 1 130.674 4.091 146.5 12.5L155.5 17.0021C173.643 27.9831 185 42 185 62.7976C185 96 143.811 121.237 93 121.237C77.5843 121.237 65.2632 119.88 52.5 115.5L48.5 118C36.2158 127.201 25 123.5 25 123.5C32.5 119.5 35 118.5 39 110C8.5 94.5 1 82 1 61.1185Z" fill="white"/>
<path d="M52.5 115.5C65.2632 119.88 77.5843 121.237 93 121.237C143.811 121.237 185 97.5 185 61.1185C185 42 173.643 27.9831 155.5 17.0021M146.5 12.5C130.674 4.091 114.988 1 93 1C42.1891 1 1 27.9161 1 61.1185C1 82 8.5 94.5 39 110C36.5 116 32.5 119.5 25 123.5C25 123.5 34.5 126.5 46 120" stroke="#202124" stroke-width="2" stroke-linecap="round" stroke-linejoin="round"/>
<path d="M52.286 40.305V42.277H45.571V45.048C45.571 46.255 45.265 46.782 44.466 47.105C43.65 47.411 42.426 47.462 40.692 47.445C40.573 46.867 40.182 45.983 39.859 45.439C41.117 45.49 42.545 45.49 42.919 45.49C43.31 45.473 43.463 45.354 43.463 45.014V42.277H36.748V40.305H43.463V38.316H37.904V36.378H43.463V34.389C41.695 34.542 39.91 34.644 38.244 34.712C38.193 34.185 37.938 33.369 37.734 32.927C41.831 32.757 46.489 32.298 49.277 31.567L50.739 33.25C49.226 33.641 47.441 33.93 45.571 34.151V36.378H51.283V38.316H45.571V40.305H52.286ZM65.291 39.591V38.554H57.539V39.591H65.291ZM57.539 44.929H65.291V43.773H57.539V44.929ZM65.291 42.226V41.121H57.539V42.226H65.291ZM69.201 35.732H62.741C62.588 36.106 62.418 36.463 62.265 36.803H67.399V47.496H65.291V46.697H57.539V47.496H55.533V36.803H60.021C60.14 36.446 60.225 36.089 60.31 35.732H53.85V33.862H57.743C57.403 33.335 56.927 32.757 56.519 32.281L58.321 31.465C58.95 32.077 59.63 32.91 59.97 33.471L59.222 33.862H63.115C63.608 33.165 64.135 32.247 64.424 31.55L66.753 32.06C66.311 32.706 65.835 33.335 65.393 33.862H69.201V35.732ZM74.641 42.94C75.338 42.94 76.018 41.886 76.698 39.608C77.089 38.367 77.395 36.922 77.599 35.528C74.811 36.106 73.332 38.554 73.332 40.407C73.332 42.107 74.012 42.94 74.641 42.94ZM79.265 46.697L78.007 44.708C78.653 44.623 79.129 44.538 79.571 44.436C81.73 43.926 83.396 42.379 83.396 39.931C83.396 37.602 82.138 35.868 79.877 35.477C79.639 36.905 79.35 38.469 78.874 40.05C77.871 43.45 76.409 45.524 74.573 45.524C72.72 45.524 71.139 43.467 71.139 40.628C71.139 36.752 74.522 33.42 78.891 33.42C83.056 33.42 85.691 36.327 85.691 39.999C85.691 43.535 83.515 46.051 79.265 46.697ZM101.841 46.374H99.376C99.393 46.102 99.393 45.813 99.393 45.49H91.641C90.978 45.49 90.009 45.541 89.448 45.592V43.161C90.043 43.212 90.808 43.263 91.573 43.263H99.41V36.225H91.777C91.063 36.225 90.145 36.259 89.669 36.293V33.93C90.298 33.998 91.182 34.032 91.777 34.032H100.328C100.821 34.032 101.535 34.015 101.824 33.998C101.807 34.389 101.773 35.069 101.773 35.562V44.368C101.773 44.963 101.807 45.864 101.841 46.374ZM105.564 40.798V38.129C106.176 38.18 107.417 38.231 108.301 38.231H117.43C118.212 38.231 118.977 38.163 119.419 38.129V40.798C119.011 40.781 118.144 40.713 117.43 40.713H108.301C107.332 40.713 106.193 40.747 105.564 40.798ZM130.911 37.959H135.195C135.552 37.959 136.368 37.891 136.742 37.857V40.05C136.283 40.016 135.705 39.982 135.246 39.982H130.843C130.588 42.838 129.364 45.252 126.491 46.969L124.332 45.507C126.916 44.317 128.276 42.498 128.599 39.982H123.924C123.397 39.982 122.768 40.016 122.326 40.05V37.857C122.785 37.908 123.363 37.959 123.89 37.959H128.684V35.545C127.052 35.681 125.267 35.732 124.128 35.766L123.601 33.794C124.893 33.828 127.528 33.794 129.398 33.522C131.098 33.284 132.832 32.893 133.682 32.502L135.076 34.372C134.498 34.508 134.056 34.627 133.767 34.695C132.934 34.916 131.931 35.103 130.911 35.256V37.959ZM154.66 33.59L153.317 34.185C152.96 33.471 152.416 32.468 151.94 31.839L153.283 31.278C153.742 31.924 154.371 32.995 154.66 33.59ZM143.236 32.485L145.735 32.74C145.633 33.182 145.531 33.709 145.446 34.134C145.344 34.644 145.208 35.256 145.089 35.868C145.65 35.834 146.16 35.8 146.5 35.8C148.285 35.8 149.543 36.599 149.543 39.013C149.543 41.002 149.305 43.688 148.591 45.15C148.03 46.323 147.112 46.697 145.82 46.697C145.191 46.697 144.375 46.595 143.814 46.459L143.44 44.232C144.086 44.419 145.072 44.589 145.514 44.589C146.075 44.589 146.5 44.419 146.772 43.858C147.231 42.923 147.452 40.917 147.452 39.251C147.452 37.908 146.874 37.721 145.82 37.721C145.548 37.721 145.14 37.755 144.664 37.789C144.001 40.339 142.777 44.3 141.23 46.782L139.037 45.898C140.669 43.688 141.825 40.322 142.42 38.027C141.825 38.095 141.298 38.163 140.975 38.214C140.499 38.265 139.632 38.384 139.105 38.469L138.918 36.191C139.53 36.242 140.091 36.208 140.703 36.191C141.23 36.174 142.029 36.123 142.879 36.055C143.117 34.763 143.253 33.539 143.236 32.485ZM152.637 34.372L151.77 34.746C152.756 36.293 154.014 39.132 154.507 40.611L152.365 41.614C151.923 39.744 150.733 36.769 149.526 35.273L151.09 34.61C150.75 33.964 150.325 33.148 149.934 32.604L151.277 32.043C151.702 32.672 152.297 33.743 152.637 34.372ZM14.9586 59.494V61.857C14.9586 64.594 14.7036 68.793 13.1736 71.445C12.7996 71.105 11.8986 70.527 11.4226 70.306C12.8166 67.875 12.9356 64.305 12.9356 61.857V57.573H18.9876V55.618H21.0956V57.573H27.2326V59.494H14.9586ZM23.8836 62.01L22.4216 63.523C21.6056 62.724 19.8206 61.585 18.4266 60.871L19.7696 59.528C21.1296 60.191 22.9656 61.211 23.8836 62.01ZM16.4546 70L14.6526 69.201C15.3666 67.909 15.7236 65.937 15.8936 64.05L17.7126 64.441C17.5256 66.396 17.2196 68.64 16.4546 70ZM20.8576 69.354H22.2346C22.7446 69.354 22.8466 68.963 22.9146 66.617C23.3396 66.974 24.1726 67.297 24.6996 67.433C24.5126 70.34 24.0026 71.156 22.4216 71.156H20.5346C18.7326 71.156 18.3076 70.561 18.3076 68.674V62.741H20.3136V68.657C20.3136 69.269 20.3816 69.354 20.8576 69.354ZM23.5946 64.305L25.3966 63.608C26.3996 65.376 27.3856 67.62 27.6576 69.167L25.6686 69.983C25.4476 68.47 24.5636 66.107 23.5946 64.305ZM33.7606 63.302L34.0156 65.104C33.4546 65.274 32.8936 65.444 32.3326 65.597V69.337C32.3326 70.272 32.1626 70.782 31.6526 71.105C31.1426 71.428 30.4116 71.496 29.3066 71.479C29.2556 70.986 29.0346 70.153 28.7796 69.609C29.4086 69.643 29.9866 69.643 30.1906 69.626C30.3946 69.626 30.4796 69.558 30.4796 69.337V66.124L28.7796 66.634L28.4736 64.662C29.0516 64.543 29.7316 64.373 30.4796 64.169V60.684H28.6946V58.814H30.4796V55.618H32.3326V58.814H33.8626V60.684H32.3326V63.676L33.7606 63.302ZM41.0876 66.379H38.1296C38.5546 67.025 39.1156 67.586 39.8296 68.079C40.3396 67.603 40.7816 67.042 41.0876 66.379ZM42.2436 64.866L43.3316 65.308C42.9066 66.821 42.2606 67.994 41.3766 68.929C42.3456 69.354 43.4336 69.66 44.6406 69.847C44.2156 70.238 43.7056 70.986 43.4506 71.496C42.1076 71.207 40.9006 70.765 39.8636 70.187C38.9286 70.765 37.8236 71.207 36.6506 71.513C36.4466 71.088 35.9026 70.34 35.5626 70.017C36.5826 69.813 37.5176 69.507 38.3336 69.082C37.8406 68.691 37.4156 68.215 37.0416 67.705C36.3786 69.133 35.4096 70.459 33.8966 71.445C33.6246 70.969 33.0466 70.323 32.5876 69.983C34.8316 68.606 35.6986 66.43 36.0896 64.254H34.0496V62.622H36.3106C36.3276 62.35 36.3446 62.078 36.3786 61.823H34.3726V60.242H35.4266C35.2906 59.715 35.0356 58.967 34.8146 58.406L36.3276 57.981C36.5996 58.61 36.9566 59.426 37.1096 59.936L36.1576 60.242H38.1126C38.0616 59.681 37.9086 58.797 37.7386 58.1L39.3196 57.828C39.5066 58.491 39.7106 59.358 39.7786 59.885L38.1976 60.242H40.3226C40.7986 59.443 41.3426 58.338 41.6486 57.505C39.3876 57.794 36.7696 57.947 34.4916 57.981C34.4576 57.539 34.2536 56.893 34.0666 56.485C37.0416 56.383 40.5266 56.128 42.6176 55.669L43.7566 57.182C43.1106 57.301 42.4136 57.403 41.6486 57.505L43.5186 58.049C43.0596 58.797 42.5666 59.579 42.1246 60.242H43.7396V61.823H38.2996C38.2826 62.095 38.2656 62.35 38.2316 62.622H44.2326V64.254H38.0276C37.9766 64.475 37.9426 64.696 37.8916 64.917H41.9206L42.2436 64.866ZM48.6356 56.536L51.3556 56.57C51.2366 57.284 51.1516 58.134 51.1346 58.814C51.0496 60.616 50.9306 64.39 50.9306 66.481C50.9306 68.181 51.9506 68.725 53.2426 68.725C56.0306 68.725 57.7986 67.127 59.0056 65.291L60.5356 67.178C59.4476 68.776 57.0676 71.02 53.2256 71.02C50.4716 71.02 48.6866 69.813 48.6866 66.94C48.6866 64.679 48.8566 60.259 48.8566 58.814C48.8566 58.015 48.7886 57.199 48.6356 56.536ZM62.792 58.338C63.455 58.321 64.101 58.287 64.441 58.253C65.835 58.117 68.623 57.879 71.7 57.607C73.434 57.471 75.287 57.369 76.46 57.318L76.477 59.494C75.576 59.494 74.131 59.511 73.23 59.715C71.207 60.259 69.677 62.435 69.677 64.424C69.677 67.195 72.278 68.181 75.117 68.334L74.335 70.663C70.799 70.425 67.467 68.521 67.467 64.883C67.467 62.452 68.827 60.548 69.949 59.698C68.504 59.851 64.951 60.225 62.996 60.65L62.792 58.338ZM88.4574 56.043L90.4294 57.794C89.9024 58.185 89.3414 58.627 88.9504 58.933C87.8624 59.817 85.6354 61.534 84.5134 62.503C83.6124 63.268 83.6294 63.455 84.5474 64.237C85.8054 65.308 89.0524 67.875 90.7184 69.49L88.7634 71.292C88.2874 70.765 87.7604 70.238 87.2844 69.728C86.3664 68.759 83.7994 66.566 82.2524 65.257C80.5864 63.846 80.7224 62.911 82.4054 61.517C83.7144 60.446 86.0264 58.576 87.1654 57.454C87.6414 56.995 88.1854 56.434 88.4574 56.043ZM111.186 66.668L111.475 69.031C110.71 69.762 109.673 70.306 108.313 70.306C107.055 70.306 106.205 69.371 106.205 67.756C106.205 65.92 106.8 63.455 106.8 61.925C106.8 61.092 106.375 60.684 105.678 60.684C104.42 60.684 102.584 62.231 101.224 63.744C101.207 64.22 101.19 64.679 101.19 65.104C101.19 66.481 101.19 67.892 101.292 69.473C101.309 69.779 101.377 70.391 101.411 70.765H99.0994C99.1334 70.408 99.1504 69.796 99.1504 69.524C99.1844 68.215 99.1844 67.246 99.2184 65.818C98.4874 66.889 97.6714 68.13 97.0934 68.929L95.7674 67.059C96.7194 65.903 98.4194 63.659 99.3714 62.248L99.4394 61.075C98.6234 61.177 97.3314 61.347 96.3794 61.466L96.1754 59.307C96.6514 59.324 97.0424 59.324 97.6374 59.29C98.1304 59.256 98.8614 59.171 99.5754 59.069C99.6094 58.44 99.6434 57.964 99.6434 57.777C99.6434 57.301 99.6604 56.791 99.5754 56.281L102.04 56.349C101.938 56.825 101.802 57.692 101.666 58.746L102.295 59.545C102.074 59.834 101.717 60.378 101.428 60.82C101.428 60.939 101.411 61.058 101.394 61.177C102.72 60.021 104.658 58.678 106.29 58.678C108.092 58.678 108.942 59.749 108.942 61.16C108.942 62.911 108.381 65.376 108.381 67.127C108.381 67.569 108.602 67.858 109.027 67.858C109.639 67.858 110.438 67.433 111.186 66.668ZM120.332 68.98C120.689 68.98 121.012 68.963 121.318 68.929C121.216 67.841 120.587 67.127 119.669 67.127C119.04 67.127 118.632 67.501 118.632 67.926C118.632 68.555 119.346 68.98 120.332 68.98ZM124.038 56.842L125.126 58.338C124.718 58.593 124.327 58.848 123.953 59.103C123.052 59.732 121.284 61.228 120.23 62.078C120.791 61.925 121.267 61.891 121.811 61.891C124.667 61.891 126.843 63.676 126.843 66.124C126.843 68.776 124.82 70.884 120.757 70.884C118.411 70.884 116.643 69.813 116.643 68.13C116.643 66.77 117.884 65.512 119.669 65.512C121.743 65.512 123.001 66.787 123.256 68.385C124.174 67.892 124.633 67.11 124.633 66.09C124.633 64.577 123.103 63.557 121.148 63.557C118.564 63.557 116.881 64.934 115.079 66.974L113.549 65.393C114.739 64.424 116.762 62.707 117.765 61.891C118.7 61.109 120.451 59.698 121.284 58.967C120.417 58.984 118.105 59.086 117.221 59.154C116.762 59.171 116.235 59.222 115.844 59.29L115.776 57.097C116.252 57.148 116.83 57.182 117.306 57.182C118.19 57.182 121.794 57.097 122.746 57.012C123.443 56.961 123.834 56.893 124.038 56.842ZM134.34 56.366L136.839 56.621C136.737 57.063 136.618 57.59 136.533 58.015C136.448 58.525 136.312 59.137 136.193 59.749C136.754 59.715 137.264 59.681 137.604 59.681C139.389 59.681 140.647 60.48 140.647 62.894C140.647 64.883 140.409 67.569 139.695 69.031C139.134 70.204 138.199 70.578 136.924 70.578C136.278 70.578 135.479 70.476 134.918 70.34L134.544 68.113C135.19 68.3 136.159 68.47 136.601 68.47C137.162 68.47 137.604 68.3 137.859 67.739C138.335 66.804 138.556 64.798 138.556 63.132C138.556 61.789 137.978 61.602 136.907 61.602C136.635 61.602 136.227 61.636 135.751 61.67C135.105 64.22 133.881 68.181 132.334 70.663L130.124 69.779C131.773 67.569 132.912 64.203 133.524 61.908C132.929 61.976 132.402 62.044 132.079 62.095C131.603 62.146 130.736 62.265 130.209 62.35L130.022 60.072C130.634 60.123 131.195 60.089 131.807 60.072C132.334 60.055 133.133 60.004 133.983 59.936C134.221 58.644 134.357 57.42 134.34 56.366ZM140.613 59.052L142.653 58.202C143.673 59.647 145.084 62.86 145.594 64.458L143.469 65.461C143.027 63.591 141.82 60.548 140.613 59.052ZM151.153 58.406L151.697 56.366C153.295 56.859 156.95 57.505 158.429 57.675L157.919 59.749C156.219 59.528 152.462 58.746 151.153 58.406ZM151.799 59.749C151.578 60.684 151.289 62.707 151.17 63.676C152.7 62.571 154.366 62.078 156.117 62.078C159.075 62.078 160.792 63.897 160.792 65.937C160.792 69.014 158.361 71.377 151.357 70.765L150.711 68.555C155.76 69.269 158.429 68.028 158.429 65.886C158.429 64.798 157.392 63.999 155.913 63.999C154.009 63.999 152.326 64.696 151.272 65.971C150.966 66.345 150.779 66.617 150.643 66.957L148.688 66.464C149.011 64.815 149.419 61.534 149.521 59.443L151.799 59.749ZM169.139 69.609L167.32 71.173C166.283 69.898 164.855 68.436 163.665 67.416L165.433 65.886C166.64 66.872 168.272 68.555 169.139 69.609ZM36.255 88.526V91.127C36.255 92.062 36.833 92.402 38.193 92.402C39.723 92.402 41.219 92.3 42.579 92.164L42.426 94.459C41.321 94.527 39.4 94.595 37.802 94.595C34.691 94.595 33.926 93.524 33.926 91.807V88.526H31.155C30.679 88.526 29.812 88.577 29.302 88.611V86.384C29.778 86.418 30.628 86.469 31.155 86.469H33.926V83.579H32.073C31.461 83.579 30.917 83.596 30.424 83.63V81.505C30.917 81.539 31.461 81.59 32.073 81.59H40.25C40.828 81.59 41.389 81.556 41.78 81.505V83.63C41.338 83.613 40.862 83.579 40.25 83.579H36.255V86.469H41.389C41.746 86.469 42.596 86.435 43.038 86.401L43.055 88.577C42.579 88.526 41.814 88.526 41.44 88.526H36.255ZM54.411 85.959H58.695C59.052 85.959 59.868 85.891 60.242 85.857V88.05C59.783 88.016 59.205 87.982 58.746 87.982H54.343C54.088 90.838 52.864 93.252 49.991 94.969L47.832 93.507C50.416 92.317 51.776 90.498 52.099 87.982H47.424C46.897 87.982 46.268 88.016 45.826 88.05V85.857C46.285 85.908 46.863 85.959 47.39 85.959H52.184V83.545C50.552 83.681 48.767 83.732 47.628 83.766L47.101 81.794C48.393 81.828 51.028 81.794 52.898 81.522C54.598 81.284 56.332 80.893 57.182 80.502L58.576 82.372C57.998 82.508 57.556 82.627 57.267 82.695C56.434 82.916 55.431 83.103 54.411 83.256V85.959ZM73.553 82.219C74.029 82.933 74.777 84.157 75.151 84.939L73.621 85.602C73.128 84.531 72.703 83.715 72.074 82.831L73.553 82.219ZM75.831 81.284C76.324 81.964 77.089 83.171 77.48 83.936L76.001 84.65C75.457 83.579 74.998 82.797 74.369 81.947L75.831 81.284ZM62.112 89.172C62.622 88.747 62.996 88.39 63.506 87.88C64.288 87.098 65.614 85.432 66.77 84.038C67.79 82.831 68.708 82.712 70.102 83.885C71.241 84.854 72.516 86.197 73.57 87.336C74.709 88.577 76.528 90.515 77.752 91.926L75.933 93.898C74.845 92.504 73.298 90.617 72.295 89.444C71.241 88.186 69.796 86.605 69.167 86.078C68.572 85.568 68.283 85.568 67.79 86.18C67.127 87.03 65.903 88.713 65.206 89.648C64.815 90.175 64.407 90.787 64.118 91.229L62.112 89.172ZM87.544 92.606H94.735V94.646H79.282V92.606H85.368V79.805H87.544V84.667H93.545V86.724H87.544V92.606ZM112.16 81.59L110.817 82.185C110.46 81.471 109.916 80.468 109.44 79.839L110.783 79.278C111.242 79.924 111.871 80.995 112.16 81.59ZM100.736 80.485L103.235 80.74C103.133 81.182 103.031 81.709 102.946 82.134C102.844 82.644 102.708 83.256 102.589 83.868C103.15 83.834 103.66 83.8 104 83.8C105.785 83.8 107.043 84.599 107.043 87.013C107.043 89.002 106.805 91.688 106.091 93.15C105.53 94.323 104.612 94.697 103.32 94.697C102.691 94.697 101.875 94.595 101.314 94.459L100.94 92.232C101.586 92.419 102.572 92.589 103.014 92.589C103.575 92.589 104 92.419 104.272 91.858C104.731 90.923 104.952 88.917 104.952 87.251C104.952 85.908 104.374 85.721 103.32 85.721C103.048 85.721 102.64 85.755 102.164 85.789C101.501 88.339 100.277 92.3 98.73 94.782L96.537 93.898C98.169 91.688 99.325 88.322 99.92 86.027C99.325 86.095 98.798 86.163 98.475 86.214C97.999 86.265 97.132 86.384 96.605 86.469L96.418 84.191C97.03 84.242 97.591 84.208 98.203 84.191C98.73 84.174 99.529 84.123 100.379 84.055C100.617 82.763 100.753 81.539 100.736 80.485ZM110.137 82.372L109.27 82.746C110.256 84.293 111.514 87.132 112.007 88.611L109.865 89.614C109.423 87.744 108.233 84.769 107.026 83.273L108.59 82.61C108.25 81.964 107.825 81.148 107.434 80.604L108.777 80.043C109.202 80.672 109.797 81.743 110.137 82.372ZM120.847 92.98C121.204 92.98 121.527 92.963 121.833 92.929C121.731 91.841 121.102 91.127 120.184 91.127C119.555 91.127 119.147 91.501 119.147 91.926C119.147 92.555 119.861 92.98 120.847 92.98ZM124.553 80.842L125.641 82.338C125.233 82.593 124.842 82.848 124.468 83.103C123.567 83.732 121.799 85.228 120.745 86.078C121.306 85.925 121.782 85.891 122.326 85.891C125.182 85.891 127.358 87.676 127.358 90.124C127.358 92.776 125.335 94.884 121.272 94.884C118.926 94.884 117.158 93.813 117.158 92.13C117.158 90.77 118.399 89.512 120.184 89.512C122.258 89.512 123.516 90.787 123.771 92.385C124.689 91.892 125.148 91.11 125.148 90.09C125.148 88.577 123.618 87.557 121.663 87.557C119.079 87.557 117.396 88.934 115.594 90.974L114.064 89.393C115.254 88.424 117.277 86.707 118.28 85.891C119.215 85.109 120.966 83.698 121.799 82.967C120.932 82.984 118.62 83.086 117.736 83.154C117.277 83.171 116.75 83.222 116.359 83.29L116.291 81.097C116.767 81.148 117.345 81.182 117.821 81.182C118.705 81.182 122.309 81.097 123.261 81.012C123.958 80.961 124.349 80.893 124.553 80.842ZM140.414 92.47C141.213 92.47 141.74 91.96 142.08 91.11C141.519 90.855 140.941 90.702 140.38 90.702C139.666 90.702 139.054 91.008 139.054 91.552C139.054 92.232 139.666 92.47 140.414 92.47ZM135.943 84.82L135.926 84.99C137.286 83.8 139.122 82.559 140.822 82.559C143.236 82.559 144.647 84.565 144.647 87.625C144.647 88.594 144.596 89.512 144.46 90.311C145.123 90.787 145.684 91.331 146.194 91.875L145.106 93.626C144.715 93.15 144.307 92.725 143.865 92.334C143.253 93.626 142.216 94.374 140.533 94.374C138.663 94.374 137.218 93.541 137.218 91.637C137.218 90.124 138.51 89.002 140.55 89.002C141.247 89.002 141.893 89.104 142.488 89.308C142.539 88.747 142.573 88.118 142.573 87.472C142.573 85.67 141.74 84.48 140.448 84.48C138.935 84.48 137.116 85.993 135.756 87.506C135.722 88.067 135.705 88.611 135.705 89.104C135.705 90.481 135.705 91.892 135.807 93.473C135.824 93.779 135.892 94.391 135.926 94.765H133.614C133.648 94.408 133.665 93.796 133.665 93.524C133.699 92.215 133.699 91.246 133.733 89.818C133.019 90.889 132.186 92.113 131.608 92.929L130.282 91.059C131.234 89.903 132.934 87.659 133.886 86.248L133.954 85.075C133.138 85.177 131.846 85.347 130.894 85.466L130.69 83.307C131.166 83.324 131.557 83.324 132.152 83.29C132.645 83.256 133.376 83.171 134.09 83.069C134.124 82.44 134.158 81.964 134.158 81.777C134.158 81.301 134.175 80.791 134.09 80.281L136.555 80.349C136.453 80.825 136.317 81.692 136.181 82.746L136.81 83.545C136.589 83.834 136.232 84.378 135.943 84.82ZM154.133 89.631L153.521 83.817L153.453 81.284H156.564L156.479 83.817L155.884 89.631H154.133ZM155 94.153C153.997 94.153 153.232 93.473 153.232 92.487C153.232 91.518 153.997 90.804 155 90.804C156.003 90.804 156.768 91.518 156.768 92.487C156.768 93.473 156.003 94.153 155 94.153Z" fill="#202124"/>
</svg>
