<svg width="41" height="41" viewBox="0 0 41 41" fill="none" xmlns="http://www.w3.org/2000/svg">
<path d="M26.749 37.595H14.4806C11.6101 37.595 9.27881 35.368 9.27881 32.626V7.89727C9.27881 5.1603 11.6101 2.93335 14.4806 2.93335H26.749C29.6142 2.93335 31.9455 5.1603 31.9455 7.90232V32.631C31.9455 35.368 29.6142 37.6 26.749 37.6V37.595ZM14.4806 4.115C12.2973 4.115 10.5211 5.81172 10.5211 7.89727V32.626C10.5211 34.7115 12.2973 36.4083 14.4806 36.4083H26.749C28.9323 36.4083 30.7085 34.7115 30.7085 32.626V7.89727C30.7085 5.81172 28.9323 4.115 26.749 4.115H14.4806Z" fill="white"/>
<path d="M16.7376 33.6H20.0712H24.6121C25.0524 33.6 25.4046 33.3037 25.4046 32.9333C25.4046 32.563 25.0524 32.2667 24.6121 32.2667H16.7376C16.2974 32.2667 15.9452 32.563 15.9452 32.9333C15.9452 33.3037 16.2974 33.6 16.7376 33.6Z" fill="white"/>
</svg>
