<svg width="41" height="41" viewBox="0 0 41 41" fill="none" xmlns="http://www.w3.org/2000/svg">
<path d="M38.2286 8.26666C29.9427 8.26666 21.7012 8.26666 3.35591 8.26666C3.04345 8.26666 2.78613 8.52727 2.78613 8.84994V12.5109C2.78613 12.8274 3.04345 13.088 3.35591 13.088H4.07272V31.2314C4.07272 31.5479 4.33004 31.8085 4.6425 31.8085H36.9298C37.2422 31.8085 37.4995 31.5479 37.4995 31.2314V13.088H38.2164C38.5288 13.088 38.7861 12.8274 38.7861 12.5109V8.84994C38.7861 8.53348 38.5288 8.27287 38.2164 8.27287L38.2286 8.26666ZM5.2184 13.088H7.69968V30.6544H5.2184V13.088ZM8.83923 30.6544V13.088H16.4914V30.6544H8.83923ZM36.3661 27.3657H30.4968V16.5131H36.3661V27.3657ZM29.3573 27.3657H24.4866V16.5131H29.3573V27.3657ZM23.3471 27.3657H17.6371V16.5131H23.3471V27.3657ZM17.6309 30.6544V28.5198H36.3661V30.6544H17.6309ZM36.3661 15.3528H17.6309V13.088H36.3661V15.3528Z" fill="white"/>
</svg>
