<svg width="60" height="60" viewBox="0 0 60 60" fill="none" xmlns="http://www.w3.org/2000/svg">
<g clip-path="url(#clip0_44_2150)">
<path d="M44.9999 56.9995L43.8476 50.4995M30.4999 40.9995L36.9999 41.9995L38.9999 43.8732M30.4999 40.9995L32.9999 32.4995L30.3461 25.9995M30.4999 40.9995L25.9999 35.4995L22.4999 38.9995M38.9999 43.8732L43.4044 47.9995L43.8476 50.4995M38.9999 43.8732L38.4999 32.4995L46.4999 33.9995L38.8736 40.9995M43.8476 50.4995L35.9999 50.8787M22.9999 48.4995L30.3461 47.9995L33.4999 50.9995L35.9999 50.8787M37.4999 57.4995L35.9999 50.8787M17.3857 1.14355H43.4044C45.2521 1.14355 46.75 2.63916 46.75 4.48408V55.5164C46.75 57.3613 45.2521 58.8569 43.4044 58.8569H17.3857C15.538 58.8569 14.0401 57.3613 14.0401 55.5164V4.48408C14.0401 2.63916 15.538 1.14355 17.3857 1.14355Z" stroke="#CC0033" stroke-width="3" stroke-linecap="round" stroke-linejoin="round"/>
<path d="M22.389 1.25L24.6083 6.25H36.4444L38.6637 1.71666" stroke="#CC0033" stroke-width="3" stroke-linecap="round" stroke-linejoin="round"/>
</g>
<defs>
<clipPath id="clip0_44_2150">
<rect width="35" height="60" fill="white" transform="translate(12.8952)"/>
</clipPath>
</defs>
</svg>
