<svg width="148" height="52" viewBox="0 0 148 52" fill="none" xmlns="http://www.w3.org/2000/svg">
<path d="M49.6401 41.58C49.6401 47.24 53.7201 51.68 60.1801 51.68H66.1401V46.32H60.7201C57.2601 46.32 55.3401 44.26 55.3401 41.58C55.3401 38.9 57.2601 36.84 60.7201 36.84H66.1401V31.48H60.1801C53.7201 31.48 49.6401 35.92 49.6401 41.58Z" fill="#CC0033"/>
<path d="M114.98 31.24C112.8 31.24 110.76 31.68 108.12 33.46C105.48 31.68 103.44 31.24 101.26 31.24C96.4 31.24 93.02 34.58 93.02 39.38V51.68H98.72V39.66C98.72 37.6 99.98 36.58 102.04 36.58C104.22 36.58 105.28 37.66 105.28 39.4V51.66H110.98V39.4C110.98 37.66 112.06 36.58 114.22 36.58C116.28 36.58 117.52 37.6 117.52 39.66V51.68H123.22V39.38C123.22 34.58 119.82 31.24 114.98 31.24Z" fill="#CC0033"/>
<path d="M136.92 31.24C130.16 31.24 126.32 36.52 126.32 41.6C126.32 46.68 130.14 51.94 136.92 51.94C143.7 51.94 147.5 46.66 147.5 41.6C147.5 36.54 143.68 31.24 136.92 31.24ZM136.9 46.58C133.72 46.58 132.02 44.1 132.02 41.58C132.02 39.06 133.74 36.58 136.9 36.58C140.06 36.58 141.8 39.06 141.8 41.58C141.8 44.1 140.08 46.58 136.9 46.58Z" fill="#CC0033"/>
<path d="M16.9 22.36V32.52C15.52 31.72 13.88 31.24 11.96 31.24C5.12 31.24 1.5 36.56 1.5 41.6C1.5 46.62 5.14 51.94 11.96 51.94C17.1 51.94 19.02 49.46 22.6 47.82V22.38H16.9V22.36ZM7.2 41.58C7.2 39.06 8.92 36.58 12.08 36.58C15.24 36.58 16.92 38.96 16.96 41.44V41.7C16.9 44.2 15.24 46.56 12.08 46.56C8.9 46.56 7.2 44.08 7.2 41.56" fill="#CC0033"/>
<path d="M39.5 22.36V23.74H37.5V28.76H36.02V23.74H34.02V22.36H39.5Z" fill="#CC0033"/>
<path d="M46.0801 22.36V23.74H44.0801V28.76H42.6001V23.74H40.6001V22.36H46.0801Z" fill="#CC0033"/>
<path d="M28.4399 22.36L31.3599 26.46V22.36H32.7599V28.76H31.2199L28.3199 24.66V28.76H26.8999V22.36H28.4399Z" fill="#CC0033"/>
<path d="M36.3998 31.24C29.6398 31.24 25.7998 36.52 25.7998 41.6C25.7998 46.68 29.6198 51.94 36.3998 51.94C43.1598 51.94 46.9798 46.66 46.9798 41.6C46.9798 36.52 43.1598 31.24 36.3998 31.24ZM36.3998 46.58C33.2198 46.58 31.5198 44.1 31.5198 41.58C31.5198 39.06 33.2398 36.58 36.3998 36.58C39.5598 36.58 41.2998 39.06 41.2998 41.58C41.2998 44.1 39.5798 46.58 36.3998 46.58Z" fill="#CC0033"/>
<path d="M79.3598 31.24C72.5998 31.24 68.7598 36.52 68.7598 41.6C68.7598 46.68 72.5798 51.94 79.3598 51.94C86.1398 51.94 89.9398 46.66 89.9398 41.6C89.9398 36.52 86.1198 31.24 79.3598 31.24ZM79.3598 46.58C76.1798 46.58 74.4598 44.1 74.4598 41.58C74.4598 39.06 76.1798 36.58 79.3598 36.58C82.5398 36.58 84.2598 39.06 84.2598 41.58C84.2598 44.1 82.5398 46.58 79.3598 46.58Z" fill="#CC0033"/>
<path d="M145.34 7.04C144.28 7.04 143.68 7.86 143.68 8.66C143.68 9.46 144.28 10.28 145.34 10.28C146.4 10.28 147 9.44 147 8.66C147 7.88 146.4 7.04 145.34 7.04ZM145.34 9.44C144.84 9.44 144.58 9.06 144.58 8.66C144.58 8.26 144.84 7.88 145.34 7.88C145.84 7.88 146.1 8.26 146.1 8.66C146.1 9.06 145.84 9.44 145.34 9.44Z" fill="black"/>
<path d="M9.7 3.02C9.12 2.48 8.3 2.18 7.34 2.18C6.56 2.18 5.54 2.38 4.62 2.56C3.44 2.78 2.46 2.98 1.5 3.18L1.88 4.52C1.88 4.52 1.88 4.52 1.9 4.52H1.92C2.88 4.28 3.86 4.04 4.96 3.8C5.88 3.6 6.62 3.48 7.26 3.48C8.34 3.48 9.02 4.14 9.02 5.18C9.02 6.58 7.38 7.54 4.42 7.88C4.42 7.88 4.42 7.88 4.42 7.9L5.22 9.18C8.7 8.66 10.54 7.24 10.54 5.1C10.54 4.22 10.24 3.48 9.68 2.94L9.7 3.02Z" fill="black"/>
<path d="M23.7202 5.2L24.4602 4.18V4.16C23.6802 3.42 22.8802 2.94 21.8002 2.52H21.7802L21.2002 3.54C22.2202 3.98 22.8802 4.4 23.7002 5.16L23.7202 5.2Z" fill="black"/>
<path d="M21.62 6.86C21.6 6.56 21.58 6.24 21.58 5.96C21.58 5.62 21.62 5.34 21.86 4.9V4.88L20.7 4.22H20.68C20.28 4.84 20.22 5.44 20.22 5.76C20.22 5.96 20.24 6.3 20.26 6.6C19.98 6.56 19.76 6.54 19.56 6.54C18.36 6.54 17.48 7.22 17.48 8.18C17.48 9.24 18.38 9.96 19.66 9.96C20.94 9.96 21.68 9.26 21.68 8.18C22.2 8.42 22.76 8.76 23.3 9.16L23.94 8V7.98C23.24 7.54 22.4 7.14 21.6 6.86H21.62ZM20.36 7.82V8.14C20.36 8.52 20.1 8.74 19.66 8.74C19.2 8.74 18.88 8.54 18.88 8.24C18.88 7.94 19.22 7.76 19.72 7.76C19.92 7.76 20.12 7.78 20.36 7.84V7.82Z" fill="black"/>
<path d="M21.0002 2.96C21.0002 2.96 21.0002 2.96 21.0002 2.94L20.7602 1.68C20.2802 1.8 19.7002 1.9 19.1002 2C19.2202 1.6 19.3602 1.18 19.4802 0.759999L18.1402 0.459999H18.1202C17.9802 1.06 17.8202 1.64 17.6602 2.2C16.8402 2.28 15.9802 2.32 15.2402 2.34L15.4002 3.6C15.4002 3.6 15.4002 3.6 15.4202 3.6C15.8402 3.6 16.4402 3.56 17.2202 3.5C16.7402 4.74 16.1202 5.9 15.2402 7.18L16.4602 7.88C17.4402 6.24 18.1002 4.88 18.6402 3.34C19.5602 3.22 20.4202 3.1 20.9802 2.98L21.0002 2.96Z" fill="black"/>
<path d="M29.5799 3.2C30.0399 3.2 31.2199 3.2 32.4599 3.16C32.0999 3.42 31.7799 3.66 31.4599 3.92L32.5799 4.44C33.2799 3.82 33.6399 3.5 34.2199 3.22C34.5799 3.04 34.7399 3.02 35.1599 2.98L34.9199 1.68C34.9199 1.68 34.9199 1.68 34.8999 1.68C33.3399 1.88 31.5599 1.94 29.4399 1.86L29.5199 3.18C29.5199 3.18 29.5199 3.2 29.5399 3.2H29.5799Z" fill="black"/>
<path d="M36.28 7.74C35.22 8 33.92 8.16 32.72 8.16C31.12 8.16 30.38 7.86 30.38 7.2C30.38 6.78 30.68 6.32 31.2 5.94L30.04 5.3C30.04 5.3 30.04 5.3 30.02 5.3C29.34 5.96 28.98 6.64 28.98 7.32C28.98 8.78 30.32 9.56 32.86 9.56C34.22 9.56 35.52 9.44 36.62 9.18L36.3 7.8L36.28 7.74Z" fill="black"/>
<path d="M37.0402 0.479999C37.0402 0.479999 37.0402 0.479999 37.0202 0.479999L36.2402 0.859999C36.6002 1.38 36.8202 1.82 37.0802 2.56L37.8602 2.18C37.8602 2.18 37.8602 2.18 37.8602 2.16C37.6202 1.48 37.4202 1.02 37.0202 0.459999L37.0402 0.479999Z" fill="black"/>
<path d="M35.76 0.799999L35 1.16C35.36 1.7 35.58 2.18 35.82 2.9L36.64 2.5C36.64 2.5 36.64 2.5 36.64 2.48C36.36 1.78 36.16 1.34 35.78 0.779999C35.78 0.779999 35.78 0.779999 35.76 0.779999V0.799999Z" fill="black"/>
<path d="M43.0801 1.42C44.1801 1.62 45.3601 1.86 46.5001 2.4L47.0401 1.2C45.8401 0.680002 44.7801 0.440002 43.5601 0.260002H43.5401L43.0601 1.42H43.0801Z" fill="black"/>
<path d="M45.6 2.7C45.08 2.7 44.38 2.8 43.44 3.04C42.86 3.18 42.02 3.38 41.46 3.52L41.86 4.84C41.86 4.84 41.86 4.84 41.88 4.84C42.04 4.8 42.22 4.74 42.4 4.68C42.88 4.54 43.44 4.38 43.88 4.26C44.78 4.02 45.1 3.98 45.46 3.98C45.94 3.98 46.72 4.16 46.72 5.3C46.72 6.02 46.42 6.76 45.88 7.34C45.3 7.94 44.5 8.42 43.32 8.82C43.32 8.82 43.32 8.82 43.32 8.84L44.42 9.82C45.64 9.36 46.52 8.78 47.16 7.98C47.88 7.12 48.22 6.16 48.22 5.08C48.22 3.6 47.16 2.62 45.6 2.62V2.7Z" fill="black"/>
<path d="M60.96 8.72L59.8 8.4H59.78C59.6 8.96 59.3 9.48 58.98 9.9L60.18 10.5C60.48 10.04 60.74 9.44 60.96 8.72Z" fill="black"/>
<path d="M62.5599 8.54L61.3999 8.7C61.5399 9.24 61.6399 9.82 61.6799 10.34L62.9399 10.08C62.9399 10.08 62.9399 10.08 62.9399 10.06C62.8399 9.44 62.7199 8.96 62.5599 8.52C62.5599 8.52 62.5599 8.52 62.5399 8.52L62.5599 8.54Z" fill="black"/>
<path d="M68.2201 5.48C68.2201 5.48 68.2401 5.48 68.2401 5.46V4.8C68.2401 4.8 68.4401 4.88 68.5401 4.92C68.5401 4.92 68.5401 4.92 68.5601 4.92L69.2001 4.02C69.2001 4.02 69.2001 4.02 69.2001 4C68.5601 3.84 67.9401 3.6 67.4801 3.36C67.7801 2.98 68.0201 2.56 68.2201 2.02H68.8801C68.8801 2.02 68.9001 2.02 68.9001 2V1.12C68.9001 1.12 68.9001 1.1 68.8801 1.1H66.3401C66.3801 0.960003 66.4801 0.640003 66.5201 0.500003L65.5001 0.300003H65.4801C65.3201 1.08 64.9601 1.86 64.5201 2.42V2.16H64.5401H61.0601C61.0601 2.16 61.1001 2.04 61.1201 2H61.5001C61.5001 2 61.5201 2 61.5201 1.98V1.62H62.4201V1.98C62.4201 1.98 62.4201 2 62.4401 2H63.4401C63.4401 2 63.4601 2 63.4601 1.98V1.62H64.7001C64.7001 1.62 64.7201 1.62 64.7201 1.6V0.920003C64.7201 0.920003 64.7201 0.900003 64.7001 0.900003H63.4601V0.400003C63.4601 0.400003 63.4601 0.380003 63.4401 0.380003H62.4401C62.4401 0.380003 62.4201 0.380003 62.4201 0.400003V0.900003H61.5201V0.400003C61.5201 0.400003 61.5201 0.380003 61.5001 0.380003H60.5001C60.5001 0.380003 60.4801 0.380003 60.4801 0.400003V0.900003H59.2601C59.2601 0.900003 59.2401 0.900003 59.2401 0.920003V1.6C59.2401 1.6 59.2401 1.62 59.2601 1.62H60.4801V1.78L60.1401 1.72H60.1201C59.9801 2.26 59.6201 2.8 59.0601 3.28V3.3L59.6601 4.12C59.8401 3.96 60.0201 3.76 60.1801 3.58V4.44C60.1801 4.44 60.1801 4.46 60.2001 4.46H62.4601L62.5401 4.78H60.2401C60.2401 4.78 60.2201 4.78 60.2201 4.8V8.26C60.2201 8.26 60.2201 8.28 60.2401 8.28H66.3001L65.3201 8.56C65.3201 8.56 65.3201 8.56 65.3201 8.58C65.5601 8.9 65.7601 9.34 65.9601 9.92L66.5001 9.72L66.6001 10.18C66.9001 10.24 67.2801 10.26 67.6401 10.26C68.5401 10.26 68.7801 9.78 68.9401 7.54H64.8401V7.2H67.9001C67.9001 7.2 67.9201 7.2 67.9201 7.18V6.7C67.9201 6.7 67.9201 6.68 67.9001 6.68H64.8401V6.32H67.9001C67.9001 6.32 67.9201 6.32 67.9201 6.3V5.82C67.9201 5.82 67.9201 5.8 67.9001 5.8H64.8401V5.46H68.2601L68.2201 5.48ZM67.1601 9.34C67.1601 9.34 67.0401 9.34 66.9601 9.34C66.7601 8.88 66.6001 8.6 66.3601 8.28H67.6401C67.5201 9.28 67.4801 9.34 67.1601 9.34ZM62.0001 3.54V3.88H61.0201V3.54H62.0001ZM65.9401 2H67.1201C67.0201 2.3 66.8601 2.56 66.6801 2.8C66.3801 2.58 66.0801 2.26 65.9401 2ZM64.3001 4.04L64.7801 4.78H63.8801C64.2001 4.58 64.3201 4.14 64.4601 2.82L64.9001 3.4C65.0801 3.24 65.2401 3.06 65.4001 2.84C65.5601 3.06 65.7601 3.28 65.9401 3.44C65.4801 3.74 64.9401 3.92 64.2801 4C64.2801 4 64.2801 4 64.2801 4.02L64.3001 4.04ZM60.6801 2.76H63.4001C63.3201 3.52 63.2601 3.78 63.2201 3.9C63.1601 4.1 63.0801 4.14 62.9401 4.14H62.8601V3.04C62.8601 3.04 62.8601 3.02 62.8401 3.02H60.5201C60.5201 3.02 60.6401 2.82 60.6801 2.76ZM63.6001 7.24V7.58H61.3601V7.24H63.6001ZM61.3801 5.82V5.48H63.6201V5.82H61.3801ZM61.3801 6.7V6.34H63.6201V6.7H61.3801ZM65.3601 4.78C65.9001 4.6 66.4001 4.36 66.7401 4.06C67.1201 4.3 67.6201 4.56 68.1801 4.78H65.3601Z" fill="black"/>
<path d="M64.3798 8.38L63.3198 8.66C63.5598 9.08 63.7398 9.6 63.8398 10.12L65.0198 9.78C65.0198 9.78 65.0198 9.78 65.0198 9.76C64.8798 9.24 64.6798 8.82 64.3798 8.36C64.3798 8.36 64.3798 8.36 64.3598 8.36L64.3798 8.38Z" fill="black"/>
<path d="M81.7402 3.14C81.1602 3.34 80.3602 3.52 79.3202 3.66C79.1802 3.36 79.0802 3.08 78.9802 2.82C79.8802 2.68 80.5602 2.54 81.0802 2.38C81.0802 2.38 81.0802 2.38 81.0802 2.36L80.7602 1.2C80.2002 1.38 79.4602 1.54 78.6202 1.64C78.5002 1.2 78.4002 0.819999 78.3602 0.459999L77.0402 0.719999C77.0802 0.839999 77.1002 0.959999 77.1402 1.08C77.2002 1.32 77.2801 1.56 77.3401 1.78C76.5201 1.86 75.6002 1.88 74.7202 1.86L74.8602 3.08C74.8602 3.08 74.8601 3.08 74.8801 3.08C75.6801 3.08 76.7002 3.04 77.7802 2.94C77.9002 3.24 78.0002 3.52 78.1202 3.78C76.7002 3.92 75.3402 3.96 74.1602 3.92L74.2802 5.2C74.2802 5.2 74.2802 5.22 74.3002 5.22C75.1602 5.22 76.8802 5.16 78.7202 4.96C78.9402 5.36 79.1401 5.66 79.3401 5.94C78.9201 5.84 78.5002 5.8 78.0802 5.8C76.2402 5.8 74.9602 6.6 74.9602 7.76C74.9602 9.16 76.2802 9.92 78.6802 9.92C79.2602 9.92 80.1802 9.88 80.7602 9.8L80.5802 8.5C80.0602 8.6 79.3202 8.66 78.7402 8.66C77.2202 8.66 76.3801 8.34 76.3801 7.76C76.3801 7.34 76.9802 6.9 78.1602 6.9C78.6602 6.9 79.1202 6.96 79.5602 7.08C80.0402 7.22 80.3802 7.38 80.8202 7.66H80.8401L81.6202 6.66C81.0802 6.26 80.5602 5.64 80.0602 4.84C80.9402 4.72 81.6602 4.56 82.2402 4.38L81.8602 3.18L81.7402 3.14Z" fill="black"/>
<path d="M115.62 3.36H111.3V2.58H114.68C114.68 2.58 114.7 2.58 114.7 2.56V1.58C114.7 1.58 114.7 1.56 114.68 1.56H111.3V0.359996C111.3 0.359996 111.3 0.339996 111.28 0.339996H110.04C110.04 0.339996 110.02 0.339996 110.02 0.359996V1.54H106.7C106.7 1.54 106.68 1.54 106.68 1.56V2.54C106.68 2.54 106.68 2.56 106.7 2.56H110.02V3.34H105.76C105.76 3.34 105.74 3.34 105.74 3.36V4.36C105.74 4.36 105.74 4.38 105.76 4.38H107.9C108.14 4.82 108.24 5.06 108.42 5.48H106.04C106.04 5.48 106.02 5.48 106.02 5.5V6.48C106.02 6.48 106.02 6.5 106.04 6.5H110.02V7.32H106.38C106.38 7.32 106.36 7.32 106.36 7.34V8.34C106.36 8.34 106.36 8.36 106.38 8.36H110.02V10.16C110.02 10.16 110.02 10.18 110.04 10.18H111.28C111.28 10.18 111.3 10.18 111.3 10.16V8.36H115.02C115.02 8.36 115.04 8.36 115.04 8.34V7.34C115.04 7.34 115.04 7.32 115.02 7.32H111.3V6.5H115.34C115.34 6.5 115.36 6.5 115.36 6.48V5.5C115.36 5.5 115.36 5.48 115.34 5.48H112.78C113 5.18 113.18 4.84 113.4 4.38H115.6C115.6 4.38 115.62 4.38 115.62 4.36V3.36C115.62 3.36 115.62 3.34 115.6 3.34L115.62 3.36ZM109.26 4.42H112.02C111.88 4.76 111.66 5.16 111.44 5.52H109.74C109.62 5.22 109.56 5.02 109.26 4.42Z" fill="black"/>
<path d="M129.66 2.9C129.04 2.98 128.36 3.04 127.54 3.1C127.54 2.22 127.54 1.22 127.54 0.660004L126.18 0.700004C126.22 1.44 126.24 2.3 126.24 3.22C125.38 3.28 124.44 3.34 123.52 3.4C123.52 2.66 123.56 1.92 123.58 1.3H122.22C122.22 1.64 122.22 2.32 122.22 3.1V3.46C121.58 3.48 120.98 3.5 120.4 3.52H120.1L120.2 4.82C120.2 4.82 120.2 4.84 120.22 4.84C120.8 4.82 121.4 4.78 122.04 4.74H122.18C122.18 5.28 122.18 5.78 122.18 6.2C122.18 6.48 122.18 6.72 122.18 6.88C122.18 8.86 123.14 9.6 125.7 9.6C126.82 9.6 127.66 9.54 128.62 9.4L128.42 8.02C127.32 8.2 126.64 8.28 125.78 8.28C124.12 8.28 123.56 8.06 123.56 6.7C123.56 6.04 123.56 5.38 123.56 4.7C124.46 4.64 125.38 4.58 126.28 4.52C126.26 5.72 126.16 6.02 125.84 6.02C125.56 6.02 125.16 5.94 124.74 5.8C124.74 5.8 124.74 5.8 124.72 5.8V7.06C124.72 7.06 124.72 7.06 124.72 7.08C125.2 7.22 125.8 7.28 126.32 7.28C127.46 7.28 127.54 6.64 127.6 4.4L129.84 4.24L129.74 2.94L129.66 2.9Z" fill="black"/>
<path d="M141.68 3.78C141.68 3.78 141.68 3.78 141.66 3.78C140.96 4.06 140.18 4.38 139.3 4.76C139.04 4.08 138.46 3.72 137.66 3.72C137.4 3.72 137.1 3.78 136.82 3.88C136.98 3.64 137.12 3.4 137.26 3.12C138.52 3.02 139.68 2.88 140.58 2.72C140.58 2.72 140.58 2.72 140.58 2.7L140.42 1.42C139.62 1.58 138.78 1.72 137.92 1.82C138.06 1.48 138.2 1.12 138.32 0.799998L137.04 0.419998H137.02C136.82 1.04 136.66 1.54 136.48 1.98C135.64 2.04 134.78 2.06 133.9 2.06L134.02 3.36C134.02 3.36 134.02 3.38 134.04 3.38C134.62 3.36 135.24 3.32 135.88 3.28C135.3 4.34 134.64 5.2 133.78 5.96L134.84 6.74C134.84 6.74 134.86 6.74 134.88 6.74C135.32 6.16 135.56 5.88 136 5.5C136.48 5.08 136.98 4.86 137.44 4.86C137.78 4.86 138 5 138.12 5.28C136.8 5.92 135.46 6.74 135.46 7.96C135.46 9.18 136.48 9.76 138.5 9.76C139.48 9.76 140.58 9.68 141.52 9.56L141.28 8.2C140.4 8.38 139.26 8.5 138.44 8.5C137.4 8.5 136.86 8.28 136.86 7.86C136.86 7.46 137.34 7.04 138.3 6.54V6.68C138.3 7.04 138.26 7.5 138.24 7.9H139.54C139.54 7.9 139.56 7.9 139.56 7.88C139.58 7.52 139.58 7.24 139.58 6.82C139.58 6.54 139.58 6.28 139.54 6.02C140.32 5.7 141.2 5.4 142.18 5.08L141.68 3.86V3.78Z" fill="black"/>
<path d="M98.4198 7.04C97.3598 7.04 96.7598 7.86 96.7598 8.66C96.7598 9.46 97.3598 10.28 98.4198 10.28C99.4798 10.28 100.08 9.44 100.08 8.66C100.08 7.88 99.4798 7.04 98.4198 7.04ZM98.4198 9.44C97.9198 9.44 97.6598 9.06 97.6598 8.66C97.6598 8.26 97.9198 7.88 98.4198 7.88C98.9198 7.88 99.1798 8.26 99.1798 8.66C99.1798 9.06 98.9198 9.44 98.4198 9.44Z" fill="black"/>
<path d="M51.3602 7.04C50.3002 7.04 49.7002 7.86 49.7002 8.66C49.7002 9.46 50.3002 10.28 51.3602 10.28C52.4202 10.28 53.0202 9.44 53.0202 8.66C53.0202 7.88 52.4202 7.04 51.3602 7.04ZM51.3602 9.44C50.8602 9.44 50.6002 9.06 50.6002 8.66C50.6002 8.26 50.8602 7.88 51.3602 7.88C51.8602 7.88 52.1202 8.26 52.1202 8.66C52.1202 9.06 51.8602 9.44 51.3602 9.44Z" fill="black"/>
<path d="M94.7599 3.78C94.7599 3.78 94.7599 3.78 94.7399 3.78C94.0199 4.06 93.2799 4.38 92.3799 4.76C92.1199 4.08 91.5399 3.72 90.7399 3.72C90.4799 3.72 90.1799 3.78 89.8999 3.88C90.0599 3.64 90.1999 3.4 90.3399 3.12C91.5999 3.02 92.7599 2.88 93.6599 2.72C93.6599 2.72 93.6599 2.72 93.6599 2.7L93.4999 1.42C92.6999 1.58 91.8599 1.72 90.9999 1.82C91.1399 1.48 91.2799 1.12 91.3999 0.799998L90.1199 0.419998H90.0999C89.8999 1.04 89.7399 1.54 89.5599 1.98C88.7199 2.04 87.8599 2.06 86.9799 2.06L87.0999 3.36C87.0999 3.36 87.0999 3.38 87.1199 3.38C87.6999 3.36 88.3199 3.32 88.9599 3.28C88.3799 4.34 87.7199 5.2 86.8599 5.96L87.9199 6.74C87.9199 6.74 87.9399 6.74 87.9599 6.74C88.3999 6.16 88.6399 5.88 89.0799 5.5C89.5599 5.08 90.0599 4.86 90.5199 4.86C90.8599 4.86 91.0799 5 91.1999 5.28C89.8799 5.92 88.5399 6.74 88.5399 7.96C88.5399 9.18 89.5599 9.76 91.5799 9.76C92.5599 9.76 93.6599 9.68 94.5999 9.56L94.3599 8.2C93.4799 8.38 92.3399 8.5 91.5199 8.5C90.4799 8.5 89.9399 8.28 89.9399 7.86C89.9399 7.46 90.4199 7.04 91.3799 6.54V6.68C91.3799 7.04 91.3399 7.5 91.3199 7.9H92.6199C92.6199 7.9 92.6399 7.9 92.6399 7.88C92.6599 7.52 92.6599 7.24 92.6599 6.82C92.6599 6.54 92.6599 6.28 92.6199 6.02C93.3999 5.7 94.2799 5.4 95.2599 5.08L94.7599 3.86V3.78Z" fill="black"/>
</svg>
