<svg width="138" height="138" viewBox="0 0 138 138" fill="none" xmlns="http://www.w3.org/2000/svg">
<path d="M62.0551 31.3858C60.7641 28.7673 59.0067 26.832 56.7791 25.5812C54.5492 24.3258 51.7414 23.7009 48.3524 23.7009H37.0265C36.0692 23.7009 35.4328 23.8408 35.1198 24.1148C34.808 24.3934 34.6499 24.9563 34.6499 25.8023V60.9646C34.6499 61.8152 34.8069 62.3726 35.1198 62.6523C35.4328 62.9264 36.0692 63.066 37.0265 63.066H49.7327C55.738 63.066 59.8447 60.5061 62.0551 55.3814C62.5698 54.2028 62.9298 53.015 63.1316 51.8135C63.3345 50.6166 63.4354 49.0963 63.4354 47.255V39.7904C63.4354 37.6889 63.3345 36.029 63.1316 34.8137C62.9298 33.5939 62.5698 32.4566 62.0551 31.3858ZM54.1525 47.3628C54.1525 48.875 54.0516 50.1386 53.8487 51.151C53.6458 52.1633 53.3155 52.9864 52.8546 53.6124C52.3937 54.2372 51.7873 54.6786 51.0318 54.94C50.2762 55.1968 49.3453 55.3262 48.2413 55.3262H43.7115V31.4395H48.2413C50.3416 31.4395 51.8492 32.0609 52.7709 33.2933C53.6904 34.5258 54.1513 36.5643 54.1513 39.403V47.3628H54.1525ZM61.3821 106.005H45.8508L62.2064 83.0089C62.4632 82.6398 62.6306 82.3429 62.7051 82.1228C62.7797 81.9027 62.8151 81.6458 62.8151 81.3489V76.9259C62.8151 76.0798 62.6569 75.5181 62.3439 75.2383C62.0298 74.9643 61.3913 74.8244 60.4305 74.8244H36.8155C35.9648 74.8244 35.4123 74.9814 35.1532 75.2921C34.8941 75.6074 34.7645 76.2598 34.7645 77.2584V80.5738C34.7645 81.5678 34.8941 82.2249 35.1532 82.5356C35.4123 82.8509 35.9648 83.0078 36.8155 83.0078H51.3941L35.262 106.004C34.8539 106.521 34.651 107.039 34.651 107.551V112.087C34.651 112.938 34.8092 113.495 35.1222 113.774C35.4352 114.048 36.0737 114.188 37.0356 114.188H61.3833C62.234 114.188 62.7888 114.031 63.0479 113.721C63.3047 113.405 63.4354 112.753 63.4354 111.754V108.439C63.4354 107.445 63.3047 106.792 63.0479 106.477C62.7888 106.162 62.234 106.005 61.3833 106.005H61.3821ZM137.75 0.194824H0.25V61.0001L8.19385 68.9442L0.25 76.8881V137.693H137.75V76.8881L129.806 68.9442L137.75 61.0001V0.194824ZM119.592 71.495L129.132 81.0348V129.077H8.86911V81.0267L18.3986 71.4972C19.8076 70.0882 19.8076 67.8045 18.3986 66.3955L8.86911 56.866V8.81631H129.132V56.8556L119.592 66.3955C118.183 67.8045 118.183 70.0882 119.592 71.4983V71.495ZM101.242 74.8244H97.5383C96.581 74.8244 95.9448 74.9643 95.6318 75.2383C95.3188 75.5169 95.1641 76.0798 95.1641 76.9259V97.7664L84.2244 76.8707C83.7819 75.9845 83.3473 75.4217 82.9254 75.1832C82.5012 74.9447 81.7561 74.8233 80.6887 74.8233H77.2619C76.3046 74.8233 75.6682 74.9632 75.3552 75.2372C75.0423 75.5158 74.8853 76.0787 74.8853 76.9248V112.087C74.8853 112.938 75.032 113.495 75.3278 113.774C75.6225 114.048 76.2472 114.188 77.2057 114.188H80.965C81.92 114.188 82.5563 114.048 82.8693 113.774C83.1823 113.496 83.3394 112.938 83.3394 112.087V91.1868L94.279 112.141C94.7216 113.027 95.1537 113.59 95.5779 113.828C96.001 114.072 96.7474 114.188 97.8147 114.188H101.242C102.199 114.188 102.833 114.048 103.148 113.774C103.46 113.496 103.618 112.938 103.618 112.087V76.9248C103.618 76.0787 103.461 75.517 103.148 75.2372C102.833 74.9632 102.199 74.8244 101.242 74.8244ZM106.938 60.6894L95.3348 25.5812C95.0769 24.8074 94.7823 24.2982 94.4521 24.0597C94.1197 23.8212 93.5842 23.6997 92.8493 23.6997H86.4394C85.7023 23.6997 85.16 23.8306 84.8092 24.0874C84.4583 24.3442 84.1728 24.8429 83.9527 25.5812L72.2404 60.6894C72.0925 60.874 72.0202 61.2388 72.0202 61.7925C72.0202 62.6432 72.535 63.066 73.5668 63.066H78.3728C78.8154 63.066 79.173 63.0478 79.4493 63.0123C79.7256 62.9768 79.9457 62.8817 80.1131 62.7338C80.2794 62.5893 80.425 62.3645 80.5556 62.0721C80.6841 61.7752 80.8206 61.3889 80.9696 60.9108L82.7925 54.7737H95.9975L97.8743 60.7986C98.0222 61.3156 98.169 61.7214 98.3169 62.0184C98.4625 62.3107 98.6298 62.5399 98.8144 62.7061C98.999 62.8723 99.2191 62.9756 99.4771 63.0123C99.7327 63.0478 100.066 63.066 100.471 63.066H105.611C106.64 63.066 107.157 62.6432 107.157 61.7925C107.157 61.5357 107.148 61.3602 107.131 61.2708C107.11 61.1756 107.047 60.9818 106.938 60.6894ZM84.8928 47.6953L89.3125 32.82L93.8421 47.6953H84.8928Z" fill="#0C161C"/>
</svg>
