<svg width="304" height="92" viewBox="0 0 304 92" fill="none" xmlns="http://www.w3.org/2000/svg">
<path d="M131.874 0.75H46.0225V38.3807H131.874V0.75Z" fill="#CC0033"/>
<path d="M61.2588 30.9178H53.7471V8.73584H61.2588V16.0707L71.4576 16.071V23.5735L61.2588 23.5732V30.9178Z" fill="white"/>
<path d="M124.149 31.1791H116.207C110.394 31.1791 108.915 28.3178 108.915 23.5253V21.9032H103.637V16.8073H108.915V14.2144H103.637V8.99707H124.149V14.2144H116.427V16.8076H124.149V21.9032H116.472C116.472 23.0944 116.474 23.7456 116.893 24.1032C117.193 24.3588 117.628 24.5256 118.251 24.5256H124.149V31.1791Z" fill="white"/>
<path d="M98.2613 30.169H78.6177V22.6573H90.4882V16.9643H78.6177V9.45264H98.2613V30.169Z" fill="white"/>
<path d="M67.1491 13.2844C65.4756 13.6578 64.0099 12.1924 64.3827 10.5189C64.5708 9.67505 65.2513 8.99366 66.0952 8.80437C67.7696 8.42883 69.2377 9.8963 68.863 11.5713C68.6744 12.4152 67.993 13.096 67.1491 13.2844Z" fill="white"/>
<path d="M73.2406 13.2844C71.5671 13.6578 70.1015 12.1924 70.4743 10.5189C70.6624 9.67505 71.3428 8.99366 72.1867 8.80437C73.8611 8.42883 75.3292 9.8963 74.9545 11.5713C74.7659 12.4152 74.0845 13.096 73.2406 13.2844Z" fill="white"/>
<path d="M245.493 18.3701L256.306 0.75H239.585L236.139 8.39038H236.021L232.575 0.75H215.854L226.667 18.3701L219.188 30.8438L207.854 0.75H192.72L181.386 30.8441V0.75H166.803L159.994 10.2096L153.029 0.75H138.447V38.3807H153.029V20.0333H153.134L159.995 28.8687L166.7 20.0333H166.803V38.3807H194.586L195.775 33.4428H204.801L205.988 38.3807H231.377L236.027 29.3888H236.134L240.784 38.3807H257.492L245.493 18.3701H245.493ZM198.052 23.9831L200.235 14.9048H200.339L202.523 23.9831H198.052Z" fill="#CC0033"/>
<path d="M177.749 53.3809H0V91.0116H177.749V53.3809Z" fill="#BC9500"/>
<path d="M143.427 70.8276L150.909 72.1008V68.0101L143.427 66.7368V70.8276Z" fill="white"/>
<path d="M143.427 64.4141L150.909 65.6871V61.6045L143.427 60.3315V64.4141Z" fill="white"/>
<path d="M143.427 85.2847L150.909 82.8936V75.4873L143.427 77.9785V85.2847Z" fill="white"/>
<path d="M166 64.7053C167.491 64.4896 168.871 64.2571 170.024 64.0273V59.9512C165.991 60.7494 159.289 61.5826 154.464 61.6049V65.6874C155.706 65.6816 157.074 65.6214 158.488 65.5222V68.0322H153.627V72.1102H158.488V74.6964H154.464V84.1453H170.024V74.6964H166V72.1102H170.86V68.0322H166V64.7053ZM164.997 80.9663H159.491V77.8741H164.997V80.9663Z" fill="white"/>
<path d="M87.7019 83.8857C89.6811 83.8857 91.2856 82.2812 91.2856 80.302C91.2856 78.3228 89.6811 76.7183 87.7019 76.7183C85.7226 76.7183 84.1182 78.3228 84.1182 80.302C84.1182 82.2812 85.7226 83.8857 87.7019 83.8857Z" fill="white"/>
<path d="M108.045 83.9087C110.024 83.9087 111.629 82.3042 111.629 80.3249C111.629 78.3457 110.024 76.7412 108.045 76.7412C106.066 76.7412 104.461 78.3457 104.461 80.3249C104.461 82.3042 106.066 83.9087 108.045 83.9087Z" fill="white"/>
<path d="M15.2363 84.1452H7.72461V61.9629H15.2363V69.2981L25.4351 69.2984V76.8006L15.2363 76.8003V84.1452Z" fill="white"/>
<path d="M78.1267 84.4066H70.1841C64.3709 84.4066 62.8928 81.5453 62.8928 76.7528V75.1308H57.6143V70.0348H62.8928V67.442H57.6143V62.2246H78.1267V67.442H70.4045V70.0351H78.1267V75.1308H70.4495C70.4495 76.3219 70.451 76.9731 70.8707 77.3307C71.1708 77.5864 71.6053 77.7531 72.2283 77.7531H78.1267V84.4066Z" fill="white"/>
<path d="M52.2382 83.3964H32.5952V75.8847H44.4654V70.192H32.5952V62.6807H52.2382V83.3964Z" fill="white"/>
<path d="M20.6001 66.5704C19.3326 66.5704 18.3013 65.5393 18.3013 64.2715C18.3013 63.0037 19.3326 61.9727 20.6001 61.9727C21.8676 61.9727 22.8987 63.004 22.8987 64.2715C22.8987 65.539 21.8673 66.5704 20.6001 66.5704Z" fill="white"/>
<path d="M26.692 66.5704C25.4244 66.5704 24.3931 65.5393 24.3931 64.2715C24.3931 63.0037 25.4244 61.9727 26.692 61.9727C27.9595 61.9727 28.9905 63.004 28.9905 64.2715C28.9905 65.539 27.9592 66.5704 26.692 66.5704Z" fill="white"/>
<path d="M137.816 61.8179C131.724 64.1414 123.871 66.3237 116.189 67.3182V75.4474C118.555 75.1595 121.233 74.7194 123.953 74.1722V84.1447H131.558V72.3697C133.891 71.7221 136.047 71.021 137.816 70.3003V61.8179Z" fill="white"/>
<path d="M109.75 59.2964C107.212 59.2964 105.154 61.3542 105.154 63.8923C105.154 64.6781 105.352 65.4173 105.7 66.0639H101.569V61.923H94.1757V66.0639H87.594V73.5762H94.1757V84.1449H101.569V73.5762H108.151V68.1967C108.65 68.3823 109.187 68.4885 109.75 68.4885C112.289 68.4885 114.346 66.431 114.346 63.8926C114.346 61.3542 112.289 59.2967 109.75 59.2967L109.75 59.2964ZM109.75 65.7042C108.749 65.7042 107.938 64.8929 107.938 63.892C107.938 62.8911 108.75 62.08 109.75 62.08C110.751 62.08 111.562 62.8914 111.562 63.892C111.562 64.8926 110.751 65.7042 109.75 65.7042Z" fill="white"/>
<path d="M291.516 71.001L302.329 53.3809H285.608L282.162 61.0215H282.044L278.597 53.3809H261.877L272.69 71.001L265.211 83.4747L253.877 53.3809H238.743L227.409 83.475V53.3809H212.826L206.017 62.8405L199.052 53.3809H184.469V91.0116H199.052V72.6641H199.156L206.017 81.4999L212.722 72.6641H212.826V91.0116H240.609L241.797 86.0736H250.824L252.011 91.0116H277.4L282.05 82.0197H282.156L286.807 91.0116H303.514L291.516 71.001ZM244.075 76.6143L246.258 67.5359H246.362L248.546 76.6143H244.075Z" fill="#BC9500"/>
</svg>
