<svg width="1008" height="70" viewBox="0 0 1008 70" fill="none" xmlns="http://www.w3.org/2000/svg">
<path d="M159.699 0H0V70H159.699V0Z" fill="#CC0033"/>
<path d="M28.3418 56.1175H14.3687V14.855H28.3418V28.4992L47.3135 28.4997V42.4558L28.3418 42.4552V56.1175Z" fill="white"/>
<path d="M145.33 56.6038H130.555C119.741 56.6038 116.992 51.2813 116.992 42.3664V39.3491H107.173V29.8697H116.992V25.0466H107.173V15.3413H145.33V25.0466H130.965V29.8703H145.33V39.3491H131.049C131.049 41.5648 131.052 42.7763 131.832 43.4414C132.39 43.917 133.199 44.2272 134.358 44.2272H145.33V56.6038Z" fill="white"/>
<path d="M97.1733 54.7241H60.6326V40.7511H82.7139V30.161H60.6326V16.188H97.1733V54.7241Z" fill="white"/>
<path d="M39.2987 23.3169C36.1857 24.0115 33.4593 21.2857 34.1528 18.1727C34.5027 16.6029 35.7685 15.3354 37.3383 14.9833C40.453 14.2847 43.1838 17.0145 42.487 20.1303C42.136 21.7001 40.8685 22.9665 39.2987 23.3169Z" fill="white"/>
<path d="M50.6304 23.3169C47.5174 24.0115 44.7911 21.2857 45.4846 18.1727C45.8344 16.6029 47.1002 15.3354 48.67 14.9833C51.7847 14.2847 54.5156 17.0145 53.8187 20.1303C53.4677 21.7001 52.2002 22.9665 50.6304 23.3169Z" fill="white"/>
<path d="M371.051 32.7766L391.166 0H360.062L353.651 14.2125H353.432L347.021 0H315.917L336.032 32.7766L322.12 55.98L301.036 0H272.884L251.8 55.9805V0H224.674L212.008 17.5967L199.052 0H171.925V70H199.052V35.8704H199.246L212.009 52.306L224.482 35.8704H224.674V70H276.356L278.566 60.8145H295.357L297.566 70H344.793L353.443 53.2734H353.642L362.292 70H393.371L371.052 32.7766H371.051ZM282.802 43.2178L286.863 26.3304H287.057L291.12 43.2178H282.802Z" fill="#CC0033"/>
<path d="M774.015 0H443.371V70H774.015V0Z" fill="#BC9500"/>
<path d="M710.171 32.4538L724.09 34.8223V27.2128L710.171 24.8442V32.4538Z" fill="white"/>
<path d="M710.171 20.5239L724.09 22.8919V15.2977L710.171 12.9297V20.5239Z" fill="white"/>
<path d="M710.171 59.3471L724.09 54.8992V41.1221L710.171 45.7561V59.3471Z" fill="white"/>
<path d="M752.16 21.0658C754.934 20.6644 757.502 20.2319 759.646 19.8045V12.2222C752.144 13.707 739.677 15.257 730.701 15.2983V22.8926C733.012 22.8818 735.557 22.7698 738.187 22.5852V27.2544H729.146V34.8401H738.187V39.6509H730.701V57.2277H759.646V39.6509H752.16V34.8401H761.202V27.2544H752.16V21.0658ZM750.295 51.3142H740.052V45.5621H750.295V51.3142Z" fill="white"/>
<path d="M606.512 56.7449C610.194 56.7449 613.178 53.7603 613.178 50.0785C613.178 46.3968 610.194 43.4121 606.512 43.4121C602.83 43.4121 599.845 46.3968 599.845 50.0785C599.845 53.7603 602.83 56.7449 606.512 56.7449Z" fill="white"/>
<path d="M644.354 56.7874C648.036 56.7874 651.02 53.8027 651.02 50.121C651.02 46.4392 648.036 43.4546 644.354 43.4546C640.672 43.4546 637.687 46.4392 637.687 50.121C637.687 53.8027 640.672 56.7874 644.354 56.7874Z" fill="white"/>
<path d="M471.713 57.2269H457.74V15.9639H471.713V29.6086L490.684 29.6092V43.5647L471.713 43.5641V57.2269Z" fill="white"/>
<path d="M588.7 57.7132H573.926C563.112 57.7132 560.363 52.3907 560.363 43.4758V40.4585H550.544V30.9791H560.363V26.1559H550.544V16.4507H588.7V26.1559H574.336V30.9797H588.7V40.4585H574.419C574.419 42.6742 574.422 43.8856 575.203 44.5508C575.761 45.0263 576.569 45.3365 577.728 45.3365H588.7V57.7132Z" fill="white"/>
<path d="M540.543 55.8338H504.004V41.8608H526.084V31.2713H504.004V17.2988H540.543V55.8338Z" fill="white"/>
<path d="M481.691 24.5346C479.333 24.5346 477.414 22.6166 477.414 20.2582C477.414 17.8999 479.333 15.9819 481.691 15.9819C484.049 15.9819 485.966 17.9004 485.966 20.2582C485.966 22.616 484.048 24.5346 481.691 24.5346Z" fill="white"/>
<path d="M493.022 24.5346C490.665 24.5346 488.746 22.6166 488.746 20.2582C488.746 17.8999 490.665 15.9819 493.022 15.9819C495.38 15.9819 497.298 17.9004 497.298 20.2582C497.298 22.616 495.38 24.5346 493.022 24.5346Z" fill="white"/>
<path d="M699.733 15.6943C688.401 20.0165 673.793 24.076 659.504 25.926V41.0477C663.904 40.5121 668.886 39.6936 673.946 38.6757V57.2263H688.092V35.3227C692.433 34.1181 696.442 32.8137 699.733 31.4732V15.6943Z" fill="white"/>
<path d="M647.526 11.0039C642.804 11.0039 638.977 14.8318 638.977 19.5531C638.977 21.0148 639.345 22.3898 639.992 23.5928H632.307V15.8899H618.555V23.5928H606.311V37.567H618.555V57.2266H632.307V37.567H644.551V27.5601C645.479 27.9054 646.478 28.1029 647.526 28.1029C652.248 28.1029 656.076 24.2755 656.076 19.5537C656.076 14.8318 652.248 11.0045 647.526 11.0045L647.526 11.0039ZM647.526 22.9237C645.664 22.9237 644.155 21.4145 644.155 19.5526C644.155 17.6907 645.665 16.182 647.526 16.182C649.387 16.182 650.896 17.6912 650.896 19.5526C650.896 21.4139 649.387 22.9237 647.526 22.9237Z" fill="white"/>
<path d="M985.643 32.7766L1005.76 0H974.654L968.243 14.213H968.024L961.613 0H930.509L950.624 32.7766L936.711 55.98L915.628 0H887.476L866.392 55.9805V0H839.265L826.6 17.5967L813.644 0H786.517V70H813.644V35.8703H813.838L826.6 52.3065L839.073 35.8703H839.266V70H890.947L893.158 60.8145H909.949L912.157 70H959.384L968.034 53.2734H968.233L976.883 70H1007.96L985.643 32.7766ZM897.394 43.2184L901.455 26.331H901.649L905.712 43.2184H897.394Z" fill="#BC9500"/>
</svg>
