<svg width="100" height="81" viewBox="0 0 100 81" fill="none" xmlns="http://www.w3.org/2000/svg">
<path d="M59.602 8.37692C58.8832 7.9013 58.1401 7.44627 57.3908 7.02377C51.9683 3.96315 45.7894 2.34558 39.5226 2.34558C33.4594 2.34558 27.4589 3.86496 22.1676 6.73996L21.0476 4.6788C26.6814 1.61818 33.0694 0 39.5226 0C46.1926 0 52.7695 1.72189 58.5433 4.98001C59.3401 5.42939 60.132 5.91494 60.897 6.42181L59.602 8.37616V8.37692Z" fill="#CC0033"/>
<path d="M39.5225 77.5159C22.7212 77.5159 7.91756 66.7971 2.68693 50.844C2.48506 50.2283 2.82006 49.5659 3.43568 49.3646C4.05193 49.1584 4.71315 49.4978 4.91502 50.1134C9.8294 65.1009 23.7375 75.1709 39.5225 75.1709C45.5944 75.1709 51.605 73.6472 56.9032 70.7634C57.4725 70.4534 58.185 70.664 58.4937 71.2328C58.8037 71.8021 58.5931 72.5135 58.0244 72.8235C52.3831 75.8941 45.985 77.5159 39.5225 77.5159Z" fill="#CC0033"/>
<path d="M76.3318 32.3041C75.7868 32.3041 75.2993 31.9222 75.1843 31.3672C74.0287 25.7604 71.5111 20.4272 67.9043 15.9453C67.4986 15.441 67.5786 14.7029 68.083 14.2966C68.588 13.8923 69.3262 13.9716 69.7318 14.4753C73.5712 19.2459 76.2505 24.9234 77.4811 30.8941C77.6118 31.5278 77.2036 32.1485 76.5693 32.2791C76.4899 32.296 76.4099 32.3041 76.3318 32.3041Z" fill="#CC0033"/>
<path d="M32.808 66.5839C32.653 66.5839 32.4968 66.5789 32.3405 66.5677C30.1024 66.4146 27.9943 65.1827 26.4018 63.0977C24.9843 61.2408 24.6949 61.4158 23.3049 62.252C22.5786 62.6889 21.6736 63.2326 20.488 63.4801C18.9811 63.7926 17.4674 63.4114 16.2268 62.4033C14.673 61.1395 13.708 59.0539 13.708 56.9601C13.708 53.2989 16.9574 50.5127 19.9924 50.2071C21.3662 50.0739 22.8918 50.6307 24.1174 51.082C24.4293 51.197 24.7231 51.3057 24.9881 51.3913C25.2599 51.45 26.2193 51.1852 26.9205 50.9958C28.4461 50.5845 30.3461 50.0751 32.0705 50.4401C35.8874 51.2526 37.5724 55.1539 37.9974 56.3301C38.593 57.977 39.1161 62.8257 36.8755 65.0532C35.8955 66.027 34.4012 66.5839 32.808 66.5839ZM24.7005 59.2952C25.768 59.2952 26.9118 59.9014 28.2655 61.6745C29.773 63.6489 31.3999 64.1532 32.4999 64.2282C33.8005 64.3132 34.7787 63.8313 35.2231 63.3894C36.4993 62.1213 36.243 58.3714 35.793 57.1283C35.5643 56.4952 34.2856 53.3089 31.5837 52.7339C30.4062 52.4833 28.8799 52.8957 27.5318 53.2594C26.1949 53.6201 25.1405 53.9038 24.2668 53.6232C23.9749 53.5288 23.6505 53.4095 23.3074 53.2832C22.3074 52.9145 21.0655 52.4588 20.2274 52.5413C18.2568 52.7395 16.0531 54.6714 16.0531 56.9614C16.0531 58.3457 16.7024 59.7677 17.7062 60.5846C18.4087 61.1558 19.1805 61.3583 20.0093 61.1858C20.8055 61.0195 21.4618 60.6251 22.0961 60.2438C22.9643 59.7226 23.8055 59.2964 24.7005 59.2964V59.2952Z" fill="#BC9500"/>
<path d="M90.5357 34.5786C89.8882 34.5786 89.3632 34.0537 89.3632 33.4062C89.3632 27.488 84.5481 22.6736 78.63 22.6736C77.9825 22.6736 77.4575 22.1486 77.4575 21.5011C77.4575 20.8536 77.9825 20.3286 78.63 20.3286C85.8413 20.3286 91.7082 26.1949 91.7082 33.4062C91.7082 34.0537 91.1832 34.5786 90.5357 34.5786Z" fill="#BC9500"/>
<path d="M98.8043 34.5788C98.1568 34.5788 97.6318 34.0538 97.6318 33.4063C97.6318 22.9295 89.1074 14.405 78.6305 14.405C77.983 14.405 77.458 13.88 77.458 13.2325C77.458 12.585 77.983 12.0601 78.6305 12.0601C90.4011 12.0601 99.9768 21.6357 99.9768 33.4063C99.9768 34.0538 99.4518 34.5788 98.8043 34.5788Z" fill="#BC9500"/>
<path d="M5.93942 51.7614C5.2463 51.7614 4.49874 51.7214 3.69562 51.642L2.93504 51.5671L2.69693 50.8408C1.41568 46.9339 0.765625 42.8689 0.765625 38.7583C0.765625 32.5489 2.26938 26.3752 5.11438 20.9027L7.19499 21.9846C4.48499 27.1965 3.11067 32.8402 3.11067 38.7577C3.11067 42.3608 3.64188 45.9276 4.69125 49.3714C6.73625 49.5082 8.28067 49.3271 9.29567 48.8333C10.6375 48.1796 12.1363 45.3845 13.4588 42.9189C14.8007 40.4164 16.1888 37.8289 17.8413 36.3802C18.8113 35.5308 19.2219 33.597 19.6569 31.5502C20.425 27.9352 21.3813 23.437 26.1944 22.1945C29.4769 21.347 31.2919 18.0671 31.8969 15.2802C32.4438 12.7614 32.0376 10.6646 31.3294 10.0914C30.2069 9.18456 26.7419 8.04332 21.79 6.94644C19.03 8.48832 16.4769 10.387 14.1969 12.5945L12.565 10.9102C15.1031 8.45272 17.9581 6.35577 21.0513 4.67639L21.4338 4.46826L21.8601 4.56073C27.6288 5.81323 31.3106 7.06021 32.8037 8.26709C34.3619 9.52709 34.9057 12.4751 34.1888 15.7764C33.4357 19.2464 31.0938 23.3502 26.7806 24.464C23.3731 25.3434 22.6819 28.5946 21.9513 32.0365C21.4326 34.4752 20.9432 36.7788 19.3875 38.142C18.0544 39.3107 16.7688 41.7076 15.5257 44.0258C13.8901 47.0751 12.3457 49.9545 10.3213 50.9401C9.19691 51.4883 7.7513 51.7595 5.93942 51.7595V51.7614Z" fill="#BC9500"/>
<path d="M75.4295 32.6791C74.4495 26.8472 72.0157 21.2786 68.3914 16.5748L70.2489 15.1436C74.107 20.1517 76.6983 26.0811 77.7426 32.2905L75.4295 32.6791Z" fill="#BC9500"/>
<path d="M56.2673 44.6871C54.4579 43.5571 52.3235 42.1471 50.2091 40.2596C45.521 36.0734 45.7628 27.609 45.8797 23.5415C45.8985 22.8853 45.916 22.3721 45.8985 22.0527C45.7672 21.7108 44.4423 20.9328 43.6504 20.4678C41.4798 19.1928 38.5073 17.4471 39.2304 14.4659C40.0116 11.2459 43.5398 10.7109 46.3748 10.2802C47.2904 10.1409 48.1554 10.0103 48.856 9.81027C51.7973 8.9709 55.7429 6.22589 57.3029 5.08401L57.9129 4.6377L58.5716 5.00955C59.3541 5.45205 60.1348 5.93028 60.8904 6.43091L59.5954 8.38647C59.0941 8.0546 58.5816 7.73266 58.0648 7.42578C55.8973 8.96828 52.3898 11.2402 49.4998 12.0646C48.6554 12.3059 47.7185 12.4483 46.7267 12.599C43.9123 13.0258 41.8904 13.4496 41.5091 15.019C41.2191 16.2153 42.7053 17.194 44.8378 18.4452C46.5453 19.4483 48.1585 20.3952 48.2404 21.9277C48.2598 22.2877 48.2447 22.8677 48.2235 23.6083C48.1253 27.0321 47.896 35.0502 51.771 38.5096C53.7541 40.2802 55.7847 41.6208 57.5097 42.6983L56.2673 44.6871Z" fill="#BC9500"/>
<path d="M78.2355 28.6431H61.6293C58.5674 28.6431 56.0762 31.1337 56.0762 34.1956V74.7037C56.0762 77.7656 58.5674 80.2562 61.6293 80.2562H78.2355C81.2974 80.2562 83.788 77.7656 83.788 74.7037V34.1956C83.788 31.1337 81.2974 28.6431 78.2355 28.6431ZM81.0999 74.3863H58.7649V34.5119H81.0999V74.3863Z" fill="#CC0033"/>
<path d="M72.3468 8.8757C72.17 4.92195 68.9062 1.84516 64.9875 1.84766C61.0687 1.84578 57.8056 4.92258 57.6287 8.8757C57.565 10.2895 57.655 11.1564 58.4425 12.9033C59.2519 14.7008 64.9881 23.8975 64.9881 23.8975C64.9881 23.8975 70.7244 14.7001 71.5344 12.9033C72.3213 11.1564 72.4106 10.2895 72.3481 8.8757H72.3468ZM64.7906 13.6052C62.3606 13.4964 60.4788 11.4382 60.5875 9.00815C60.6963 6.57815 62.7537 4.69637 65.1844 4.80512C67.6144 4.91387 69.4962 6.97198 69.3875 9.40198C69.2787 11.832 67.2206 13.7139 64.7906 13.6052Z" fill="#CC0033"/>
<path d="M18.9518 17.5042C18.7743 13.5505 15.5112 10.4737 11.5924 10.4756C7.67367 10.4737 4.40998 13.5505 4.23311 17.5042C4.16998 18.918 4.25997 19.7849 5.04747 21.5318C5.85684 23.3293 11.5931 32.5262 11.5931 32.5262C11.5931 32.5262 17.3293 23.3287 18.1387 21.5318C18.9262 19.7849 19.0156 18.918 18.9531 17.5042H18.9518ZM11.3956 22.2337C8.96558 22.125 7.08372 20.0668 7.19247 17.6368C7.30122 15.2068 9.35934 13.3249 11.7893 13.4337C14.2193 13.5424 16.1012 15.6005 15.9924 18.0305C15.8843 20.4605 13.8262 22.3425 11.3956 22.2337Z" fill="#CC0033"/>
</svg>
