<svg width="217" height="47" viewBox="0 0 217 47" fill="none" xmlns="http://www.w3.org/2000/svg">
<path d="M102.75 27.6816H106.618C106.981 27.6816 107.247 27.416 107.247 27.0535V16.1591C107.247 13.3572 108.311 11.8353 110.269 11.8353C112.057 11.8353 113.049 13.1398 113.049 15.4829V27.0535C113.049 27.416 113.316 27.6816 113.678 27.6816H117.546C117.909 27.6816 118.175 27.416 118.175 27.0535V15.096C118.175 10.1922 115.902 7.14844 112.203 7.14844C109.906 7.14844 108.166 8.38034 107.295 10.5785H107.102L106.618 8.21106C106.546 7.82481 106.304 7.58286 105.941 7.58286H102.75C102.387 7.58286 102.121 7.84856 102.121 8.21106V27.0529C102.121 27.4154 102.387 27.6816 102.75 27.6816ZM87.3744 17.6329C87.3744 13.5267 88.583 11.256 90.7587 11.256C92.9587 11.256 94.1919 13.5267 94.1919 17.6329C94.1919 21.7392 92.9587 24.0097 90.7587 24.0097C88.583 24.0097 87.3744 21.7392 87.3744 17.6329ZM82.0557 17.6329C82.0557 23.6235 85.8032 28.1166 90.7594 28.1166C95.7157 28.1166 99.5113 23.6235 99.5113 17.6329C99.5113 11.6423 95.7401 7.1492 90.7594 7.1492C85.7788 7.1492 82.0557 11.6423 82.0557 17.6329ZM67.2838 27.6091C69.7969 26.7353 71.7562 26.3773 73.9081 26.3773C76.0837 26.3773 77.7281 26.691 80.1456 27.6091C80.6293 27.8022 80.9918 27.6091 80.9918 27.1016V24.3236C80.9918 23.913 80.7988 23.6709 80.4356 23.5022C78.3806 22.6084 76.5432 22.2223 74.1982 22.2223C73.69 22.2223 73.2306 22.2703 72.82 22.3428L80.3149 12.0523C80.5324 11.7623 80.605 11.4723 80.605 11.1342V8.21106C80.605 7.84856 80.3393 7.58286 79.9762 7.58286H67.2594C66.8969 7.58286 66.6306 7.84856 66.6306 8.21106V11.0129C66.6306 11.3754 66.8969 11.6409 67.2594 11.6409H74.9962L66.7274 23.2117C66.5099 23.5017 66.4375 23.7917 66.4375 24.1298V27.101C66.4375 27.6085 66.8 27.7772 67.2838 27.6091ZM53.1406 21.4978C53.1406 19.1791 54.7844 17.7054 57.42 17.7054C57.855 17.7054 58.2905 17.7534 58.7012 17.8259V19.106C58.7012 22.4635 57.6131 24.2998 55.6062 24.2998C54.1075 24.2998 53.1406 23.2128 53.1406 21.4978ZM53.6481 28.1166C56.0418 28.1166 57.7825 26.8847 58.6525 24.7829H58.8457L59.3294 27.0535C59.4019 27.4404 59.6438 27.6816 60.0063 27.6816H63.1975C63.56 27.6816 63.8263 27.416 63.8263 27.0535V14.9028C63.8263 9.85405 61.215 7.14844 56.3069 7.14844C52.1725 7.14844 49.3682 9.03226 48.4738 12.4385C48.3532 12.8973 48.5705 13.2355 48.9812 13.308L52.3419 13.8879C52.7525 13.9604 52.9944 13.743 53.1157 13.308C53.5507 11.7617 54.5182 10.9648 55.9688 10.9648C57.8063 10.9648 58.7006 12.1485 58.7006 14.6123V15.1198C58.1443 14.9992 57.4675 14.951 56.6937 14.951C51.2781 14.951 47.8694 17.7291 47.8694 22.0766C47.8694 25.6759 50.1906 28.116 53.6475 28.116L53.6481 28.1166ZM66.8968 32.6822C67.1393 33.2378 67.8393 33.2378 68.9275 33.0203C71.8287 32.3922 75.5038 32.3441 76.1319 33.2135C76.7363 34.1073 75.4069 37.5379 73.835 40.0497C73.255 41.016 73.0131 41.6198 73.4962 42.0792C73.6169 42.2242 73.7862 42.2722 73.9799 42.2966C74.56 42.2966 75.31 41.7166 76.0106 41.0648C77.5337 39.736 78.7181 38.0454 79.3712 36.1366C80.0237 34.301 80.3381 31.716 79.6613 30.726C79.0081 29.7835 76.47 29.1559 74.5113 29.1797C72.4563 29.1797 70.4737 29.6872 68.685 30.6291C67.5731 31.2329 66.5587 31.9091 66.8968 32.6822ZM13.2487 31.6679C13.415 32.1761 13.8049 32.8035 14.3849 33.5278C21.8074 42.6828 33.7505 46.6928 45.2831 46.6928C55.3649 46.6928 65.1081 43.6491 71.2975 38.2866C72.3612 37.3447 72.9175 36.5953 72.9175 36.0159C72.9175 35.7741 72.8206 35.581 72.6512 35.3879C72.1193 34.8323 71.3212 35.2429 70.3543 35.7504C64.5999 38.7698 55.7519 40.8473 46.3469 40.8473C35.7331 40.8473 24.37 38.2141 15.7631 31.2816C14.9412 30.6291 14.0469 29.9772 13.4419 30.4604C13.2244 30.6291 13.0275 30.9929 13.2487 31.6679ZM19.5831 27.6822H23.4512C23.8137 27.6822 24.08 27.4166 24.08 27.0541V16.1598C24.08 13.3579 25.0713 11.8359 26.9569 11.8359C28.6738 11.8359 29.5924 13.1404 29.5924 15.4836V27.0541C29.5924 27.4166 29.8581 27.6822 30.2213 27.6822H34.0894C34.4519 27.6822 34.7182 27.4166 34.7182 27.0541V16.1598C34.7182 13.3579 35.7094 11.8359 37.5951 11.8359C39.3113 11.8359 40.2306 13.1404 40.2306 15.4836V27.0541C40.2306 27.4166 40.4963 27.6822 40.8594 27.6822H44.7275C45.09 27.6822 45.3563 27.4166 45.3563 27.0541V15.0966C45.3563 10.1928 43.1563 7.1492 39.53 7.1492C37.33 7.1492 35.5893 8.33287 34.1624 10.7722H33.9688C33.0501 8.47725 31.285 7.1492 28.8919 7.1492C26.6675 7.1492 24.9993 8.38095 24.1287 10.5791H23.9349L23.4518 8.21167C23.3793 7.82542 23.1375 7.58347 22.775 7.58347H19.5837C19.2212 7.58347 18.9549 7.84917 18.9549 8.21167V27.0535C18.9549 27.416 19.2212 27.6816 19.5837 27.6816L19.5831 27.6822ZM5.27069 21.4978C5.27069 19.1791 6.91439 17.7054 9.55002 17.7054C9.98502 17.7054 10.4207 17.7534 10.8313 17.8259V19.106C10.8313 22.4635 9.74308 24.2998 7.73621 24.2998C6.23746 24.2998 5.26993 23.2128 5.26993 21.4978H5.27069ZM5.77805 28.1166C8.1718 28.1166 9.91247 26.8847 10.7825 24.7829H10.9756L11.4594 27.0535C11.5319 27.4404 11.7737 27.6816 12.1362 27.6816H15.3275C15.69 27.6816 15.9563 27.416 15.9563 27.0535V14.9028C15.9563 9.85405 13.3456 7.14844 8.4375 7.14844C4.30313 7.14844 1.49878 9.03226 0.604401 12.4385C0.483776 12.8973 0.701283 13.2355 1.11191 13.308L4.4725 13.8879C4.88313 13.9604 5.12503 13.743 5.24628 13.308C5.68128 11.7617 6.64874 10.9648 8.09937 10.9648C9.93686 10.9648 10.8313 12.1485 10.8313 14.6123V15.1198C10.275 14.9992 9.59806 14.951 8.82431 14.951C3.40869 14.951 0 17.7291 0 22.0766C0 25.6759 2.32117 28.1166 5.77805 28.1166Z" fill="#0578FF"/>
<path d="M127.787 33.3391V8.20724C127.787 7.84474 128.053 7.57919 128.416 7.57919H131.607C131.97 7.57919 132.2 7.77224 132.284 8.20724L132.767 10.5766H132.96C133.831 8.49725 135.837 7.14355 138.037 7.14355C142.196 7.14355 144.951 11.3259 144.951 17.6241C144.951 23.9222 142.196 28.1166 138.037 28.1166C135.886 28.1166 134.29 27.0772 133.105 24.8285H132.912V33.3385C132.912 33.701 132.646 33.9673 132.283 33.9673H128.415C128.053 33.9673 127.786 33.701 127.786 33.3385L127.787 33.3391ZM136.249 23.8373C138.425 23.8373 139.634 21.6134 139.634 17.6241C139.634 13.6347 138.425 11.4229 136.249 11.4229C134.049 11.4229 132.816 13.6716 132.816 17.6241C132.816 21.5766 134.049 23.8373 136.249 23.8373Z" fill="#0578FF"/>
<path d="M158.541 12.583C157.671 12.1961 156.898 11.8581 155.931 11.8581C153.948 11.8581 152.884 13.3568 152.884 16.1374V27.0531C152.884 27.4156 152.619 27.6817 152.256 27.6817H148.388C148.025 27.6817 147.759 27.4162 147.759 27.0531V8.2074C147.759 7.8449 148.024 7.57935 148.388 7.57935H151.579C151.966 7.57935 152.171 7.82052 152.256 8.2074L152.739 10.5768H152.932C153.803 8.37678 155.495 7.19238 157.72 7.19238C158.638 7.19238 159.412 7.38548 160.041 7.67548C160.379 7.8686 160.451 8.09858 160.331 8.59421L159.412 12.2937C159.315 12.6806 158.977 12.7761 158.541 12.583Z" fill="#0578FF"/>
<path d="M164.733 -0.000488281C166.376 -0.000488281 167.73 1.11148 167.73 2.9971C167.73 4.8346 166.376 5.99515 164.733 5.99515C163.089 5.99515 161.734 4.8346 161.734 2.9971C161.734 1.11148 163.088 -0.000488281 164.733 -0.000488281ZM162.169 27.0527V8.20706C162.169 7.84456 162.435 7.57901 162.798 7.57901H166.666C167.029 7.57901 167.295 7.84456 167.295 8.20706V27.0527C167.295 27.4152 167.029 27.6814 166.666 27.6814H162.798C162.436 27.6814 162.169 27.4159 162.169 27.0527Z" fill="#0578FF"/>
<path d="M180.761 7.14359C183.154 7.14359 184.92 8.47921 185.838 10.7698H186.031C187.457 8.33421 189.198 7.14359 191.398 7.14359C195.025 7.14359 197.225 10.1897 197.225 15.0972V27.0523C197.225 27.4148 196.959 27.681 196.596 27.681H192.728C192.366 27.681 192.099 27.4155 192.099 27.0523V15.4836C192.099 13.1386 191.181 11.8329 189.464 11.8329C187.579 11.8329 186.588 13.3561 186.588 16.1605V27.0517C186.588 27.4142 186.321 27.6804 185.959 27.6804H182.091C181.728 27.6804 181.462 27.4149 181.462 27.0517V15.483C181.462 13.138 180.543 11.8323 178.827 11.8323C176.941 11.8323 175.95 13.3555 175.95 16.1599V27.051C175.95 27.4135 175.684 27.6798 175.321 27.6798H171.453C171.091 27.6798 170.824 27.4141 170.824 27.051V8.20544C170.824 7.84294 171.09 7.57724 171.453 7.57724H174.644C175.007 7.57724 175.243 7.81857 175.321 8.20544L175.804 10.5748H175.997C176.868 8.37483 178.536 7.1416 180.761 7.1416L180.761 7.14359Z" fill="#0578FF"/>
<path d="M208.568 7.14355C213.5 7.14355 216.909 11.4228 216.909 17.4791V18.4947C216.909 18.8816 216.643 19.1229 216.28 19.1229H205.189C205.431 22.411 206.537 24.0791 208.568 24.0791C210.067 24.0791 211.228 23.3778 211.663 21.5166C211.759 21.1059 212.001 20.9485 212.388 21.0335L215.966 21.8311C216.376 21.9217 216.546 22.1936 216.401 22.6048C215.168 26.183 212.363 28.1172 208.568 28.1172C203.394 28.1172 199.816 23.9348 199.816 17.7698C199.816 11.6048 203.442 7.14417 208.568 7.14417L208.568 7.14355ZM211.687 15.7385C211.385 12.7585 210.363 11.181 208.568 11.181C206.834 11.181 205.601 12.801 205.244 15.7385H211.687Z" fill="#0578FF"/>
</svg>
