<svg width="104" height="82" viewBox="0 0 104 82" fill="none" xmlns="http://www.w3.org/2000/svg">
<path d="M80.0567 54.2647C79.708 54.2647 79.3624 54.1061 79.1374 53.8054C78.7574 53.2986 78.8599 52.5792 79.3674 52.1985L93.5742 41.5491C94.0811 41.1685 94.8011 41.273 95.1811 41.7792C95.5611 42.2861 95.4587 43.0053 94.9512 43.386L80.7443 54.0354C80.5374 54.1898 80.2961 54.2647 80.0567 54.2647Z" fill="#CC0033"/>
<path d="M102.903 40.0701L81.6291 11.0445C81.4491 10.7989 81.1796 10.6352 80.8783 10.5883C80.579 10.5452 80.2708 10.6177 80.0258 10.797L73.8659 15.312C73.354 15.6863 73.2446 16.4046 73.619 16.9152L94.8934 45.9408C95.0734 46.1864 95.3427 46.3501 95.644 46.397C95.7015 46.4058 95.7609 46.4101 95.8184 46.4101C96.0609 46.4101 96.299 46.3333 96.4965 46.1877L102.656 41.6726C103.168 41.2982 103.278 40.5807 102.903 40.0701Z" fill="#CC0033"/>
<path d="M19.1691 52.7465C18.9216 52.7465 18.6716 52.6666 18.4616 52.5016L9.46469 45.4453C8.96657 45.0541 8.87905 44.3327 9.2703 43.8346C9.66217 43.3359 10.3829 43.2504 10.881 43.6404L19.8779 50.6965C20.376 51.0878 20.4634 51.8091 20.0721 52.3072C19.8459 52.596 19.5091 52.7465 19.1691 52.7465Z" fill="#BC9500"/>
<path d="M61.7973 74.517C59.9355 74.517 58.0362 73.764 56.7868 72.5215C56.3374 72.0746 56.3355 71.3476 56.7824 70.8982C57.2292 70.4488 57.9554 70.4477 58.4054 70.8939C59.8236 72.3033 62.728 72.8083 64.2117 71.3189C64.9523 70.587 65.3317 69.6451 65.2873 68.6588C65.2411 67.6213 64.7343 66.6283 63.8962 65.9358C63.4074 65.5326 63.3386 64.8089 63.7424 64.3208C64.1449 63.8308 64.8692 63.7626 65.3574 64.167C66.6949 65.272 67.5049 66.8715 67.5799 68.5565C67.6531 70.199 67.0324 71.7571 65.8311 72.944C64.7443 74.0365 63.2825 74.5164 61.7981 74.5164L61.7973 74.517Z" fill="#BC9500"/>
<path d="M69.3722 68.5536C67.8516 68.5536 66.3059 67.9973 65.064 66.8817L55.3216 58.9824C54.8297 58.583 54.7541 57.8611 55.1528 57.3686C55.5522 56.8767 56.2747 56.8023 56.7666 57.1998L66.5534 65.1367C68.2234 66.6348 70.5353 66.6461 71.9728 65.1999C72.6621 64.5074 73.0265 63.5924 73.0015 62.6249C72.974 61.6256 72.5365 60.6937 71.7697 60.0018L58.2334 49.7374C57.7284 49.3536 57.6297 48.6342 58.0128 48.1292C58.3965 47.6236 59.1172 47.5274 59.6209 47.9086L73.2322 58.2354C74.5453 59.4142 75.251 60.9292 75.296 62.563C75.3385 64.1642 74.7371 65.6762 73.6003 66.8181C72.4503 67.9743 70.9253 68.5536 69.3734 68.5536H69.3722Z" fill="#BC9500"/>
<path d="M53.7923 80.3421C52.2373 80.3421 50.7778 79.7421 49.6809 78.6508C49.2316 78.2039 49.2298 77.4777 49.6773 77.0283C50.1241 76.5796 50.851 76.5764 51.2997 77.0245C51.9635 77.6845 52.8485 78.0478 53.7929 78.0478H53.8036C54.7517 78.0447 55.6385 77.6771 56.301 77.0102C57.7272 75.5764 57.8059 73.5026 56.4841 72.1876L51.5434 67.6784C51.0759 67.2509 51.0428 66.5259 51.4703 66.0577C51.8985 65.5896 52.6228 65.5572 53.0916 65.984L58.0672 70.527C60.3147 72.7614 60.2385 76.3053 57.9279 78.6278C56.8335 79.7284 55.3711 80.3371 53.8098 80.3415H53.7935L53.7923 80.3421Z" fill="#BC9500"/>
<path d="M77.9387 62.5373C76.0493 62.5373 73.9206 61.7042 71.8262 60.0504C71.3287 59.6585 71.2443 58.9367 71.6368 58.4392C72.03 57.9424 72.7518 57.8567 73.248 58.2499C76.1805 60.5649 78.94 60.8867 80.445 59.0911C81.0675 58.3511 81.3517 57.5304 81.2699 56.7173C81.1842 55.8698 80.7098 55.0811 79.8967 54.4367L54.8224 35.3898C54.318 35.006 54.2192 34.2866 54.603 33.7816C54.9867 33.2773 55.7055 33.1792 56.2111 33.5624L81.3037 52.6235C82.6137 53.6616 83.4055 55.0286 83.5536 56.4861C83.6968 57.9099 83.2175 59.3591 82.2025 60.5666C81.0969 61.8829 79.6118 62.5367 77.9393 62.5367L77.9387 62.5373Z" fill="#BC9500"/>
<path d="M46.1455 29.5343C45.9343 29.5343 45.7212 29.4761 45.5294 29.3542L43.9255 28.3311C43.3918 27.9899 43.235 27.2806 43.5756 26.7462C43.9162 26.2131 44.6256 26.0568 45.1606 26.3962L46.7643 27.4193C47.298 27.7605 47.4549 28.4698 47.1143 29.0042C46.8955 29.3467 46.5249 29.5343 46.1455 29.5343Z" fill="#BC9500"/>
<path d="M53.8378 24.9643C53.6059 24.9643 53.3721 24.8937 53.1696 24.7481L52.2434 24.0769C49.7047 22.2275 48.6533 21.4618 45.964 21.455C45.9515 21.455 45.9391 21.455 45.9272 21.455C43.4722 21.455 41.8353 22.0743 40.2521 22.6737C37.6303 23.6649 35.1559 24.6024 30.5047 21.9849L25.5804 18.9249C25.0422 18.5905 24.8772 17.8831 25.2115 17.345C25.5453 16.8069 26.2516 16.6418 26.7916 16.9762L31.6727 20.0106C35.3459 22.0749 36.974 21.4586 39.4396 20.5274C41.1421 19.8836 43.0846 19.2074 45.969 19.1605C49.4027 19.1705 50.9802 20.3193 53.594 22.2225L54.5078 22.8856C55.0222 23.255 55.1396 23.9717 54.7703 24.4861C54.5459 24.798 54.1947 24.9643 53.8378 24.9643Z" fill="#BC9500"/>
<path d="M41.7646 44.3368C40.0734 44.3368 38.5341 43.6242 37.4885 42.5054C35.6541 40.5448 35.0584 37.0142 38.0847 33.8961L38.2403 33.7629L53.0322 23.1587C56.7816 20.8062 60.8903 20.7604 67.276 22.9629C69.9428 23.8848 72.4072 22.223 74.2053 21.0111L82.3735 15.3179C82.8941 14.9567 83.609 15.0836 83.9709 15.603C84.3334 16.123 84.2054 16.8379 83.686 17.2004L75.5072 22.9005C73.5378 24.2267 70.2778 26.4255 66.5278 25.1318C60.8797 23.183 57.3397 23.1642 54.3097 25.063L39.6635 35.5654C37.7473 37.5954 38.0253 39.7204 39.1647 40.9379C40.3259 42.1792 42.5803 42.666 44.7834 40.7948L57.8753 30.7455C58.3785 30.3605 59.0991 30.4554 59.4841 30.9567C59.8697 31.4598 59.7754 32.1798 59.2723 32.5654L46.2246 42.5799C44.7696 43.8155 43.2123 44.3368 41.766 44.3368H41.7646Z" fill="#CC0033"/>
<path d="M28.9086 69.0227C28.6593 69.0227 28.4079 69.0077 28.1561 68.9765C26.5436 68.7802 25.1079 67.9708 24.1129 66.6995C23.1179 65.4277 22.6786 63.8397 22.8748 62.2278C23.0711 60.6159 23.8805 59.1797 25.1518 58.1853L33.6836 51.5083C34.9554 50.5127 36.5436 50.0715 38.1555 50.2703C39.768 50.4665 41.2036 51.2759 42.1986 52.5472C44.2598 55.1815 43.7937 59.0009 41.1599 61.0622L32.628 67.7384C31.5555 68.5784 30.2568 69.0227 28.9086 69.0227ZM37.4079 52.5189C36.5692 52.5189 35.7629 52.7947 35.0973 53.3147L26.5655 59.9921C25.7767 60.609 25.2749 61.5015 25.1524 62.5052C25.0299 63.509 25.3024 64.4958 25.9199 65.2852C26.5374 66.074 27.4299 66.5758 28.4336 66.6989C29.4386 66.8189 30.4249 66.5489 31.213 65.9314L39.7454 59.2552C41.3829 57.974 41.6723 55.5984 40.391 53.9603C39.7735 53.1715 38.881 52.6697 37.8773 52.5466C37.7204 52.5278 37.5629 52.5189 37.4079 52.5189Z" fill="#CC0033"/>
<path d="M36.4742 75.5986C34.6705 75.5986 32.8855 74.8005 31.6905 73.2736C30.6955 72.0017 30.2561 70.4136 30.4524 68.8017C30.6486 67.1892 31.458 65.7536 32.7293 64.7586L40.3254 58.8142C41.5967 57.8198 43.1842 57.378 44.7973 57.5761C46.4098 57.7724 47.8454 58.5818 48.8404 59.853C50.9017 62.4874 50.4355 66.3068 47.8018 68.368L40.2055 74.3124C39.0986 75.1787 37.7817 75.5986 36.4742 75.5986ZM34.1436 66.5649C33.3549 67.183 32.853 68.0755 32.7305 69.0793C32.608 70.083 32.8805 71.0699 33.498 71.8593C34.7786 73.4961 37.1536 73.7874 38.7924 72.5049L46.3886 66.5611C48.0261 65.2799 48.3155 62.9043 47.0342 61.2661C46.4167 60.4774 45.5243 59.9755 44.5205 59.853C43.5174 59.7305 42.5299 60.0031 41.7405 60.6206L34.1442 66.5643L34.1436 66.5649Z" fill="#CC0033"/>
<path d="M22.326 61.1662C20.5923 61.1662 18.8759 60.3988 17.7278 58.9307C15.7465 56.3988 16.1941 52.7269 18.726 50.7457L22.1041 48.1026C24.6366 46.1188 28.3079 46.5681 30.2891 49.1013C31.246 50.3231 31.6691 51.8501 31.4797 53.4001C31.2904 54.9501 30.5128 56.3307 29.2903 57.287L25.9129 59.9301C24.8485 60.7632 23.5829 61.167 22.326 61.167V61.1662ZM20.1397 52.5519C18.6047 53.7538 18.3334 55.9813 19.5353 57.5169C20.7372 59.0513 22.9629 59.3232 24.4998 58.1226L27.8771 55.4794C28.6172 54.9001 29.0878 54.0626 29.2028 53.1213C29.3178 52.1801 29.0621 51.2544 28.4834 50.5144C27.2803 48.98 25.0554 48.7081 23.5185 49.9088L20.1397 52.5519Z" fill="#CC0033"/>
<path d="M44.7717 81.2016C43.0379 81.2016 41.3217 80.4342 40.173 78.9661C38.1923 76.4342 38.6398 72.7616 41.1723 70.7809L44.1418 68.4572C46.6724 66.4753 50.3449 66.9229 52.3267 69.456C54.308 71.9879 53.8604 75.6604 51.3279 77.641L48.3585 79.9648C47.2942 80.7979 46.0285 81.2016 44.7717 81.2016ZM42.5861 72.5873C41.0505 73.7892 40.7793 76.0166 41.9805 77.5522C43.183 79.0878 45.4086 79.3584 46.9454 78.1578L49.9148 75.8342C51.4504 74.6323 51.7217 72.4048 50.5204 70.8691C49.3185 69.3341 47.0911 69.0629 45.5555 70.2641L42.5861 72.5873Z" fill="#CC0033"/>
<path d="M53.9761 9.39819C53.3505 9.39819 52.8392 8.89563 52.8299 8.26813L52.7237 1.1644C52.7137 0.530648 53.2198 0.009375 53.853 0C54.4842 0.021875 55.008 0.496331 55.0174 1.12946L55.1236 8.23318C55.1336 8.86693 54.6274 9.38821 53.9943 9.39758C53.9886 9.39758 53.9823 9.39819 53.9761 9.39819Z" fill="#CC0033"/>
<path d="M64.4356 11.3402C64.2468 11.3402 64.0549 11.2934 63.878 11.1947C63.3243 10.8865 63.1262 10.1871 63.4343 9.63399L66.8942 3.429C67.2023 2.87588 67.9018 2.67528 68.4549 2.98528C69.0086 3.2934 69.2067 3.99282 68.8986 4.54595L65.4387 10.7509C65.2293 11.1272 64.8381 11.3402 64.4356 11.3402Z" fill="#CC0033"/>
<path d="M43.581 11.6529C43.1904 11.6529 42.8098 11.4535 42.5955 11.0941L38.9511 4.99546C38.6261 4.45171 38.803 3.74666 39.3473 3.42228C39.8892 3.09666 40.5949 3.27418 40.9205 3.81855L44.5649 9.91734C44.8899 10.4611 44.713 11.166 44.1686 11.4904C43.9843 11.6004 43.7817 11.6529 43.581 11.6529Z" fill="#CC0033"/>
<path d="M30.0316 15.3125L23.8716 10.7975C23.3598 10.4213 22.6436 10.535 22.2686 11.0444L0.222347 41.1219C0.0423472 41.3669 -0.0327956 41.6738 0.0134544 41.9751C0.0603294 42.2751 0.22422 42.5456 0.469845 42.725L6.62982 47.2399C6.83419 47.3899 7.0717 47.4626 7.3067 47.4626C7.66045 47.4626 8.00853 47.2995 8.23291 46.9932L30.2791 16.9157C30.4591 16.6707 30.5341 16.3638 30.4879 16.0626C30.441 15.7626 30.2772 15.4918 30.0316 15.3125Z" fill="#BC9500"/>
</svg>
