<svg width="626" height="240" viewBox="0 0 626 240" fill="none" xmlns="http://www.w3.org/2000/svg">
<path d="M158.629 85.2778C152.717 81.8707 148.007 77.2611 144.5 71.3488C140.993 65.4365 139.289 58.9229 139.289 51.6077C139.289 44.2925 140.993 37.7789 144.5 31.8666C148.007 25.9543 152.717 21.3446 158.629 17.9376C164.542 14.5305 171.055 12.8269 178.07 12.8269C183.682 12.8269 188.892 13.829 193.702 15.8332C198.512 17.8373 202.521 20.6432 205.828 24.2507L198.011 32.067C193.001 26.4553 186.387 23.5492 178.17 23.5492C173.36 23.5492 168.851 24.7517 164.642 27.0565C160.433 29.3614 157.126 32.6682 154.621 36.9772C152.116 41.2862 150.913 46.0962 150.913 51.6077C150.913 57.1192 152.216 62.0294 154.721 66.2382C157.226 70.4469 160.533 73.7538 164.742 76.0586C168.951 78.3634 173.46 79.5659 178.37 79.5659C186.187 79.5659 192.5 77.1609 197.41 72.2507C199.013 70.7476 200.316 68.8436 201.419 66.4386C202.521 64.1338 203.222 61.5284 203.623 58.7225H178.17V48.7016H214.145C214.546 51.0064 214.746 53.0106 214.746 54.7142C214.746 59.424 214.045 63.8332 212.542 68.1421C211.039 72.3509 208.734 76.1588 205.627 79.3655C202.32 82.973 198.312 85.6787 193.702 87.5826C189.093 89.4866 183.882 90.3885 178.17 90.3885C171.155 90.3885 164.642 88.6849 158.73 85.2778H158.629Z" fill="#202124"/>
<path d="M233.687 86.6797C229.478 84.2747 226.171 80.8676 223.866 76.5586C221.562 72.2496 220.359 67.5398 220.359 62.329C220.359 57.1181 221.562 52.3081 223.866 48.0993C226.171 43.8906 229.478 40.4835 233.687 37.9782C237.896 35.5732 242.605 34.2705 247.917 34.2705C253.228 34.2705 257.837 35.473 262.046 37.9782C266.255 40.4835 269.562 43.7903 271.866 48.0993C274.171 52.4083 275.374 57.1181 275.374 62.2288C275.374 67.3394 274.171 72.2496 271.866 76.4584C269.562 80.7674 266.255 84.0743 262.046 86.5795C257.837 88.9845 253.127 90.2872 247.816 90.2872C242.505 90.2872 237.795 89.0847 233.587 86.5795L233.687 86.6797ZM256.134 77.9615C258.639 76.5586 260.643 74.4542 262.146 71.7486C263.649 69.0429 264.451 65.9365 264.451 62.329C264.451 58.7214 263.649 55.615 262.146 52.9093C260.643 50.2037 258.639 48.0993 256.134 46.6964C253.628 45.2935 250.923 44.4918 247.917 44.4918C244.91 44.4918 242.205 45.1933 239.699 46.6964C237.194 48.0993 235.19 50.2037 233.687 52.9093C232.184 55.615 231.382 58.7214 231.382 62.329C231.382 65.9365 232.184 69.0429 233.687 71.7486C235.19 74.4542 237.194 76.4584 239.699 77.9615C242.205 79.3645 244.91 80.1661 247.917 80.1661C250.923 80.1661 253.628 79.4647 256.134 77.9615Z" fill="#202124"/>
<path d="M294.113 86.6797C289.904 84.2747 286.597 80.8676 284.292 76.5586C281.988 72.2496 280.785 67.5398 280.785 62.329C280.785 57.1181 281.988 52.3081 284.292 48.0993C286.597 43.8906 289.904 40.4835 294.113 37.9782C298.322 35.5732 303.032 34.2705 308.343 34.2705C313.654 34.2705 318.263 35.473 322.472 37.9782C326.681 40.4835 329.988 43.7903 332.292 48.0993C334.597 52.4083 335.8 57.1181 335.8 62.2288C335.8 67.3394 334.597 72.2496 332.292 76.4584C329.988 80.7674 326.681 84.0743 322.472 86.5795C318.263 88.9845 313.553 90.2872 308.242 90.2872C302.931 90.2872 298.221 89.0847 294.013 86.5795L294.113 86.6797ZM316.56 77.9615C319.065 76.5586 321.069 74.4542 322.572 71.7486C324.075 69.0429 324.877 65.9365 324.877 62.329C324.877 58.7214 324.075 55.615 322.572 52.9093C321.069 50.2037 319.065 48.0993 316.56 46.6964C314.054 45.2935 311.349 44.4918 308.343 44.4918C305.336 44.4918 302.631 45.1933 300.125 46.6964C297.62 48.0993 295.616 50.2037 294.113 52.9093C292.61 55.615 291.808 58.7214 291.808 62.329C291.808 65.9365 292.61 69.0429 294.113 71.7486C295.616 74.4542 297.62 76.4584 300.125 77.9615C302.631 79.3645 305.336 80.1661 308.343 80.1661C311.349 80.1661 314.054 79.4647 316.56 77.9615Z" fill="#202124"/>
<path d="M351.934 108.325C347.725 105.419 344.819 101.811 343.416 97.7027L353.738 93.3937C354.84 96.1995 356.644 98.5043 359.149 100.208C361.654 101.911 364.56 102.813 367.867 102.813C372.777 102.813 376.585 101.31 379.391 98.3039C382.097 95.2976 383.5 91.0889 383.5 85.6776V80.567H382.898C381.195 83.0722 378.89 85.0764 375.984 86.5795C373.078 88.0826 369.771 88.7841 366.063 88.7841C361.554 88.7841 357.445 87.6818 353.738 85.377C349.93 83.0722 347.024 79.9657 344.719 75.7569C342.514 71.6484 341.312 66.9386 341.312 61.5273C341.312 56.116 342.414 51.5064 344.719 47.2976C346.923 43.1891 349.93 39.9824 353.738 37.6776C357.445 35.3728 361.654 34.2705 366.063 34.2705C369.671 34.2705 372.978 34.972 375.984 36.4751C378.89 37.9782 381.195 39.9824 382.999 42.4876H383.6V35.8738H394.222V85.878C394.222 91.4897 393.12 96.3999 390.915 100.408C388.71 104.417 385.604 107.523 381.696 109.527C377.688 111.632 373.178 112.634 367.967 112.634C361.554 112.634 356.243 111.131 352.034 108.225L351.934 108.325ZM375.784 76.5586C378.088 75.1557 379.992 73.2517 381.395 70.7465C382.798 68.2413 383.5 65.1348 383.5 61.6275C383.5 58.1202 382.798 54.9135 381.395 52.4083C379.992 49.8029 378.088 47.8989 375.784 46.5962C373.479 45.2935 370.873 44.592 368.067 44.592C365.262 44.592 362.656 45.2935 360.251 46.5962C357.846 47.8989 355.942 49.9031 354.539 52.4083C353.136 55.0137 352.435 58.1202 352.435 61.6275C352.435 65.1348 353.136 68.2413 354.539 70.8467C355.942 73.4521 357.846 75.3561 360.251 76.6588C362.656 77.9615 365.262 78.663 368.067 78.663C370.873 78.663 373.479 77.9615 375.784 76.6588V76.5586Z" fill="#202124"/>
<path d="M403.741 14.7305H414.865V88.7847H403.741V14.7305Z" fill="#202124"/>
<path d="M435.607 86.7799C431.498 84.3749 428.291 81.068 425.987 76.759C423.682 72.5503 422.479 67.7402 422.479 62.4292C422.479 57.4187 423.582 52.7089 425.886 48.3999C428.091 44.091 431.197 40.6839 435.206 38.0784C439.214 35.5732 443.723 34.2705 448.734 34.2705C454.045 34.2705 458.655 35.473 462.463 37.7778C466.371 40.0826 469.277 43.2893 471.281 47.3979C473.285 51.5064 474.287 56.116 474.287 61.2267C474.287 62.6296 474.287 63.7319 474.087 64.734H433.302C433.803 69.7444 435.607 73.6525 438.713 76.3582C441.82 79.0638 445.427 80.4667 449.536 80.4667C452.943 80.4667 455.849 79.6651 458.254 78.1619C460.659 76.5586 462.563 74.5544 464.066 72.0492L473.285 76.4584C470.88 80.7674 467.673 84.1745 463.665 86.6797C459.657 89.1849 454.847 90.3874 449.335 90.3874C444.225 90.3874 439.615 89.1849 435.506 86.7799H435.607ZM463.364 56.3164C463.264 54.4125 462.563 52.5085 461.46 50.5043C460.358 48.6004 458.755 46.997 456.65 45.6943C454.546 44.3916 451.941 43.7903 448.834 43.7903C445.126 43.7903 441.92 44.8926 439.415 47.1974C436.809 49.5022 435.005 52.5085 434.103 56.3164H463.364Z" fill="#202124"/>
<path d="M8.41846 138.79H33.8715C38.2807 138.79 42.289 139.792 45.9967 141.696C49.7045 143.6 52.6105 146.306 54.8151 149.813C57.0197 153.32 58.122 157.128 58.122 161.537C58.122 165.947 57.0197 169.755 54.8151 173.262C52.6105 176.769 49.7045 179.375 45.9967 181.279C42.289 183.183 38.2807 184.185 33.8715 184.185H19.8423V212.945H8.41846V138.89V138.79ZM34.1721 173.362C37.98 173.362 40.9863 172.16 43.2911 169.755C45.5959 167.35 46.7984 164.644 46.7984 161.437C46.7984 158.231 45.5959 155.525 43.2911 153.12C40.9863 150.715 37.8798 149.512 34.1721 149.512H19.8423V173.262H34.1721V173.362Z" fill="#202124"/>
<path d="M66.3372 150.112C64.834 148.609 64.1326 146.805 64.1326 144.801C64.1326 142.797 64.834 140.993 66.3372 139.49C67.8403 138.087 69.6441 137.286 71.6482 137.286C73.6524 137.286 75.4562 137.987 76.9593 139.49C78.4624 140.893 79.1639 142.697 79.1639 144.801C79.1639 146.906 78.4624 148.609 76.9593 150.112C75.4562 151.615 73.7526 152.317 71.6482 152.317C69.5438 152.317 67.8403 151.615 66.3372 150.112ZM66.0365 160.033H77.1597V212.743H66.0365V160.033Z" fill="#202124"/>
<path d="M102.214 186.087L83.976 160.133H96.903L108.728 177.469H109.028L120.252 160.133H133.68L115.141 186.087L133.78 212.843H120.753L108.728 194.906H108.427L96.7025 212.843H83.5752L102.114 186.087H102.214Z" fill="#202124"/>
<path d="M148.71 210.84C144.602 208.435 141.395 205.128 139.09 200.819C136.785 196.61 135.583 191.8 135.583 186.489C135.583 181.479 136.685 176.769 138.99 172.46C141.194 168.151 144.301 164.744 148.309 162.138C152.318 159.633 156.827 158.33 161.837 158.33C167.149 158.33 171.758 159.533 175.566 161.838C179.474 164.142 182.38 167.349 184.384 171.458C186.389 175.566 187.391 180.176 187.391 185.286C187.391 186.689 187.391 187.792 187.19 188.794H146.405C146.906 193.804 148.71 197.712 151.817 200.418C154.923 203.124 158.531 204.527 162.639 204.527C166.046 204.527 168.952 203.725 171.357 202.222C173.762 200.618 175.666 198.614 177.169 196.109L186.389 200.518C183.984 204.827 180.777 208.234 176.769 210.74C172.76 213.245 167.95 214.447 162.439 214.447C157.328 214.447 152.718 213.245 148.61 210.84H148.71ZM176.568 180.476C176.468 178.572 175.766 176.669 174.664 174.664C173.562 172.76 171.959 171.157 169.854 169.854C167.75 168.552 165.144 167.95 162.038 167.95C158.33 167.95 155.123 169.053 152.618 171.357C150.013 173.662 148.209 176.669 147.307 180.476H176.568Z" fill="#202124"/>
<path d="M195.809 138.79H206.932V212.844H195.809V138.79Z" fill="#202124"/>
<path d="M235.089 138.79H247.716L259.54 186.89L260.743 193.304H261.344L262.847 186.89L277.778 138.79H289.202L303.432 186.89L304.935 193.203H305.536L306.739 186.89L318.563 138.79H331.089L311.549 212.844H299.524L285.394 163.742L283.691 156.828H283.089L281.286 163.742L266.455 212.844H254.73L234.889 138.79H235.089Z" fill="#202124"/>
<path d="M340.71 212.243C337.704 210.74 335.399 208.635 333.796 206.03C332.092 203.324 331.291 200.218 331.291 196.811C331.291 193.203 332.293 189.997 334.197 187.391C336.101 184.786 338.706 182.681 342.013 181.278C345.32 179.875 349.028 179.174 353.036 179.174C356.143 179.174 358.948 179.475 361.454 180.076C363.959 180.677 365.963 181.278 367.466 182.08V179.274C367.466 175.867 366.264 173.161 363.758 171.057C361.253 168.953 358.046 167.951 354.138 167.951C351.433 167.951 348.928 168.552 346.523 169.754C344.117 170.957 342.214 172.56 340.71 174.665L333.095 168.752C335.399 165.546 338.406 162.94 342.113 161.237C345.821 159.533 350.03 158.531 354.439 158.531C362.055 158.531 367.867 160.435 372.076 164.143C376.285 167.951 378.289 173.161 378.289 179.875V212.844H367.466V206.331H366.865C365.362 208.635 363.157 210.64 360.351 212.143C357.545 213.746 354.339 214.447 350.731 214.447C346.923 214.447 343.516 213.746 340.61 212.243H340.71ZM360.351 203.324C362.656 202.022 364.36 200.218 365.662 197.913C366.965 195.608 367.566 193.203 367.566 190.598C365.863 189.596 364.059 188.894 361.854 188.293C359.75 187.792 357.445 187.491 355.14 187.491C350.831 187.491 347.625 188.393 345.621 190.097C343.616 191.8 342.614 194.105 342.614 196.911C342.614 199.416 343.516 201.42 345.42 203.024C347.324 204.627 349.729 205.429 352.836 205.429C355.541 205.429 358.147 204.727 360.351 203.425V203.324Z" fill="#202124"/>
<path d="M404.342 213.344C402.338 212.643 400.635 211.54 399.332 210.238C396.326 207.332 394.923 203.323 394.923 198.012V169.753H385.704V160.033H394.923V145.102H406.046V160.033H418.973V169.753H406.046V195.707C406.046 198.714 406.647 200.718 407.75 201.92C408.952 203.223 410.756 203.925 413.161 203.925C414.363 203.925 415.466 203.724 416.367 203.424C417.269 203.123 418.271 202.622 419.374 201.92V212.743C417.069 213.745 414.263 214.246 410.956 214.246C408.651 214.246 406.447 213.845 404.342 213.144V213.344Z" fill="#202124"/>
<path d="M438.012 210.84C433.903 208.435 430.696 205.128 428.392 200.819C426.087 196.61 424.884 191.8 424.884 186.389C424.884 180.978 426.087 176.167 428.392 171.959C430.696 167.75 433.903 164.443 438.012 161.938C442.12 159.533 446.83 158.33 452.041 158.33C457.853 158.33 462.763 159.633 466.772 162.238C470.78 164.844 473.686 168.351 475.49 172.961L465.369 177.069C462.863 171.458 458.354 168.552 451.84 168.552C448.934 168.552 446.229 169.253 443.824 170.756C441.419 172.259 439.415 174.364 438.012 176.969C436.609 179.675 435.907 182.781 435.907 186.289C435.907 189.796 436.609 192.902 438.012 195.608C439.415 198.314 441.319 200.418 443.824 201.821C446.229 203.324 448.934 204.026 451.84 204.026C455.147 204.026 457.953 203.324 460.358 201.821C462.763 200.318 464.567 198.213 465.87 195.307L475.891 199.616C473.786 204.126 470.78 207.633 466.671 210.238C462.563 212.844 457.753 214.147 451.941 214.147C446.73 214.147 442.02 212.944 437.911 210.539L438.012 210.84Z" fill="#202124"/>
<path d="M484.51 138.79H495.634V159.032L495.032 167.349H495.634C497.137 164.744 499.442 162.64 502.448 160.936C505.454 159.232 508.761 158.431 512.369 158.431C518.782 158.431 523.692 160.335 527.099 164.143C530.506 167.951 532.21 173.061 532.21 179.475V212.744H521.187V180.878C521.187 176.769 520.085 173.763 517.98 171.658C515.776 169.554 513.07 168.552 509.663 168.552C507.158 168.552 504.753 169.253 502.648 170.757C500.544 172.26 498.84 174.264 497.638 176.669C496.435 179.174 495.834 181.779 495.834 184.585V212.744H484.711V138.69L484.51 138.79Z" fill="#202124"/>
<path d="M600.352 198.613H567.082V189.895L599.45 141.995H611.475V188.191H620.494V198.513H611.475V212.642H600.452V198.513L600.352 198.613ZM600.352 188.292V158.53H599.75L579.608 188.292H600.352Z" fill="#202124"/>
</svg>
