<svg width="865" height="129" viewBox="0 0 865 129" fill="none" xmlns="http://www.w3.org/2000/svg">
<g clip-path="url(#clip0_6_1323)">
<path d="M24.8302 93.4815C17.2157 89.145 11.175 83.1909 6.70522 75.6221C2.2354 68.0544 0 59.6221 0 50.3274C0 41.0326 2.2354 32.6013 6.70621 25.0316C11.175 17.4638 17.2167 11.5107 24.8312 7.17322C32.4427 2.83771 40.7635 0.667969 49.7947 0.667969C57.051 0.667969 63.7364 1.95231 69.8427 4.518C75.952 7.08667 81.1301 10.6721 85.3781 15.2732L75.2874 25.3639C68.825 18.1075 60.3261 14.4763 49.7947 14.4763C43.5968 14.4763 37.7979 15.9606 32.3999 18.9243C26.9999 21.8909 22.7062 26.1179 19.5197 31.6045C16.3323 37.094 14.7385 43.3346 14.7385 50.3274C14.7385 57.4106 16.3532 63.6711 19.5864 69.1159C22.8156 74.5607 27.1094 78.7658 32.4656 81.7295C37.8208 84.6961 43.6406 86.1774 49.927 86.1774C59.9301 86.1774 68.0719 83.0377 74.3593 76.7503C76.3947 74.8054 78.0969 72.3252 79.4707 69.3149C80.8426 66.3065 81.7957 62.9877 82.3259 59.3575H49.6624V46.4773H95.8697C96.4009 49.4877 96.6665 52.0544 96.6665 54.1784C96.6665 60.1991 95.7155 65.9304 93.8113 71.3732C91.9082 76.8179 88.9655 81.621 84.9821 85.7804C80.7332 90.3846 75.6416 93.9033 69.7124 96.3377C63.7801 98.7711 57.1416 99.9887 49.7957 99.9887C40.7655 99.9887 32.4437 97.82 24.8322 93.4825L24.8302 93.4815Z" fill="#202124"/>
<path d="M118.837 95.2732C113.437 92.1324 109.229 87.8168 106.222 82.3273C103.212 76.8388 101.708 70.7315 101.708 64.0024C101.708 57.2733 103.212 51.1689 106.222 45.6794C109.23 40.1919 113.437 35.8763 118.837 32.7336C124.235 29.5929 130.342 28.019 137.16 28.019C143.886 28.019 149.949 29.6118 155.351 32.7983C160.749 35.9857 164.954 40.3232 167.965 45.8117C170.973 51.3013 172.479 57.3638 172.479 64.0014C172.479 70.7295 170.973 76.8378 167.965 82.3263C164.954 87.8158 160.773 92.1305 155.418 95.2722C150.061 98.4129 143.976 99.9867 137.16 99.9867C130.343 99.9867 124.235 98.4149 118.837 95.2732ZM147.651 84.0544C150.838 82.195 153.403 79.5398 155.352 76.0867C157.298 72.6336 158.273 68.6065 158.273 64.0034C158.273 59.4003 157.298 55.3721 155.352 51.9211C153.403 48.468 150.838 45.8137 147.651 43.9534C144.465 42.095 140.967 41.1648 137.161 41.1648C133.354 41.1648 129.834 42.095 126.605 43.9534C123.372 45.8127 120.783 48.468 118.838 51.9211C116.889 55.3721 115.917 59.4022 115.917 64.0034C115.917 68.6045 116.89 72.6346 118.838 76.0867C120.783 79.5398 123.372 82.194 126.605 84.0544C129.835 85.9127 133.354 86.8429 137.161 86.8429C140.967 86.8429 144.465 85.9127 147.651 84.0544Z" fill="#202124"/>
<path d="M193.459 95.2732C188.059 92.1324 183.855 87.8168 180.846 82.3273C177.836 76.8388 176.331 70.7315 176.331 64.0024C176.331 57.2733 177.836 51.1689 180.846 45.6794C183.855 40.1919 188.059 35.8763 193.459 32.7336C198.858 29.5929 204.966 28.019 211.784 28.019C218.511 28.019 224.574 29.6118 229.975 32.7983C235.373 35.9857 239.578 40.3232 242.589 45.8117C245.598 51.3013 247.103 57.3638 247.103 64.0014C247.103 70.7295 245.598 76.8378 242.589 82.3263C239.578 87.8158 235.395 92.1305 230.04 95.2722C224.684 98.4129 218.598 99.9867 211.784 99.9867C204.969 99.9867 198.859 98.4149 193.459 95.2732ZM222.272 84.0544C225.46 82.195 228.027 79.5398 229.974 76.0867C231.919 72.6336 232.894 68.6065 232.894 64.0034C232.894 59.4003 231.919 55.3721 229.974 51.9211C228.026 48.468 225.46 45.8137 222.272 43.9534C219.086 42.095 215.588 41.1648 211.784 41.1648C207.979 41.1648 204.459 42.095 201.228 43.9534C197.995 45.8127 195.408 48.468 193.46 51.9211C191.512 55.3721 190.54 59.4022 190.54 64.0034C190.54 68.6045 191.513 72.6346 193.46 76.0867C195.407 79.5388 197.995 82.194 201.228 84.0544C204.459 85.9127 207.977 86.8429 211.784 86.8429C215.59 86.8429 219.087 85.9127 222.272 84.0544Z" fill="#202124"/>
<path d="M264.562 123.025C259.119 119.261 255.467 114.726 253.607 109.415L266.885 103.838C268.3 107.467 270.623 110.388 273.856 112.601C277.086 114.813 280.827 115.921 285.077 115.921C291.361 115.921 296.274 113.99 299.816 110.132C303.354 106.271 305.125 100.854 305.125 93.8796V87.3733H304.328C302.115 90.6494 299.15 93.215 295.432 95.0744C291.715 96.9328 287.467 97.8629 282.686 97.8629C276.929 97.8629 271.643 96.4164 266.818 93.5234C261.993 90.6314 258.143 86.5307 255.267 81.2262C252.388 75.9217 250.951 69.8493 250.951 63.0087C250.951 56.1682 252.389 50.0967 255.267 44.7922C258.143 39.4878 261.993 35.3651 266.818 32.4274C271.643 29.4896 276.93 28.0212 282.686 28.0212C287.376 28.0212 291.602 28.9733 295.367 30.8764C299.127 32.7815 302.114 35.3711 304.328 38.6441H305.125V30.1462H318.802V94.2795C318.802 101.537 317.387 107.757 314.554 112.935C311.72 118.114 307.759 122.031 302.671 124.687C297.579 127.342 291.716 128.67 285.078 128.67C276.846 128.67 270.006 126.788 264.563 123.027L264.562 123.025ZM295.167 82.235C298.176 80.492 300.59 77.9831 302.404 74.714C304.219 71.445 305.126 67.5432 305.126 63.0087C305.126 58.3857 304.219 54.4193 302.404 51.1065C300.59 47.7937 298.176 45.2867 295.167 43.5855C292.157 41.8843 288.838 41.0337 285.209 41.0337C281.581 41.0337 278.239 41.8843 275.184 43.5855C272.131 45.2867 269.696 47.7937 267.881 51.1065C266.067 54.4193 265.159 58.3867 265.159 63.0087C265.159 67.5432 266.067 71.4669 267.881 74.7807C269.696 78.0945 272.13 80.5995 275.184 82.3007C278.239 84.0018 281.58 84.8514 285.209 84.8514C288.839 84.8514 292.157 83.979 295.167 82.235Z" fill="#202124"/>
<path d="M327.43 2.79102H341.771V97.8628H327.43V2.79102Z" fill="#202124"/>
<path d="M366.268 95.34C360.999 92.2431 356.884 87.9712 353.919 82.5265C350.952 77.0837 349.471 70.9545 349.471 64.1369C349.471 57.6764 350.909 51.6785 353.786 46.1452C356.661 40.6139 360.667 36.2088 365.802 32.9338C370.934 29.6597 376.734 28.0212 383.197 28.0212C390.012 28.0212 395.897 29.5055 400.856 32.4692C405.813 35.4358 409.597 39.5295 412.209 44.7514C414.818 49.9763 416.125 55.9056 416.125 62.5441C416.125 64.316 416.036 65.8202 415.861 67.0587H363.545C364.163 73.5212 366.466 78.5004 370.449 81.9972C374.433 85.4951 379.082 87.242 384.391 87.242C388.729 87.242 392.445 86.2452 395.545 84.2545C398.642 82.2629 401.122 79.6305 402.981 76.3535L414.797 82.0629C411.698 87.64 407.583 92.0222 402.448 95.2077C397.314 98.3952 391.163 99.9889 383.993 99.9889C377.44 99.9889 371.532 98.438 366.267 95.341L366.268 95.34ZM401.92 56.3025C401.742 53.8264 400.945 51.3452 399.531 48.8671C398.113 46.3909 396.056 44.3326 393.357 42.6931C390.656 41.0556 387.314 40.2369 383.332 40.2369C378.55 40.2369 374.502 41.6983 371.183 44.6191C367.863 47.539 365.583 51.4358 364.344 56.3035H401.921L401.92 56.3025Z" fill="#202124"/>
<path d="M453.322 2.79102H485.985C491.65 2.79102 496.85 4.03257 501.587 6.50873C506.322 8.98886 510.085 12.441 512.875 16.866C515.661 21.294 517.056 26.2931 517.056 31.8712C517.056 37.4492 515.661 42.4493 512.875 46.8743C510.085 51.3024 506.322 54.7535 501.587 57.2316C496.851 59.7107 491.65 60.9493 485.985 60.9493H467.927V97.8618H453.322V2.79102ZM486.384 47.14C491.251 47.14 495.168 45.6129 498.135 42.5597C501.101 39.5056 502.584 35.943 502.584 31.8712C502.584 27.7993 501.1 24.2358 498.135 21.1826C495.168 18.1285 491.251 16.6014 486.384 16.6014H467.928V47.14H486.384Z" fill="#202124"/>
<path d="M526.698 17.3315C524.793 15.4294 523.843 13.1482 523.843 10.494C523.843 7.83979 524.793 5.5815 526.698 3.72115C528.6 1.86279 530.881 0.932617 533.535 0.932617C536.19 0.932617 538.47 1.86279 540.374 3.72115C542.276 5.58051 543.229 7.8378 543.229 10.494C543.229 13.1502 542.277 15.4294 540.374 17.3315C538.471 19.2337 536.191 20.1867 533.535 20.1867C530.88 20.1867 528.6 19.2367 526.698 17.3315ZM526.366 30.1451H540.706V97.8628H526.366V30.1451Z" fill="#202124"/>
<path d="M572.178 63.4731L548.809 30.145H565.407L580.542 52.4523H580.942L595.414 30.145H612.676L588.908 63.4731L612.809 97.8627H596.079L580.676 74.8919H580.278L565.275 97.8627H548.411L572.178 63.4731Z" fill="#202124"/>
<path d="M627.894 95.34C622.625 92.2431 618.51 87.9712 615.545 82.5265C612.578 77.0837 611.097 70.9545 611.097 64.1369C611.097 57.6764 612.535 51.6785 615.413 46.1452C618.288 40.6139 622.293 36.2088 627.428 32.9338C632.561 29.6597 638.361 28.0212 644.823 28.0212C651.638 28.0212 657.525 29.5055 662.483 32.4692C667.438 35.4358 671.222 39.5295 673.835 44.7514C676.444 49.9763 677.751 55.9056 677.751 62.5441C677.751 64.316 677.664 65.8202 677.488 67.0587H625.17C625.788 73.5212 628.093 78.5004 632.075 81.9972C636.059 85.4951 640.707 87.242 646.017 87.242C650.353 87.242 654.071 86.2452 657.169 84.2545C660.267 82.2638 662.746 79.6305 664.605 76.3535L676.423 82.0629C673.323 87.64 669.208 92.0222 664.074 95.2077C658.939 98.3952 652.789 99.9889 645.618 99.9889C639.065 99.9889 633.158 98.438 627.892 95.341L627.894 95.34ZM663.545 56.3025C663.367 53.8264 662.57 51.3452 661.155 48.8671C659.738 46.3909 657.682 44.3326 654.982 42.6931C652.281 41.0556 648.939 40.2369 644.956 40.2369C640.177 40.2369 636.127 41.6983 632.808 44.6191C629.488 47.539 627.208 51.4358 625.969 56.3035H663.546L663.545 56.3025Z" fill="#202124"/>
<path d="M686.001 2.79102H700.343V97.8628H686.001V2.79102Z" fill="#202124"/>
<path d="M761.186 24.9651L746.315 35.587L739.011 24.5661L765.302 5.71094H775.526V96.5328H761.185V24.9651H761.186Z" fill="#202124"/>
<path d="M807.858 92.4181C802.237 88.2577 797.899 82.5712 794.846 75.3566C791.793 68.142 790.265 60.0649 790.265 51.1243C790.265 42.1837 791.793 34.1066 794.846 26.892C797.899 19.6774 802.237 13.9909 807.858 9.82852C813.48 5.6681 820.008 3.58789 827.445 3.58789C834.881 3.58789 841.429 5.66909 847.096 9.82852C852.76 13.9899 857.12 19.6764 860.175 26.892C863.23 34.1076 864.756 42.1847 864.756 51.1243C864.756 60.0639 863.229 68.142 860.175 75.3566C857.121 82.5712 852.76 88.2577 847.096 92.4181C841.429 96.5785 834.88 98.6587 827.445 98.6587C820.009 98.6587 813.48 96.5775 807.858 92.4181ZM839.659 80.667C843.112 77.7014 845.745 73.6524 847.56 68.5171C849.374 63.3847 850.282 57.5858 850.282 51.1233C850.282 44.6608 849.374 38.84 847.56 33.6619C845.745 28.4837 843.112 24.4347 839.659 21.5129C836.206 18.5921 832.134 17.1306 827.444 17.1306C822.84 17.1306 818.833 18.5921 815.427 21.5129C812.018 24.4338 809.406 28.4837 807.593 33.6619C805.777 38.84 804.87 44.6628 804.87 51.1233C804.87 57.5838 805.777 63.3837 807.593 68.5171C809.406 73.6524 812.018 77.7024 815.427 80.667C818.833 83.6337 822.841 85.115 827.444 85.115C832.134 85.115 836.206 83.6337 839.659 80.667Z" fill="#202124"/>
</g>
<defs>
<clipPath id="clip0_6_1323">
<rect width="864.755" height="128" fill="white" transform="translate(0 0.667969)"/>
</clipPath>
</defs>
</svg>
