<svg width="1090" height="128" viewBox="0 0 1090 128" fill="none" xmlns="http://www.w3.org/2000/svg">
<g clip-path="url(#clip0_6_1454)">
<path d="M24.8302 92.8135C17.2157 88.477 11.175 82.5229 6.70522 74.9542C2.2354 67.3864 0 58.9542 0 49.6594C0 40.3646 2.2354 31.9333 6.70621 24.3636C11.175 16.7959 17.2167 10.8428 24.8312 6.50525C32.4427 2.16974 40.7635 0 49.7947 0C57.051 0 63.7364 1.28434 69.8427 3.85003C75.952 6.4187 81.1301 10.0041 85.3781 14.6052L75.2874 24.6959C68.825 17.4395 60.3261 13.8084 49.7947 13.8084C43.5968 13.8084 37.7979 15.2927 32.3999 18.2563C26.9999 21.2229 22.7062 25.45 19.5197 30.9365C16.3323 36.426 14.7385 42.6667 14.7385 49.6594C14.7385 56.7426 16.3532 63.0032 19.5864 68.4479C22.8156 73.8927 27.1094 78.0979 32.4656 81.0615C37.8208 84.0281 43.6406 85.5094 49.927 85.5094C59.9301 85.5094 68.0719 82.3697 74.3593 76.0823C76.3947 74.1374 78.0969 71.6573 79.4707 68.6469C80.8426 65.6385 81.7957 62.3197 82.3259 58.6895H49.6624V45.8094H95.8697C96.4009 48.8197 96.6665 51.3864 96.6665 53.5104C96.6665 59.5312 95.7155 65.2625 93.8113 70.7052C91.9082 76.15 88.9655 80.9531 84.9821 85.1125C80.7332 89.7166 75.6416 93.2353 69.7124 95.6697C63.7801 98.1031 57.1416 99.3208 49.7957 99.3208C40.7655 99.3208 32.4437 97.152 24.8322 92.8145L24.8302 92.8135Z" fill="#202124"/>
<path d="M118.836 94.6052C113.436 91.4645 109.229 87.1489 106.222 81.6593C103.211 76.1708 101.708 70.0635 101.708 63.3344C101.708 56.6053 103.211 50.501 106.222 45.0115C109.23 39.5239 113.436 35.2083 118.836 32.0656C124.234 28.9249 130.342 27.3511 137.159 27.3511C143.885 27.3511 149.949 28.9438 155.351 32.1303C160.749 35.3177 164.954 39.6552 167.965 45.1438C170.973 50.6333 172.479 56.6958 172.479 63.3334C172.479 70.0615 170.973 76.1698 167.965 81.6584C164.954 87.1479 160.773 91.4625 155.418 94.6042C150.06 97.7449 143.976 99.3187 137.159 99.3187C130.343 99.3187 124.234 97.7469 118.836 94.6052ZM147.651 83.3864C150.837 81.527 153.403 78.8718 155.352 75.4187C157.298 71.9656 158.273 67.9385 158.273 63.3354C158.273 58.7323 157.298 54.7042 155.352 51.2531C153.403 47.8 150.837 45.1458 147.651 43.2854C144.464 41.4271 140.967 40.4969 137.16 40.4969C133.354 40.4969 129.833 41.4271 126.605 43.2854C123.372 45.1448 120.782 47.8 118.837 51.2531C116.889 54.7042 115.917 58.7343 115.917 63.3354C115.917 67.9365 116.89 71.9666 118.837 75.4187C120.782 78.8718 123.372 81.526 126.605 83.3864C129.834 85.2447 133.354 86.1749 137.16 86.1749C140.967 86.1749 144.464 85.2447 147.651 83.3864Z" fill="#202124"/>
<path d="M193.459 94.6052C188.059 91.4645 183.855 87.1489 180.846 81.6593C177.836 76.1708 176.331 70.0635 176.331 63.3344C176.331 56.6053 177.836 50.501 180.846 45.0115C183.855 39.5239 188.059 35.2083 193.459 32.0656C198.858 28.9249 204.966 27.3511 211.784 27.3511C218.511 27.3511 224.574 28.9438 229.975 32.1303C235.373 35.3177 239.578 39.6552 242.589 45.1438C245.598 50.6333 247.103 56.6958 247.103 63.3334C247.103 70.0615 245.598 76.1698 242.589 81.6584C239.578 87.1479 235.395 91.4625 230.04 94.6042C224.684 97.7449 218.598 99.3187 211.784 99.3187C204.969 99.3187 198.859 97.7469 193.459 94.6052ZM222.272 83.3864C225.46 81.527 228.027 78.8718 229.974 75.4187C231.919 71.9656 232.894 67.9385 232.894 63.3354C232.894 58.7323 231.919 54.7042 229.974 51.2531C228.026 47.8 225.46 45.1458 222.272 43.2854C219.086 41.4271 215.588 40.4969 211.784 40.4969C207.979 40.4969 204.459 41.4271 201.228 43.2854C197.995 45.1448 195.408 47.8 193.46 51.2531C191.512 54.7042 190.54 58.7343 190.54 63.3354C190.54 67.9365 191.513 71.9666 193.46 75.4187C195.407 78.8708 197.995 81.526 201.228 83.3864C204.459 85.2447 207.977 86.1749 211.784 86.1749C215.59 86.1749 219.087 85.2447 222.272 83.3864Z" fill="#202124"/>
<path d="M264.562 122.357C259.119 118.593 255.467 114.058 253.607 108.747L266.885 103.17C268.3 106.799 270.623 109.72 273.856 111.934C277.086 114.145 280.827 115.253 285.077 115.253C291.361 115.253 296.274 113.322 299.816 109.464C303.354 105.603 305.125 100.186 305.125 93.2116V86.7054H304.328C302.115 89.9814 299.15 92.5471 295.432 94.4064C291.715 96.2648 287.467 97.195 282.686 97.195C276.929 97.195 271.643 95.7485 266.818 92.8555C261.993 89.9635 258.143 85.8627 255.267 80.5583C252.388 75.2538 250.951 69.1813 250.951 62.3408C250.951 55.5003 252.389 49.4288 255.267 44.1243C258.143 38.8198 261.993 34.6972 266.818 31.7594C271.643 28.8217 276.93 27.3533 282.686 27.3533C287.376 27.3533 291.602 28.3053 295.367 30.2085C299.127 32.1136 302.114 34.7031 304.328 37.9762H305.125V29.4782H318.802V93.6115C318.802 100.869 317.387 107.089 314.554 112.267C311.72 117.446 307.759 121.363 302.671 124.019C297.579 126.674 291.716 128.002 285.078 128.002C276.846 128.002 270.006 126.12 264.563 122.359L264.562 122.357ZM295.167 81.567C298.176 79.8241 300.59 77.3151 302.404 74.0461C304.219 70.777 305.126 66.8752 305.126 62.3408C305.126 57.7178 304.219 53.7513 302.404 50.4385C300.59 47.1257 298.176 44.6187 295.167 42.9175C292.157 41.2164 288.838 40.3658 285.209 40.3658C281.581 40.3658 278.239 41.2164 275.184 42.9175C272.131 44.6187 269.696 47.1257 267.881 50.4385C266.067 53.7513 265.159 57.7187 265.159 62.3408C265.159 66.8752 266.067 70.7989 267.881 74.1127C269.696 77.4265 272.13 79.9315 275.184 81.6327C278.239 83.3339 281.58 84.1835 285.209 84.1835C288.839 84.1835 292.157 83.311 295.167 81.567Z" fill="#202124"/>
<path d="M327.43 2.12305H341.771V97.1949H327.43V2.12305Z" fill="#202124"/>
<path d="M366.268 94.6721C361 91.5751 356.884 87.3033 353.919 81.8585C350.952 76.4157 349.471 70.2866 349.471 63.4689C349.471 57.0084 350.909 51.0105 353.786 45.4773C356.661 39.9459 360.667 35.5408 365.803 32.2658C370.934 28.9918 376.734 27.3533 383.197 27.3533C390.012 27.3533 395.898 28.8376 400.856 31.8012C405.813 34.7678 409.598 38.8616 412.209 44.0835C414.818 49.3084 416.126 55.2376 416.126 61.8762C416.126 63.648 416.036 65.1522 415.861 66.3908H363.545C364.163 72.8532 366.466 77.8324 370.45 81.3293C374.433 84.8271 379.082 86.5741 384.391 86.5741C388.729 86.5741 392.445 85.5772 395.545 83.5866C398.642 81.5949 401.123 78.9625 402.981 75.6855L414.798 81.3949C411.699 86.972 407.583 91.3543 402.449 94.5397C397.314 97.7272 391.163 99.3209 383.993 99.3209C377.44 99.3209 371.532 97.77 366.267 94.673L366.268 94.6721ZM401.92 55.6346C401.742 53.1584 400.945 50.6773 399.531 48.1991C398.113 45.723 396.056 43.6647 393.357 42.0252C390.656 40.3877 387.314 39.5689 383.332 39.5689C378.551 39.5689 374.503 41.0303 371.183 43.9512C367.863 46.871 365.583 50.7678 364.344 55.6356H401.921L401.92 55.6346Z" fill="#202124"/>
<path d="M453.321 2.12305H485.985C491.649 2.12305 496.849 3.36461 501.587 5.84076C506.321 8.3209 510.085 11.773 512.874 16.198C515.661 20.6261 517.056 25.6251 517.056 31.2032C517.056 36.7813 515.661 41.7813 512.874 46.2064C510.085 50.6344 506.321 54.0855 501.587 56.5636C496.85 59.0428 491.649 60.2814 485.985 60.2814H467.927V97.1939H453.321V2.12305ZM486.384 46.472C491.251 46.472 495.168 44.9449 498.135 41.8917C501.1 38.8376 502.584 35.2751 502.584 31.2032C502.584 27.1313 501.099 23.5678 498.135 20.5146C495.168 17.4605 491.251 15.9334 486.384 15.9334H467.928V46.472H486.384Z" fill="#202124"/>
<path d="M526.698 16.6636C524.793 14.7614 523.843 12.4803 523.843 9.82605C523.843 7.17182 524.793 4.91353 526.698 3.05318C528.6 1.19482 530.881 0.264648 533.535 0.264648C536.19 0.264648 538.47 1.19482 540.374 3.05318C542.276 4.91254 543.229 7.16983 543.229 9.82605C543.229 12.4823 542.277 14.7614 540.374 16.6636C538.471 18.5657 536.191 19.5188 533.535 19.5188C530.88 19.5188 528.6 18.5687 526.698 16.6636ZM526.366 29.4771H540.706V97.1948H526.366V29.4771Z" fill="#202124"/>
<path d="M572.178 62.8052L548.809 29.4771H565.407L580.542 51.7843H580.942L595.414 29.4771H612.676L588.908 62.8052L612.809 97.1948H596.079L580.676 74.2239H580.278L565.275 97.1948H548.411L572.178 62.8052Z" fill="#202124"/>
<path d="M627.894 94.6721C622.625 91.5751 618.51 87.3033 615.545 81.8585C612.578 76.4157 611.097 70.2866 611.097 63.4689C611.097 57.0084 612.535 51.0105 615.413 45.4773C618.288 39.9459 622.293 35.5408 627.428 32.2658C632.561 28.9918 638.361 27.3533 644.823 27.3533C651.638 27.3533 657.525 28.8376 662.483 31.8012C667.438 34.7678 671.222 38.8616 673.835 44.0835C676.444 49.3084 677.751 55.2376 677.751 61.8762C677.751 63.648 677.664 65.1522 677.488 66.3908H625.17C625.788 72.8532 628.093 77.8324 632.075 81.3293C636.059 84.8271 640.707 86.5741 646.017 86.5741C650.353 86.5741 654.071 85.5772 657.169 83.5866C660.267 81.5959 662.746 78.9625 664.605 75.6855L676.423 81.3949C673.323 86.972 669.208 91.3543 664.074 94.5397C658.939 97.7272 652.789 99.3209 645.618 99.3209C639.065 99.3209 633.158 97.77 627.892 94.673L627.894 94.6721ZM663.545 55.6346C663.367 53.1584 662.57 50.6773 661.155 48.1991C659.738 45.723 657.682 43.6647 654.982 42.0252C652.281 40.3877 648.939 39.5689 644.956 39.5689C640.177 39.5689 636.127 41.0303 632.808 43.9512C629.488 46.871 627.208 50.7678 625.969 55.6356H663.546L663.545 55.6346Z" fill="#202124"/>
<path d="M686.001 2.12305H700.343V97.1949H686.001V2.12305Z" fill="#202124"/>
<path d="M761.186 24.2971L746.314 34.919L739.011 23.8982L765.302 5.04297H775.526V95.8648H761.185V24.2971H761.186Z" fill="#202124"/>
<path d="M807.859 91.7501C802.237 87.5897 797.899 81.9032 794.846 74.6886C791.793 67.474 790.265 59.3969 790.265 50.4563C790.265 41.5157 791.793 33.4386 794.846 26.224C797.899 19.0095 802.237 13.323 807.859 9.16055C813.48 5.00013 820.009 2.91992 827.445 2.91992C834.881 2.91992 841.429 5.00113 847.096 9.16055C852.761 13.322 857.12 19.0085 860.175 26.224C863.23 33.4396 864.756 41.5167 864.756 50.4563C864.756 59.396 863.229 67.474 860.175 74.6886C857.121 81.9032 852.761 87.5897 847.096 91.7501C841.429 95.9105 834.88 97.9907 827.445 97.9907C820.01 97.9907 813.48 95.9095 807.859 91.7501ZM839.66 79.9991C843.113 77.0335 845.745 72.9845 847.561 67.8491C849.374 62.7167 850.283 56.9178 850.283 50.4553C850.283 43.9929 849.374 38.1721 847.561 32.9939C845.745 27.8158 843.113 23.7668 839.66 20.8449C836.207 17.9231 832.135 16.4627 827.444 16.4627C822.84 16.4627 818.834 17.9241 815.427 20.8449C812.018 23.7658 809.407 27.8158 807.593 32.9939C805.777 38.1721 804.87 43.9948 804.87 50.4553C804.87 56.9158 805.777 62.7157 807.593 67.8491C809.407 72.9845 812.018 77.0345 815.427 79.9991C818.834 82.9657 822.841 84.447 827.444 84.447C832.135 84.447 836.207 82.9657 839.66 79.9991Z" fill="#202124"/>
<path d="M904.998 0.794922H937.662C943.326 0.794922 948.526 2.03648 953.264 4.51264C957.998 6.99277 961.762 10.4449 964.551 14.8699C967.338 19.2979 968.733 24.297 968.733 29.8751C968.733 35.4531 967.338 40.4532 964.551 44.8782C961.762 49.3063 957.998 52.7574 953.264 55.2355C948.527 57.7146 943.326 58.9532 937.662 58.9532H919.604V95.8657H904.998V0.794922ZM938.061 45.1429C942.928 45.1429 946.845 43.6158 949.812 40.5626C952.777 37.5085 954.261 33.9459 954.261 29.8741C954.261 25.8022 952.776 22.2387 949.812 19.1855C946.845 16.1314 942.928 14.6043 938.061 14.6043H919.605V45.1429H938.061Z" fill="#202124"/>
<path d="M974.988 28.1479H988.531V38.1073H989.328C990.833 34.6542 993.422 31.7781 997.097 29.476C1000.77 27.174 1004.73 26.0229 1008.98 26.0229C1012.08 26.0229 1014.82 26.5104 1017.21 27.4834V42.2229C1013.58 40.6282 1010.09 39.8323 1006.72 39.8323C1001.68 39.8323 997.514 41.7852 994.241 45.6899C990.965 49.5937 989.327 54.341 989.327 59.9311V95.8666H974.988V28.1479Z" fill="#202124"/>
<path d="M1035.42 93.2761C1030.02 90.1354 1025.82 85.8198 1022.81 80.3302C1019.8 74.8417 1018.29 68.7344 1018.29 62.0053C1018.29 55.2762 1019.8 49.1719 1022.81 43.6824C1025.82 38.1948 1030.02 33.8792 1035.42 30.7365C1040.82 27.5958 1046.93 26.022 1053.75 26.022C1060.48 26.022 1066.54 27.6147 1071.94 30.8012C1077.34 33.9886 1081.54 38.3261 1084.55 43.8147C1087.56 49.3042 1089.07 55.3667 1089.07 62.0043C1089.07 68.7324 1087.56 74.8407 1084.55 80.3293C1081.54 85.8188 1077.36 90.1334 1072 93.2751C1066.65 96.4158 1060.56 97.9896 1053.75 97.9896C1046.93 97.9896 1040.82 96.4178 1035.42 93.2761ZM1064.24 82.0573C1067.42 80.1979 1069.99 77.5427 1071.94 74.0896C1073.88 70.6365 1074.86 66.6094 1074.86 62.0063C1074.86 57.4032 1073.88 53.3751 1071.94 49.924C1069.99 46.4709 1067.42 43.8167 1064.24 41.9563C1061.05 40.098 1057.55 39.1678 1053.75 39.1678C1049.94 39.1678 1046.42 40.098 1043.19 41.9563C1039.96 43.8157 1037.37 46.4709 1035.42 49.924C1033.48 53.3751 1032.5 57.4052 1032.5 62.0063C1032.5 66.6074 1033.48 70.6375 1035.42 74.0896C1037.37 77.5427 1039.96 80.1969 1043.19 82.0573C1046.42 83.9156 1049.94 84.8458 1053.75 84.8458C1057.55 84.8458 1061.05 83.9156 1064.24 82.0573Z" fill="#202124"/>
</g>
<defs>
<clipPath id="clip0_6_1454">
<rect width="1089.07" height="128" fill="white"/>
</clipPath>
</defs>
</svg>
