<?xml version="1.0" encoding="UTF-8"?>
<svg id="Layer_2" data-name="Layer 2" xmlns="http://www.w3.org/2000/svg" viewBox="0 0 416.13 128">
  <defs>
    <style>
      .cls-1 {
        fill: #202124;
      }
    </style>
  </defs>
  <g id="Layer_1-2" data-name="Layer 1">
    <g>
      <path class="cls-1" d="M24.83,92.81c-7.61-4.34-13.66-10.29-18.12-17.86C2.24,67.39,0,58.95,0,49.66s2.24-17.73,6.71-25.3c4.47-7.57,10.51-13.52,18.12-17.86C32.44,2.17,40.76,0,49.79,0c7.26,0,13.94,1.28,20.05,3.85,6.11,2.57,11.29,6.15,15.54,10.76l-10.09,10.09c-6.46-7.26-14.96-10.89-25.49-10.89-6.2,0-12,1.48-17.39,4.45-5.4,2.97-9.69,7.19-12.88,12.68-3.19,5.49-4.78,11.73-4.78,18.72s1.61,13.34,4.85,18.79c3.23,5.44,7.52,9.65,12.88,12.61,5.36,2.97,11.17,4.45,17.46,4.45,10,0,18.14-3.14,24.43-9.43,2.04-1.94,3.74-4.42,5.11-7.44,1.37-3.01,2.32-6.33,2.86-9.96h-32.66v-12.88h46.21c.53,3.01.8,5.58.8,7.7,0,6.02-.95,11.75-2.86,17.19-1.9,5.44-4.85,10.25-8.83,14.41-4.25,4.6-9.34,8.12-15.27,10.56-5.93,2.43-12.57,3.65-19.92,3.65-9.03,0-17.35-2.17-24.96-6.51h0Z"/>
      <path class="cls-1" d="M118.84,94.61c-5.4-3.14-9.61-7.46-12.61-12.95-3.01-5.49-4.51-11.6-4.51-18.32s1.5-12.83,4.51-18.32c3.01-5.49,7.21-9.8,12.61-12.95,5.4-3.14,11.51-4.71,18.32-4.71s12.79,1.59,18.19,4.78c5.4,3.19,9.6,7.52,12.61,13.01,3.01,5.49,4.51,11.55,4.51,18.19s-1.51,12.84-4.51,18.33c-3.01,5.49-7.19,9.8-12.55,12.95-5.36,3.14-11.44,4.71-18.26,4.71s-12.92-1.57-18.32-4.71ZM147.65,83.39c3.19-1.86,5.75-4.51,7.7-7.97,1.95-3.45,2.92-7.48,2.92-12.08s-.97-8.63-2.92-12.08c-1.95-3.45-4.51-6.11-7.7-7.97-3.19-1.86-6.68-2.79-10.49-2.79s-7.33.93-10.56,2.79c-3.23,1.86-5.82,4.51-7.77,7.97-1.95,3.45-2.92,7.48-2.92,12.08s.97,8.63,2.92,12.08c1.94,3.45,4.54,6.11,7.77,7.97,3.23,1.86,6.75,2.79,10.56,2.79s7.3-.93,10.49-2.79Z"/>
      <path class="cls-1" d="M193.46,94.61c-5.4-3.14-9.6-7.46-12.61-12.95-3.01-5.49-4.51-11.6-4.51-18.32s1.51-12.83,4.51-18.32c3.01-5.49,7.21-9.8,12.61-12.95,5.4-3.14,11.51-4.71,18.32-4.71s12.79,1.59,18.19,4.78c5.4,3.19,9.6,7.52,12.61,13.01,3.01,5.49,4.51,11.55,4.51,18.19s-1.5,12.84-4.51,18.33c-3.01,5.49-7.19,9.8-12.55,12.95-5.36,3.14-11.44,4.71-18.26,4.71s-12.93-1.57-18.32-4.71ZM222.27,83.39c3.19-1.86,5.75-4.51,7.7-7.97,1.95-3.45,2.92-7.48,2.92-12.08s-.97-8.63-2.92-12.08c-1.95-3.45-4.51-6.11-7.7-7.97-3.19-1.86-6.68-2.79-10.49-2.79s-7.32.93-10.56,2.79c-3.23,1.86-5.82,4.51-7.77,7.97-1.95,3.45-2.92,7.48-2.92,12.08s.97,8.63,2.92,12.08c1.95,3.45,4.53,6.11,7.77,7.97,3.23,1.86,6.75,2.79,10.56,2.79s7.3-.93,10.49-2.79Z"/>
      <path class="cls-1" d="M264.56,122.36c-5.44-3.76-9.1-8.3-10.96-13.61l13.28-5.58c1.41,3.63,3.74,6.55,6.97,8.76,3.23,2.21,6.97,3.32,11.22,3.32,6.28,0,11.2-1.93,14.74-5.79,3.54-3.86,5.31-9.28,5.31-16.25v-6.51h-.8c-2.21,3.28-5.18,5.84-8.9,7.7-3.72,1.86-7.96,2.79-12.75,2.79-5.76,0-11.04-1.45-15.87-4.34-4.82-2.89-8.67-6.99-11.55-12.3-2.88-5.3-4.32-11.38-4.32-18.22s1.44-12.91,4.32-18.22c2.88-5.3,6.73-9.43,11.55-12.36,4.83-2.94,10.11-4.41,15.87-4.41,4.69,0,8.92.95,12.68,2.86,3.76,1.91,6.75,4.49,8.96,7.77h.8v-8.5h13.68v64.13c0,7.26-1.42,13.48-4.25,18.66-2.83,5.18-6.79,9.1-11.88,11.75-5.09,2.66-10.95,3.98-17.59,3.98-8.23,0-15.07-1.88-20.52-5.64h0ZM295.17,81.57c3.01-1.74,5.42-4.25,7.24-7.52,1.82-3.27,2.72-7.17,2.72-11.71s-.91-8.59-2.72-11.9c-1.81-3.31-4.23-5.82-7.24-7.52-3.01-1.7-6.33-2.55-9.96-2.55s-6.97.85-10.03,2.55c-3.05,1.7-5.49,4.21-7.3,7.52-1.81,3.31-2.72,7.28-2.72,11.9s.91,8.46,2.72,11.77c1.82,3.31,4.25,5.82,7.3,7.52,3.06,1.7,6.4,2.55,10.03,2.55s6.95-.87,9.96-2.62Z"/>
      <path class="cls-1" d="M327.43,2.12h14.34v95.07h-14.34V2.12Z"/>
      <path class="cls-1" d="M366.27,94.67c-5.27-3.1-9.38-7.37-12.35-12.81-2.97-5.44-4.45-11.57-4.45-18.39,0-6.46,1.44-12.46,4.32-17.99,2.88-5.53,6.88-9.94,12.02-13.21,5.13-3.27,10.93-4.91,17.39-4.91,6.82,0,12.7,1.48,17.66,4.45,4.96,2.97,8.74,7.06,11.35,12.28,2.61,5.22,3.92,11.15,3.92,17.79,0,1.77-.09,3.28-.27,4.51h-52.32c.62,6.46,2.92,11.44,6.9,14.94,3.98,3.5,8.63,5.24,13.94,5.24,4.34,0,8.05-1,11.15-2.99,3.1-1.99,5.58-4.62,7.44-7.9l11.82,5.71c-3.1,5.58-7.21,9.96-12.35,13.14-5.14,3.19-11.29,4.78-18.46,4.78-6.55,0-12.46-1.55-17.73-4.65h0ZM401.92,55.63c-.18-2.48-.98-4.96-2.39-7.44-1.42-2.48-3.48-4.53-6.17-6.17-2.7-1.64-6.04-2.46-10.02-2.46-4.78,0-8.83,1.46-12.15,4.38-3.32,2.92-5.6,6.82-6.84,11.68h37.58,0Z"/>
    </g>
  </g>
</svg>