<svg width="344" height="233" viewBox="0 0 344 233" fill="none" xmlns="http://www.w3.org/2000/svg">
<path d="M23.9399 85.14C18.0199 81.77 13.3299 77.14 9.84989 71.26C6.37989 65.38 4.63989 58.82 4.63989 51.6C4.63989 44.38 6.37989 37.82 9.84989 31.94C13.3199 26.06 18.0199 21.43 23.9399 18.06C29.8599 14.69 36.3199 13 43.3399 13C48.9799 13 54.1799 14 58.9199 15.99C63.6699 17.99 67.6899 20.77 70.9899 24.35L63.1499 32.19C58.1299 26.55 51.5199 23.73 43.3399 23.73C38.5199 23.73 34.0199 24.88 29.8199 27.19C25.6199 29.5 22.2899 32.78 19.8099 37.05C17.3299 41.32 16.0999 46.17 16.0999 51.6C16.0999 57.03 17.3499 61.97 19.8699 66.2C22.3799 70.43 25.7199 73.7 29.8799 76C34.0399 78.31 38.5599 79.46 43.4499 79.46C51.2199 79.46 57.5499 77.02 62.4399 72.13C64.0199 70.62 65.3499 68.69 66.4099 66.35C67.4799 64.01 68.2199 61.43 68.6299 58.61H43.2399V48.6H79.1499C79.5599 50.94 79.7699 52.93 79.7699 54.59C79.7699 59.27 79.0299 63.72 77.5499 67.95C76.0699 72.18 73.7799 75.91 70.6899 79.15C67.3899 82.73 63.4299 85.46 58.8199 87.36C54.2099 89.25 49.0499 90.2 43.3399 90.2C36.3199 90.2 29.8599 88.51 23.9399 85.14Z" fill="#202124"/>
<path d="M98.86 86.53C94.66 84.09 91.4 80.74 89.06 76.47C86.72 72.2 85.55 67.46 85.55 62.23C85.55 57 86.72 52.26 89.06 47.99C91.4 43.73 94.67 40.37 98.86 37.93C103.06 35.49 107.8 34.27 113.1 34.27C118.4 34.27 123.04 35.51 127.24 37.98C131.44 40.46 134.7 43.83 137.04 48.09C139.38 52.36 140.55 57.07 140.55 62.23C140.55 67.39 139.38 72.21 137.04 76.47C134.7 80.74 131.45 84.09 127.29 86.53C123.13 88.97 118.4 90.19 113.1 90.19C107.8 90.19 103.05 88.97 98.86 86.53ZM121.26 77.81C123.74 76.36 125.73 74.3 127.25 71.62C128.76 68.94 129.52 65.81 129.52 62.23C129.52 58.65 128.76 55.52 127.25 52.84C125.74 50.16 123.74 48.09 121.26 46.65C118.78 45.21 116.06 44.48 113.11 44.48C110.16 44.48 107.42 45.2 104.91 46.65C102.4 48.1 100.39 50.16 98.87 52.84C97.36 55.52 96.6 58.65 96.6 62.23C96.6 65.81 97.36 68.94 98.87 71.62C100.38 74.3 102.4 76.37 104.91 77.81C107.42 79.25 110.16 79.98 113.11 79.98C116.06 79.98 118.79 79.26 121.26 77.81Z" fill="#202124"/>
<path d="M159.13 86.53C154.93 84.09 151.66 80.74 149.33 76.47C146.99 72.2 145.82 67.46 145.82 62.23C145.82 57 146.99 52.26 149.33 47.99C151.67 43.73 154.94 40.37 159.13 37.93C163.33 35.49 168.07 34.27 173.37 34.27C178.67 34.27 183.31 35.51 187.51 37.98C191.71 40.46 194.97 43.83 197.31 48.09C199.65 52.36 200.82 57.07 200.82 62.23C200.82 67.39 199.65 72.21 197.31 76.47C194.97 80.74 191.72 84.09 187.56 86.53C183.4 88.97 178.67 90.19 173.37 90.19C168.07 90.19 163.32 88.97 159.13 86.53ZM181.53 77.81C184.01 76.36 186 74.3 187.52 71.62C189.03 68.94 189.79 65.81 189.79 62.23C189.79 58.65 189.03 55.52 187.52 52.84C186.01 50.16 184.01 48.09 181.53 46.65C179.05 45.21 176.33 44.48 173.38 44.48C170.43 44.48 167.69 45.2 165.18 46.65C162.67 48.1 160.65 50.16 159.14 52.84C157.63 55.52 156.87 58.65 156.87 62.23C156.87 65.81 157.63 68.94 159.14 71.62C160.65 74.3 162.66 76.37 165.18 77.81C167.69 79.25 170.43 79.98 173.38 79.98C176.33 79.98 179.06 79.26 181.53 77.81Z" fill="#202124"/>
<path d="M216.87 108.1C212.64 105.17 209.8 101.65 208.36 97.52L218.68 93.19C219.78 96.01 221.59 98.28 224.1 100C226.61 101.72 229.52 102.58 232.82 102.58C237.7 102.58 241.52 101.08 244.28 98.08C247.03 95.08 248.41 90.87 248.41 85.45V80.39H247.79C246.07 82.94 243.76 84.93 240.87 86.38C237.98 87.82 234.68 88.55 230.96 88.55C226.49 88.55 222.38 87.43 218.63 85.18C214.88 82.93 211.89 79.75 209.65 75.62C207.41 71.5 206.3 66.78 206.3 61.46C206.3 56.14 207.42 51.42 209.65 47.3C211.88 43.18 214.88 39.97 218.63 37.69C222.38 35.41 226.49 34.27 230.96 34.27C234.61 34.27 237.89 35.01 240.82 36.49C243.74 37.97 246.07 39.98 247.79 42.53H248.41V35.93H259.04V85.78C259.04 91.42 257.94 96.25 255.74 100.28C253.54 104.31 250.46 107.35 246.5 109.41C242.54 111.47 237.99 112.51 232.83 112.51C226.43 112.51 221.12 111.05 216.89 108.12L216.87 108.1ZM240.66 76.4C243 75.05 244.87 73.1 246.28 70.55C247.69 68.01 248.4 64.98 248.4 61.45C248.4 57.92 247.69 54.77 246.28 52.2C244.87 49.62 242.99 47.68 240.66 46.35C238.32 45.03 235.74 44.37 232.92 44.37C230.1 44.37 227.5 45.03 225.13 46.35C222.76 47.67 220.86 49.62 219.45 52.2C218.04 54.78 217.33 57.86 217.33 61.45C217.33 65.04 218.03 68.02 219.45 70.6C220.86 73.18 222.75 75.12 225.13 76.44C227.5 77.76 230.1 78.42 232.92 78.42C235.74 78.42 238.32 77.74 240.66 76.39V76.4Z" fill="#202124"/>
<path d="M268.52 14.6499H279.67V88.5399H268.52V14.6499Z" fill="#202124"/>
<path d="M300.36 86.58C296.27 84.17 293.07 80.85 290.76 76.62C288.46 72.39 287.3 67.63 287.3 62.33C287.3 57.31 288.42 52.65 290.65 48.35C292.89 44.05 296 40.63 299.99 38.08C303.98 35.54 308.49 34.26 313.51 34.26C318.81 34.26 323.38 35.41 327.24 37.72C331.09 40.03 334.03 43.21 336.06 47.27C338.09 51.33 339.1 55.94 339.1 61.1C339.1 62.48 339.03 63.65 338.89 64.61H298.23C298.71 69.63 300.5 73.5 303.6 76.22C306.7 78.94 310.31 80.3 314.44 80.3C317.81 80.3 320.7 79.53 323.11 77.98C325.52 76.43 327.44 74.39 328.89 71.84L338.08 76.28C335.67 80.61 332.47 84.02 328.48 86.5C324.49 88.98 319.71 90.22 314.13 90.22C309.04 90.22 304.45 89.01 300.35 86.61L300.36 86.58ZM328.07 56.24C327.93 54.32 327.31 52.39 326.21 50.46C325.11 48.54 323.51 46.94 321.41 45.66C319.31 44.39 316.71 43.75 313.62 43.75C309.91 43.75 306.76 44.89 304.18 47.16C301.6 49.43 299.83 52.46 298.87 56.24H328.08H328.07Z" fill="#202124"/>
<path d="M14.0901 131.65H39.4801C43.8801 131.65 47.9301 132.61 51.6101 134.54C55.2901 136.47 58.2101 139.15 60.3801 142.59C62.5501 146.03 63.6301 149.92 63.6301 154.25C63.6301 158.58 62.5501 162.47 60.3801 165.91C58.2101 169.35 55.2901 172.03 51.6101 173.96C47.9301 175.89 43.8901 176.85 39.4801 176.85H25.4401V205.54H14.0901V131.65ZM39.7901 166.12C43.5701 166.12 46.6201 164.93 48.9201 162.56C51.2201 160.19 52.3801 157.42 52.3801 154.25C52.3801 151.08 51.2301 148.32 48.9201 145.94C46.6101 143.57 43.5701 142.38 39.7901 142.38H25.4401V166.12H39.7901Z" fill="#202124"/>
<path d="M71.8301 142.96C70.3501 141.48 69.6101 139.71 69.6101 137.65C69.6101 135.59 70.3501 133.83 71.8301 132.39C73.3101 130.95 75.0801 130.22 77.1501 130.22C79.2201 130.22 80.9801 130.94 82.4701 132.39C83.9501 133.84 84.6901 135.59 84.6901 137.65C84.6901 139.71 83.9501 141.49 82.4701 142.96C80.9901 144.43 79.2201 145.18 77.1501 145.18C75.0801 145.18 73.3101 144.44 71.8301 142.96ZM71.5701 152.91H82.7201V205.54H71.5701V152.91Z" fill="#202124"/>
<path d="M107.59 178.82L89.4299 152.92H102.33L114.09 170.26H114.4L125.65 152.92H139.07L120.6 178.82L139.18 205.55H126.18L114.21 187.7H113.9L102.24 205.55H89.1299L107.6 178.82H107.59Z" fill="#202124"/>
<path d="M154.18 203.58C150.09 201.17 146.89 197.85 144.58 193.62C142.27 189.39 141.12 184.63 141.12 179.33C141.12 174.31 142.24 169.65 144.47 165.35C146.7 161.05 149.82 157.63 153.81 155.08C157.8 152.54 162.31 151.26 167.33 151.26C172.63 151.26 177.2 152.41 181.06 154.72C184.91 157.03 187.85 160.21 189.88 164.27C191.91 168.33 192.92 172.94 192.92 178.1C192.92 179.48 192.85 180.65 192.71 181.61H152.05C152.53 186.63 154.32 190.5 157.42 193.22C160.52 195.94 164.13 197.3 168.26 197.3C171.63 197.3 174.52 196.53 176.93 194.98C179.34 193.43 181.26 191.39 182.71 188.84L191.9 193.28C189.49 197.61 186.29 201.02 182.3 203.5C178.31 205.98 173.53 207.22 167.96 207.22C162.87 207.22 158.28 206.01 154.18 203.61V203.58ZM181.89 173.24C181.75 171.32 181.13 169.39 180.03 167.46C178.93 165.54 177.33 163.94 175.23 162.66C173.13 161.39 170.53 160.75 167.44 160.75C163.73 160.75 160.58 161.89 158 164.16C155.42 166.43 153.65 169.46 152.68 173.24H181.89Z" fill="#202124"/>
<path d="M201.08 131.65H212.23V205.54H201.08V131.65Z" fill="#202124"/>
<path d="M257.53 149.92L245.97 158.18L240.29 149.61L260.72 134.96H268.67V205.55H257.52V149.93L257.53 149.92Z" fill="#202124"/>
<path d="M293.8 202.35C289.43 199.12 286.06 194.7 283.69 189.09C281.32 183.48 280.13 177.21 280.13 170.26C280.13 163.31 281.32 157.03 283.69 151.43C286.06 145.83 289.43 141.4 293.8 138.17C298.17 134.94 303.24 133.32 309.02 133.32C314.8 133.32 319.89 134.94 324.29 138.17C328.69 141.4 332.08 145.82 334.46 151.43C336.84 157.04 338.02 163.32 338.02 170.26C338.02 177.2 336.83 183.49 334.46 189.09C332.09 194.69 328.7 199.12 324.29 202.35C319.89 205.58 314.8 207.2 309.02 207.2C303.24 207.2 298.17 205.58 293.8 202.35ZM318.52 193.21C321.2 190.91 323.25 187.76 324.66 183.77C326.07 179.78 326.78 175.27 326.78 170.25C326.78 165.23 326.07 160.7 324.66 156.68C323.25 152.66 321.2 149.51 318.52 147.24C315.84 144.97 312.67 143.83 309.03 143.83C305.39 143.83 302.34 144.97 299.69 147.24C297.04 149.51 295.01 152.66 293.6 156.68C292.19 160.7 291.48 165.23 291.48 170.25C291.48 175.27 292.19 179.78 293.6 183.77C295.01 187.76 297.04 190.91 299.69 193.21C302.34 195.52 305.45 196.67 309.03 196.67C312.61 196.67 315.84 195.52 318.52 193.21Z" fill="#202124"/>
</svg>
