<svg width="1262" height="129" viewBox="0 0 1262 129" fill="none" xmlns="http://www.w3.org/2000/svg">
<g clip-path="url(#clip0_6_1288)">
<path d="M24.8309 93.4804C17.2144 89.1447 11.1803 83.1879 6.70305 75.623C2.23864 68.058 0 59.631 0 50.3292C0 41.0273 2.23864 32.6003 6.70305 25.0354C11.1803 17.4575 17.2144 11.5136 24.8309 7.16503C32.4474 2.82932 40.7715 0.655029 49.7904 0.655029C57.0467 0.655029 63.724 1.95446 69.8352 4.51471C75.9464 7.07497 81.1185 10.6773 85.377 15.2704L75.2903 25.357C68.8317 18.1008 60.3274 14.4598 49.8033 14.4598C43.602 14.4598 37.7995 15.9522 32.4088 18.9242C27.018 21.8962 22.7209 26.1161 19.5302 31.5968C16.3395 37.0776 14.7441 43.3174 14.7441 50.3163C14.7441 57.3924 16.3524 63.6579 19.5945 69.1001C22.8238 74.5422 27.1081 78.7493 32.4731 81.7084C37.8253 84.6675 43.6406 86.1599 49.9319 86.1599C59.9286 86.1599 68.0726 83.0207 74.364 76.7423C76.3967 74.7996 78.1079 72.3165 79.4716 69.3059C80.8354 66.3083 81.7875 62.9761 82.3279 59.348H49.6617V46.4695H95.8626C96.3901 49.48 96.6603 52.0532 96.6603 54.176C96.6603 60.1971 95.7082 65.9223 93.8041 71.3773C91.8999 76.8195 88.9666 81.6183 84.9782 85.7739C80.7196 90.3798 75.6377 93.905 69.7066 96.3237C63.7755 98.7553 57.1367 99.9776 49.7904 99.9776C40.7587 99.9776 32.4345 97.8161 24.8309 93.4676V93.4804Z" fill="#202124"/>
<path d="M121.221 95.2817C115.83 92.1425 111.61 87.8196 108.613 82.3389C105.602 76.8453 104.097 70.747 104.097 64.0054C104.097 57.2638 105.602 51.1784 108.613 45.6848C111.623 40.1911 115.83 35.8812 121.221 32.7419C126.625 29.6027 132.736 28.0203 139.542 28.0203C146.271 28.0203 152.33 29.6156 157.734 32.8063C163.125 35.9841 167.332 40.3327 170.342 45.8134C173.353 51.307 174.858 57.3667 174.858 64.0054C174.858 70.7341 173.353 76.8453 170.342 82.3389C167.332 87.8196 163.15 92.1425 157.798 95.2817C152.433 98.4209 146.361 99.9905 139.542 99.9905C132.723 99.9905 126.625 98.4209 121.221 95.2817ZM150.04 84.05C153.231 82.1845 155.791 79.5342 157.747 76.0862C159.69 72.6254 160.667 68.6113 160.667 64.0054C160.667 59.3995 159.69 55.3726 157.747 51.9374C155.791 48.4766 153.231 45.8134 150.04 43.9736C146.85 42.1081 143.35 41.1818 139.555 41.1818C135.759 41.1818 132.234 42.1081 129.005 43.9736C125.775 45.8263 123.177 48.4895 121.234 51.9374C119.291 55.3854 118.313 59.4124 118.313 64.0054C118.313 68.5984 119.291 72.6382 121.234 76.0862C123.177 79.5342 125.775 82.1974 129.005 84.05C132.234 85.9155 135.746 86.8419 139.555 86.8419C143.363 86.8419 146.85 85.9155 150.04 84.05Z" fill="#202124"/>
<path d="M198.763 95.2817C193.372 92.1425 189.152 87.8196 186.154 82.3389C183.144 76.8453 181.638 70.747 181.638 64.0054C181.638 57.2638 183.144 51.1784 186.154 45.6848C189.165 40.1911 193.372 35.8812 198.763 32.7419C204.166 29.6027 210.278 28.0203 217.084 28.0203C223.812 28.0203 229.872 29.6156 235.276 32.8063C240.666 35.9841 244.874 40.3327 247.884 45.8134C250.895 51.307 252.4 57.3667 252.4 64.0054C252.4 70.7341 250.895 76.8453 247.884 82.3389C244.874 87.8196 240.692 92.1425 235.34 95.2817C229.975 98.4209 223.902 99.9905 217.084 99.9905C210.265 99.9905 204.166 98.4209 198.763 95.2817ZM227.569 84.05C230.76 82.1845 233.32 79.5342 235.276 76.0862C237.218 72.6254 238.196 68.6113 238.196 64.0054C238.196 59.3995 237.218 55.3726 235.276 51.9374C233.32 48.4766 230.76 45.8134 227.569 43.9736C224.378 42.1081 220.879 41.1818 217.084 41.1818C213.288 41.1818 209.763 42.1081 206.534 43.9736C203.304 45.8263 200.705 48.4895 198.763 51.9374C196.82 55.3854 195.842 59.4124 195.842 64.0054C195.842 68.5984 196.82 72.6382 198.763 76.0862C200.705 79.5342 203.304 82.1974 206.534 84.05C209.763 85.9155 213.275 86.8419 217.084 86.8419C220.892 86.8419 224.378 85.9155 227.569 84.05Z" fill="#202124"/>
<path d="M273.05 123.033C267.607 119.263 263.954 114.722 262.101 109.408L275.378 103.837C276.794 107.453 279.122 110.386 282.352 112.599C285.581 114.812 289.325 115.918 293.57 115.918C299.849 115.918 304.764 113.988 308.315 110.141C311.853 106.269 313.628 100.853 313.628 93.8793V87.3693H312.83C310.618 90.6501 307.658 93.2103 303.94 95.0758C300.222 96.9414 295.976 97.8677 291.19 97.8677C285.439 97.8677 280.151 96.4267 275.327 93.532C270.502 90.6243 266.642 86.5331 263.773 81.2324C260.891 75.9318 259.463 69.8464 259.463 63.0147C259.463 56.1831 260.904 50.0977 263.773 44.797C266.642 39.4964 270.489 35.3794 275.327 32.4332C280.151 29.4869 285.439 28.0203 291.19 28.0203C295.886 28.0203 300.106 28.9723 303.876 30.8893C307.633 32.7805 310.618 35.3794 312.83 38.6601H313.628V30.156H327.304V94.291C327.304 101.534 325.889 107.761 323.059 112.933C320.228 118.118 316.266 122.029 311.171 124.692C306.076 127.343 300.209 128.681 293.583 128.681C285.349 128.681 278.518 126.802 273.062 123.046L273.05 123.033ZM303.657 82.236C306.668 80.4862 309.074 77.9903 310.888 74.7224C312.702 71.4417 313.602 67.5434 313.602 63.0147C313.602 58.396 312.689 54.4205 310.888 51.114C309.074 47.7947 306.655 45.2988 303.657 43.5877C300.647 41.8894 297.327 41.0403 293.699 41.0403C290.071 41.0403 286.726 41.8894 283.677 43.5877C280.628 45.2988 278.183 47.7947 276.382 51.114C274.568 54.4205 273.654 58.3831 273.654 63.0147C273.654 67.5563 274.568 71.4674 276.382 74.7868C278.196 78.1061 280.628 80.602 283.677 82.3003C286.726 84.0114 290.071 84.8477 293.699 84.8477C297.327 84.8477 300.647 83.9857 303.657 82.236Z" fill="#202124"/>
<path d="M339.501 2.80371H353.833V97.8677H339.501V2.80371Z" fill="#202124"/>
<path d="M380.453 95.3332C375.191 92.2454 371.073 87.974 368.114 82.519C365.155 77.0769 363.663 70.9528 363.663 64.134C363.663 57.6755 365.104 51.6673 367.973 46.1479C370.842 40.6157 374.856 36.2157 379.989 32.9349C385.123 29.6671 390.925 28.0203 397.384 28.0203C404.203 28.0203 410.082 29.4998 415.049 32.4718C420.002 35.4437 423.797 39.535 426.396 44.7584C429.008 49.9819 430.32 55.9129 430.32 62.5516C430.32 64.327 430.23 65.8323 430.05 67.0674H377.738C378.356 73.5388 380.658 78.5178 384.647 82.0044C388.635 85.5038 393.28 87.2536 398.58 87.2536C402.916 87.2536 406.634 86.25 409.735 84.2687C412.836 82.2746 415.319 79.65 417.171 76.3692L428.982 82.0687C425.882 87.6524 421.764 92.0267 416.644 95.2174C411.51 98.3952 405.361 99.9905 398.182 99.9905C391.633 99.9905 385.728 98.4466 380.453 95.346V95.3332ZM416.104 56.2989C415.923 53.8287 415.126 51.3456 413.711 48.8754C412.295 46.3924 410.237 44.3339 407.535 42.6999C404.833 41.066 401.488 40.2555 397.513 40.2555C392.739 40.2555 388.687 41.7093 385.367 44.6298C382.048 47.5631 379.758 51.4485 378.523 56.3117H416.091L416.104 56.2989Z" fill="#202124"/>
<path d="M476.251 2.80371H508.917C514.578 2.80371 519.789 4.03881 524.523 6.50901C529.258 8.99207 533.015 12.4529 535.806 16.8787C538.598 21.3045 539.988 26.2963 539.988 31.88C539.988 37.4637 538.598 42.4555 535.806 46.8813C533.015 51.3071 529.258 54.7551 524.523 57.2381C519.789 59.7212 514.591 60.9563 508.917 60.9563H490.866V97.8677H476.264V2.80371H476.251ZM509.316 47.1386C514.179 47.1386 518.103 45.6205 521.062 42.5713C524.021 39.5222 525.514 35.9455 525.514 31.88C525.514 27.8145 524.034 24.2378 521.062 21.1887C518.09 18.1395 514.179 16.6214 509.316 16.6214H490.854V47.1515L509.316 47.1386Z" fill="#202124"/>
<path d="M550.666 17.3417C548.762 15.4376 547.81 13.1604 547.81 10.4972C547.81 7.83403 548.762 5.58255 550.666 3.74277C552.57 1.87725 554.848 0.950928 557.511 0.950928C560.174 0.950928 562.438 1.87725 564.343 3.74277C566.247 5.59541 567.199 7.8469 567.199 10.4972C567.199 13.1475 566.247 15.4376 564.343 17.3417C562.438 19.233 560.161 20.1979 557.511 20.1979C554.861 20.1979 552.57 19.2458 550.666 17.3417ZM550.345 30.143H564.677V97.8676H550.345V30.143Z" fill="#202124"/>
<path d="M596.674 63.4779L573.31 30.1431H589.907L605.05 52.452H605.449L619.923 30.1431H637.176L613.413 63.4779L637.304 97.8677H620.579L605.178 74.9025H604.78L589.778 97.8677H572.911L596.674 63.4779Z" fill="#202124"/>
<path d="M656.487 95.3332C651.225 92.2454 647.108 87.974 644.149 82.519C641.19 77.0769 639.697 70.9528 639.697 64.134C639.697 57.6755 641.138 51.6673 644.007 46.1479C646.876 40.6157 650.89 36.2157 656.024 32.9349C661.157 29.6671 666.96 28.0203 673.418 28.0203C680.237 28.0203 686.117 29.4998 691.083 32.4718C696.036 35.4437 699.832 39.535 702.431 44.7584C705.042 49.9819 706.355 55.9129 706.355 62.5516C706.355 64.327 706.265 65.8323 706.084 67.0674H653.772C654.39 73.5388 656.693 78.5178 660.681 82.0044C664.67 85.5038 669.314 87.2536 674.615 87.2536C678.951 87.2536 682.669 86.25 685.769 84.2687C688.87 82.2746 691.353 79.65 693.206 76.3692L705.017 82.0687C701.916 87.6524 697.799 92.0267 692.678 95.2174C687.545 98.3952 681.395 99.9905 674.216 99.9905C667.667 99.9905 661.762 98.4466 656.487 95.346V95.3332ZM692.138 56.2989C691.958 53.8287 691.16 51.3456 689.745 48.8754C688.33 46.3924 686.271 44.3339 683.569 42.6999C680.868 41.066 677.523 40.2555 673.547 40.2555C668.774 40.2555 664.721 41.7093 661.402 44.6298C658.082 47.5631 655.792 51.4485 654.557 56.3117H692.125L692.138 56.2989Z" fill="#202124"/>
<path d="M716.84 2.80371H731.173V97.8677H716.84V2.80371Z" fill="#202124"/>
<path d="M767.287 2.80371H783.485L798.615 64.5458L800.21 72.7798H801.008L803.002 64.5458L822.12 2.80371H836.723L855.044 64.5458L857.038 72.6383H857.836L859.431 64.5458L874.574 2.80371H890.643L865.542 97.8677H850.142L831.95 34.8005L829.827 25.9104H829.029L826.778 34.8005L807.788 97.8677H792.774L767.287 2.80371Z" fill="#202124"/>
<path d="M902.982 97.1344C899.173 95.2303 896.214 92.5543 894.092 89.1063C891.969 85.6454 890.901 81.7085 890.901 77.2828C890.901 72.5997 892.136 68.5342 894.619 65.1376C897.102 61.7282 900.46 59.1165 904.719 57.3153C908.964 55.4884 913.699 54.5878 918.922 54.5878C922.911 54.5878 926.513 54.9609 929.743 55.72C932.972 56.4791 935.558 57.3282 937.513 58.306V54.7294C937.513 50.3808 935.918 46.8685 932.727 44.1667C929.537 41.4778 925.433 40.1269 920.389 40.1269C916.928 40.1269 913.66 40.9117 910.56 42.4556C907.459 43.9994 904.976 46.1094 903.123 48.7597L893.294 41.1947C896.214 37.0391 900.087 33.797 904.912 31.4941C909.736 29.1911 915.024 28.0332 920.775 28.0332C930.514 28.0332 938.054 30.4519 943.419 35.2637C948.771 40.0883 951.447 46.8427 951.447 55.5142V97.8678H937.513V89.5051H936.716C934.773 92.5157 931.981 95.0245 928.353 97.0058C924.725 98.9999 920.608 99.9906 916.002 99.9906C911.139 99.9906 906.79 99.0385 902.982 97.1344ZM928.212 85.7098C931.132 83.9858 933.409 81.6699 935.043 78.7366C936.677 75.8161 937.5 72.6769 937.5 69.319C935.378 68.071 932.946 67.1061 930.206 66.3856C927.465 65.678 924.583 65.3306 921.573 65.3306C915.989 65.3306 911.898 66.4371 909.286 68.6499C906.674 70.8628 905.362 73.7833 905.362 77.4243C905.362 80.6021 906.558 83.2138 908.952 85.2466C911.345 87.2794 914.535 88.2957 918.511 88.2957C922.049 88.2957 925.278 87.4337 928.199 85.7098H928.212Z" fill="#202124"/>
<path d="M984.563 98.5624C981.952 97.6232 979.803 96.2851 978.131 94.5612C974.322 90.8687 972.418 85.6453 972.418 78.8651V42.6227H960.607V30.1302H972.418V11.0376H986.751V30.143H1003.35V42.6355H986.751V75.9704C986.751 79.7786 987.458 82.4546 988.886 83.9985C990.392 85.7225 992.682 86.5845 995.795 86.5845C997.391 86.5845 998.754 86.3786 999.912 85.9798C1001.07 85.581 1002.34 84.9377 1003.76 84.0628V98.0091C1000.75 99.3343 997.159 99.9904 993.003 99.9904C989.993 99.9904 987.175 99.5144 984.576 98.5752L984.563 98.5624Z" fill="#202124"/>
<path d="M1027.92 95.3332C1022.61 92.2455 1018.48 87.9741 1015.51 82.5191C1012.55 77.0769 1011.05 70.9143 1011.05 64.0055C1011.05 57.0966 1012.53 50.9211 1015.51 45.4918C1018.48 40.0626 1022.61 35.7783 1027.92 32.6777C1033.23 29.5899 1039.26 28.0332 1045.97 28.0332C1053.41 28.0332 1059.71 29.6929 1064.9 33.0251C1070.08 36.3444 1073.81 40.9117 1076.12 46.7527L1063.11 52.0662C1059.92 44.8228 1054.13 41.1819 1045.71 41.1819C1042 41.1819 1038.56 42.1211 1035.42 44.038C1032.28 45.9293 1029.8 48.6053 1027.99 52.0662C1026.17 55.527 1025.26 59.5025 1025.26 64.0183C1025.26 68.5342 1026.17 72.5225 1027.99 75.9705C1029.8 79.4313 1032.27 82.1074 1035.42 84.0115C1038.56 85.9027 1042 86.8677 1045.71 86.8677C1049.97 86.8677 1053.61 85.9156 1056.68 84.0115C1059.72 82.1074 1062.09 79.3413 1063.78 75.7003L1076.66 81.284C1073.99 87.0349 1070.06 91.6022 1064.85 94.9601C1059.62 98.3181 1053.33 100.003 1045.98 100.003C1039.27 100.003 1033.23 98.4596 1027.93 95.359L1027.92 95.3332Z" fill="#202124"/>
<path d="M1087.54 2.80371H1101.87V28.818L1101.08 39.4321H1101.87C1103.82 36.0742 1106.72 33.3209 1110.57 31.1981C1114.42 29.0753 1118.64 28.0074 1123.24 28.0074C1131.48 28.0074 1137.76 30.4648 1142.09 35.3794C1146.43 40.2941 1148.6 46.8684 1148.6 55.0896V97.842H1134.4V56.9422C1134.4 51.7316 1133.01 47.7819 1130.22 45.1316C1127.42 42.4684 1123.86 41.1432 1119.52 41.1432C1116.26 41.1432 1113.26 42.0824 1110.57 43.9994C1107.87 45.8907 1105.75 48.4509 1104.19 51.6287C1102.63 54.8194 1101.86 58.1902 1101.86 61.7282V97.842H1087.53L1087.54 2.80371Z" fill="#202124"/>
<path d="M1236.24 79.6758H1193.49V68.5342L1235.05 7.06226H1250.45V66.3985H1262V79.6758H1250.45V97.8678H1236.24V79.6758ZM1236.24 66.3856V28.149H1235.45L1209.55 66.3856H1236.24Z" fill="#202124"/>
</g>
<defs>
<clipPath id="clip0_6_1288">
<rect width="1262" height="128" fill="white" transform="translate(0 0.667969)"/>
</clipPath>
</defs>
</svg>
